<?xml version="1.0" encoding="utf-8" standalone="no"?>
<!DOCTYPE svg PUBLIC "-//W3C//DTD SVG 1.1//EN"
  "http://www.w3.org/Graphics/SVG/1.1/DTD/svg11.dtd">
<!-- Created with matplotlib (http://matplotlib.org/) -->
<svg height="263pt" version="1.1" viewBox="0 0 715 263" width="715pt" xmlns="http://www.w3.org/2000/svg" xmlns:xlink="http://www.w3.org/1999/xlink">
 <defs>
  <style type="text/css">
*{stroke-linecap:butt;stroke-linejoin:round;}
  </style>
 </defs>
 <g id="figure_1">
  <g id="patch_1">
   <path d="M 0 263.89247 
L 715.219055 263.89247 
L 715.219055 0 
L 0 0 
z
" style="fill:#ffffff;"/>
  </g>
  <g id="axes_1">
   <g id="patch_2">
    <path d="M 43.308274 214.449281 
L 545.508274 214.449281 
L 545.508274 20.409281 
L 43.308274 20.409281 
z
" style="fill:#ffffff;"/>
   </g>
   <g id="PolyCollection_1">
    <defs>
     <path d="M 66.135547 -69.710204 
L 66.135547 -68.654384 
L 104.181001 -77.620377 
L 142.226456 -94.063703 
L 180.27191 -104.172201 
L 218.317365 -109.527578 
L 256.362819 -112.378488 
L 294.408274 -152.996543 
L 332.453728 -152.583511 
L 370.499183 -139.78854 
L 408.544638 -141.230236 
L 446.590092 -139.642387 
L 484.635547 -150.506609 
L 522.681001 -150.693472 
L 522.681001 -158.017763 
L 522.681001 -158.017763 
L 484.635547 -154.91255 
L 446.590092 -147.765679 
L 408.544638 -146.949972 
L 370.499183 -151.622017 
L 332.453728 -156.4587 
L 294.408274 -166.596644 
L 256.362819 -125.963213 
L 218.317365 -120.492981 
L 180.27191 -113.369744 
L 142.226456 -96.697025 
L 104.181001 -78.618943 
L 66.135547 -69.710204 
z
" id="m7de32d4216"/>
    </defs>
    <g clip-path="url(#pcca8a0e1a2)">
     <use style="fill:#4c72b0;fill-opacity:0.25;" x="0" xlink:href="#m7de32d4216" y="263.89247"/>
    </g>
   </g>
   <g id="PolyCollection_2">
    <defs>
     <path d="M 66.135547 -68.263905 
L 66.135547 -67.988797 
L 104.181001 -67.384935 
L 142.226456 -64.847155 
L 180.27191 -65.442022 
L 218.317365 -65.636337 
L 256.362819 -65.158422 
L 294.408274 -62.602714 
L 332.453728 -61.530974 
L 370.499183 -61.34385 
L 408.544638 -61.094862 
L 446.590092 -60.906124 
L 484.635547 -62.413016 
L 522.681001 -63.261694 
L 522.681001 -64.677784 
L 522.681001 -64.677784 
L 484.635547 -65.064042 
L 446.590092 -62.359853 
L 408.544638 -63.03542 
L 370.499183 -62.827104 
L 332.453728 -62.341948 
L 294.408274 -63.743515 
L 256.362819 -67.360545 
L 218.317365 -67.181064 
L 180.27191 -67.14665 
L 142.226456 -67.229655 
L 104.181001 -68.741545 
L 66.135547 -68.263905 
z
" id="m6857646bfc"/>
    </defs>
    <g clip-path="url(#pcca8a0e1a2)">
     <use style="fill:#dd8452;fill-opacity:0.25;" x="0" xlink:href="#m6857646bfc" y="263.89247"/>
    </g>
   </g>
   <g id="PolyCollection_3">
    <defs>
     <path d="M 66.135547 -186.623111 
L 66.135547 -181.64949 
L 104.181001 -183.51638 
L 142.226456 -180.2635 
L 180.27191 -176.222786 
L 218.317365 -160.047751 
L 256.362819 -139.246073 
L 294.408274 -155.898865 
L 332.453728 -141.219471 
L 370.499183 -132.221173 
L 408.544638 -132.393623 
L 446.590092 -134.729558 
L 484.635547 -153.631044 
L 522.681001 -151.720485 
L 522.681001 -159.685143 
L 522.681001 -159.685143 
L 484.635547 -162.934662 
L 446.590092 -141.05967 
L 408.544638 -146.269559 
L 370.499183 -140.565545 
L 332.453728 -151.317789 
L 294.408274 -167.6785 
L 256.362819 -147.840839 
L 218.317365 -170.275782 
L 180.27191 -182.130313 
L 142.226456 -183.917225 
L 104.181001 -186.345019 
L 66.135547 -186.623111 
z
" id="m15a9708c27"/>
    </defs>
    <g clip-path="url(#pcca8a0e1a2)">
     <use style="fill:#55a868;fill-opacity:0.25;" x="0" xlink:href="#m15a9708c27" y="263.89247"/>
    </g>
   </g>
   <g id="PolyCollection_4">
    <defs>
     <path d="M 66.135547 -234.663189 
L 66.135547 -225.885903 
L 104.181001 -217.659213 
L 142.226456 -194.920448 
L 180.27191 -148.68345 
L 218.317365 -95.431013 
L 256.362819 -70.04061 
L 294.408274 -63.00194 
L 332.453728 -60.401063 
L 370.499183 -59.840486 
L 408.544638 -58.263189 
L 446.590092 -60.685708 
L 484.635547 -61.767657 
L 522.681001 -62.75957 
L 522.681001 -64.651628 
L 522.681001 -64.651628 
L 484.635547 -65.175114 
L 446.590092 -61.424649 
L 408.544638 -61.413009 
L 370.499183 -61.907399 
L 332.453728 -62.477234 
L 294.408274 -65.369374 
L 256.362819 -73.11065 
L 218.317365 -97.46248 
L 180.27191 -154.13674 
L 142.226456 -208.147586 
L 104.181001 -227.921645 
L 66.135547 -234.663189 
z
" id="mbfc81e8343"/>
    </defs>
    <g clip-path="url(#pcca8a0e1a2)">
     <use style="fill:#c44e52;fill-opacity:0.25;" x="0" xlink:href="#mbfc81e8343" y="263.89247"/>
    </g>
   </g>
   <g id="matplotlib.axis_1">
    <g id="xtick_1">
     <g id="line2d_1">
      <defs>
       <path d="M 0 0 
L 0 3.5 
" id="m0f51a043e1" style="stroke:#000000;stroke-width:0.8;"/>
      </defs>
      <g>
       <use style="stroke:#000000;stroke-width:0.8;" x="66.135547" xlink:href="#m0f51a043e1" y="214.449281"/>
      </g>
     </g>
     <g id="text_1">
      <!-- 4 B -->
      <defs>
       <path d="M 37.796875 64.3125 
L 12.890625 25.390625 
L 37.796875 25.390625 
z
M 35.203125 72.90625 
L 47.609375 72.90625 
L 47.609375 25.390625 
L 58.015625 25.390625 
L 58.015625 17.1875 
L 47.609375 17.1875 
L 47.609375 0 
L 37.796875 0 
L 37.796875 17.1875 
L 4.890625 17.1875 
L 4.890625 26.703125 
z
" id="DejaVuSans-34"/>
       <path id="DejaVuSans-20"/>
       <path d="M 19.671875 34.8125 
L 19.671875 8.109375 
L 35.5 8.109375 
Q 43.453125 8.109375 47.28125 11.40625 
Q 51.125 14.703125 51.125 21.484375 
Q 51.125 28.328125 47.28125 31.5625 
Q 43.453125 34.8125 35.5 34.8125 
z
M 19.671875 64.796875 
L 19.671875 42.828125 
L 34.28125 42.828125 
Q 41.5 42.828125 45.03125 45.53125 
Q 48.578125 48.25 48.578125 53.8125 
Q 48.578125 59.328125 45.03125 62.0625 
Q 41.5 64.796875 34.28125 64.796875 
z
M 9.8125 72.90625 
L 35.015625 72.90625 
Q 46.296875 72.90625 52.390625 68.21875 
Q 58.5 63.53125 58.5 54.890625 
Q 58.5 48.1875 55.375 44.234375 
Q 52.25 40.28125 46.1875 39.3125 
Q 53.46875 37.75 57.5 32.78125 
Q 61.53125 27.828125 61.53125 20.40625 
Q 61.53125 10.640625 54.890625 5.3125 
Q 48.25 0 35.984375 0 
L 9.8125 0 
z
" id="DejaVuSans-42"/>
      </defs>
      <g transform="translate(63.607131 221.449281)rotate(-270)scale(0.09163 -0.09163)">
       <use xlink:href="#DejaVuSans-34"/>
       <use x="63.623047" xlink:href="#DejaVuSans-20"/>
       <use x="95.410156" xlink:href="#DejaVuSans-42"/>
      </g>
     </g>
    </g>
    <g id="xtick_2">
     <g id="line2d_2">
      <g>
       <use style="stroke:#000000;stroke-width:0.8;" x="104.181001" xlink:href="#m0f51a043e1" y="214.449281"/>
      </g>
     </g>
     <g id="text_2">
      <!-- 16 B -->
      <defs>
       <path d="M 12.40625 8.296875 
L 28.515625 8.296875 
L 28.515625 63.921875 
L 10.984375 60.40625 
L 10.984375 69.390625 
L 28.421875 72.90625 
L 38.28125 72.90625 
L 38.28125 8.296875 
L 54.390625 8.296875 
L 54.390625 0 
L 12.40625 0 
z
" id="DejaVuSans-31"/>
       <path d="M 33.015625 40.375 
Q 26.375 40.375 22.484375 35.828125 
Q 18.609375 31.296875 18.609375 23.390625 
Q 18.609375 15.53125 22.484375 10.953125 
Q 26.375 6.390625 33.015625 6.390625 
Q 39.65625 6.390625 43.53125 10.953125 
Q 47.40625 15.53125 47.40625 23.390625 
Q 47.40625 31.296875 43.53125 35.828125 
Q 39.65625 40.375 33.015625 40.375 
z
M 52.59375 71.296875 
L 52.59375 62.3125 
Q 48.875 64.0625 45.09375 64.984375 
Q 41.3125 65.921875 37.59375 65.921875 
Q 27.828125 65.921875 22.671875 59.328125 
Q 17.53125 52.734375 16.796875 39.40625 
Q 19.671875 43.65625 24.015625 45.921875 
Q 28.375 48.1875 33.59375 48.1875 
Q 44.578125 48.1875 50.953125 41.515625 
Q 57.328125 34.859375 57.328125 23.390625 
Q 57.328125 12.15625 50.6875 5.359375 
Q 44.046875 -1.421875 33.015625 -1.421875 
Q 20.359375 -1.421875 13.671875 8.265625 
Q 6.984375 17.96875 6.984375 36.375 
Q 6.984375 53.65625 15.1875 63.9375 
Q 23.390625 74.21875 37.203125 74.21875 
Q 40.921875 74.21875 44.703125 73.484375 
Q 48.484375 72.75 52.59375 71.296875 
z
" id="DejaVuSans-36"/>
      </defs>
      <g transform="translate(101.652586 221.449281)rotate(-270)scale(0.09163 -0.09163)">
       <use xlink:href="#DejaVuSans-31"/>
       <use x="63.623047" xlink:href="#DejaVuSans-36"/>
       <use x="127.246094" xlink:href="#DejaVuSans-20"/>
       <use x="159.033203" xlink:href="#DejaVuSans-42"/>
      </g>
     </g>
    </g>
    <g id="xtick_3">
     <g id="line2d_3">
      <g>
       <use style="stroke:#000000;stroke-width:0.8;" x="142.226456" xlink:href="#m0f51a043e1" y="214.449281"/>
      </g>
     </g>
     <g id="text_3">
      <!-- 64 B -->
      <g transform="translate(139.69804 221.449281)rotate(-270)scale(0.09163 -0.09163)">
       <use xlink:href="#DejaVuSans-36"/>
       <use x="63.623047" xlink:href="#DejaVuSans-34"/>
       <use x="127.246094" xlink:href="#DejaVuSans-20"/>
       <use x="159.033203" xlink:href="#DejaVuSans-42"/>
      </g>
     </g>
    </g>
    <g id="xtick_4">
     <g id="line2d_4">
      <g>
       <use style="stroke:#000000;stroke-width:0.8;" x="180.27191" xlink:href="#m0f51a043e1" y="214.449281"/>
      </g>
     </g>
     <g id="text_4">
      <!-- 256 B -->
      <defs>
       <path d="M 19.1875 8.296875 
L 53.609375 8.296875 
L 53.609375 0 
L 7.328125 0 
L 7.328125 8.296875 
Q 12.9375 14.109375 22.625 23.890625 
Q 32.328125 33.6875 34.8125 36.53125 
Q 39.546875 41.84375 41.421875 45.53125 
Q 43.3125 49.21875 43.3125 52.78125 
Q 43.3125 58.59375 39.234375 62.25 
Q 35.15625 65.921875 28.609375 65.921875 
Q 23.96875 65.921875 18.8125 64.3125 
Q 13.671875 62.703125 7.8125 59.421875 
L 7.8125 69.390625 
Q 13.765625 71.78125 18.9375 73 
Q 24.125 74.21875 28.421875 74.21875 
Q 39.75 74.21875 46.484375 68.546875 
Q 53.21875 62.890625 53.21875 53.421875 
Q 53.21875 48.921875 51.53125 44.890625 
Q 49.859375 40.875 45.40625 35.40625 
Q 44.1875 33.984375 37.640625 27.21875 
Q 31.109375 20.453125 19.1875 8.296875 
z
" id="DejaVuSans-32"/>
       <path d="M 10.796875 72.90625 
L 49.515625 72.90625 
L 49.515625 64.59375 
L 19.828125 64.59375 
L 19.828125 46.734375 
Q 21.96875 47.46875 24.109375 47.828125 
Q 26.265625 48.1875 28.421875 48.1875 
Q 40.625 48.1875 47.75 41.5 
Q 54.890625 34.8125 54.890625 23.390625 
Q 54.890625 11.625 47.5625 5.09375 
Q 40.234375 -1.421875 26.90625 -1.421875 
Q 22.3125 -1.421875 17.546875 -0.640625 
Q 12.796875 0.140625 7.71875 1.703125 
L 7.71875 11.625 
Q 12.109375 9.234375 16.796875 8.0625 
Q 21.484375 6.890625 26.703125 6.890625 
Q 35.15625 6.890625 40.078125 11.328125 
Q 45.015625 15.765625 45.015625 23.390625 
Q 45.015625 31 40.078125 35.4375 
Q 35.15625 39.890625 26.703125 39.890625 
Q 22.75 39.890625 18.8125 39.015625 
Q 14.890625 38.140625 10.796875 36.28125 
z
" id="DejaVuSans-35"/>
      </defs>
      <g transform="translate(177.743495 221.449281)rotate(-270)scale(0.09163 -0.09163)">
       <use xlink:href="#DejaVuSans-32"/>
       <use x="63.623047" xlink:href="#DejaVuSans-35"/>
       <use x="127.246094" xlink:href="#DejaVuSans-36"/>
       <use x="190.869141" xlink:href="#DejaVuSans-20"/>
       <use x="222.65625" xlink:href="#DejaVuSans-42"/>
      </g>
     </g>
    </g>
    <g id="xtick_5">
     <g id="line2d_5">
      <g>
       <use style="stroke:#000000;stroke-width:0.8;" x="218.317365" xlink:href="#m0f51a043e1" y="214.449281"/>
      </g>
     </g>
     <g id="text_5">
      <!-- 1 KiB -->
      <defs>
       <path d="M 9.8125 72.90625 
L 19.671875 72.90625 
L 19.671875 42.09375 
L 52.390625 72.90625 
L 65.09375 72.90625 
L 28.90625 38.921875 
L 67.671875 0 
L 54.6875 0 
L 19.671875 35.109375 
L 19.671875 0 
L 9.8125 0 
z
" id="DejaVuSans-4b"/>
       <path d="M 9.421875 54.6875 
L 18.40625 54.6875 
L 18.40625 0 
L 9.421875 0 
z
M 9.421875 75.984375 
L 18.40625 75.984375 
L 18.40625 64.59375 
L 9.421875 64.59375 
z
" id="DejaVuSans-69"/>
      </defs>
      <g transform="translate(215.78895 221.449281)rotate(-270)scale(0.09163 -0.09163)">
       <use xlink:href="#DejaVuSans-31"/>
       <use x="63.623047" xlink:href="#DejaVuSans-20"/>
       <use x="95.410156" xlink:href="#DejaVuSans-4b"/>
       <use x="160.986328" xlink:href="#DejaVuSans-69"/>
       <use x="188.769531" xlink:href="#DejaVuSans-42"/>
      </g>
     </g>
    </g>
    <g id="xtick_6">
     <g id="line2d_6">
      <g>
       <use style="stroke:#000000;stroke-width:0.8;" x="256.362819" xlink:href="#m0f51a043e1" y="214.449281"/>
      </g>
     </g>
     <g id="text_6">
      <!-- 4 KiB -->
      <g transform="translate(253.834404 221.449281)rotate(-270)scale(0.09163 -0.09163)">
       <use xlink:href="#DejaVuSans-34"/>
       <use x="63.623047" xlink:href="#DejaVuSans-20"/>
       <use x="95.410156" xlink:href="#DejaVuSans-4b"/>
       <use x="160.986328" xlink:href="#DejaVuSans-69"/>
       <use x="188.769531" xlink:href="#DejaVuSans-42"/>
      </g>
     </g>
    </g>
    <g id="xtick_7">
     <g id="line2d_7">
      <g>
       <use style="stroke:#000000;stroke-width:0.8;" x="294.408274" xlink:href="#m0f51a043e1" y="214.449281"/>
      </g>
     </g>
     <g id="text_7">
      <!-- 16 KiB -->
      <g transform="translate(291.879859 221.449281)rotate(-270)scale(0.09163 -0.09163)">
       <use xlink:href="#DejaVuSans-31"/>
       <use x="63.623047" xlink:href="#DejaVuSans-36"/>
       <use x="127.246094" xlink:href="#DejaVuSans-20"/>
       <use x="159.033203" xlink:href="#DejaVuSans-4b"/>
       <use x="224.609375" xlink:href="#DejaVuSans-69"/>
       <use x="252.392578" xlink:href="#DejaVuSans-42"/>
      </g>
     </g>
    </g>
    <g id="xtick_8">
     <g id="line2d_8">
      <g>
       <use style="stroke:#000000;stroke-width:0.8;" x="332.453728" xlink:href="#m0f51a043e1" y="214.449281"/>
      </g>
     </g>
     <g id="text_8">
      <!-- 64 KiB -->
      <g transform="translate(329.925313 221.449281)rotate(-270)scale(0.09163 -0.09163)">
       <use xlink:href="#DejaVuSans-36"/>
       <use x="63.623047" xlink:href="#DejaVuSans-34"/>
       <use x="127.246094" xlink:href="#DejaVuSans-20"/>
       <use x="159.033203" xlink:href="#DejaVuSans-4b"/>
       <use x="224.609375" xlink:href="#DejaVuSans-69"/>
       <use x="252.392578" xlink:href="#DejaVuSans-42"/>
      </g>
     </g>
    </g>
    <g id="xtick_9">
     <g id="line2d_9">
      <g>
       <use style="stroke:#000000;stroke-width:0.8;" x="370.499183" xlink:href="#m0f51a043e1" y="214.449281"/>
      </g>
     </g>
     <g id="text_9">
      <!-- 256 KiB -->
      <g transform="translate(367.970768 221.449281)rotate(-270)scale(0.09163 -0.09163)">
       <use xlink:href="#DejaVuSans-32"/>
       <use x="63.623047" xlink:href="#DejaVuSans-35"/>
       <use x="127.246094" xlink:href="#DejaVuSans-36"/>
       <use x="190.869141" xlink:href="#DejaVuSans-20"/>
       <use x="222.65625" xlink:href="#DejaVuSans-4b"/>
       <use x="288.232422" xlink:href="#DejaVuSans-69"/>
       <use x="316.015625" xlink:href="#DejaVuSans-42"/>
      </g>
     </g>
    </g>
    <g id="xtick_10">
     <g id="line2d_10">
      <g>
       <use style="stroke:#000000;stroke-width:0.8;" x="408.544638" xlink:href="#m0f51a043e1" y="214.449281"/>
      </g>
     </g>
     <g id="text_10">
      <!-- 1 MiB -->
      <defs>
       <path d="M 9.8125 72.90625 
L 24.515625 72.90625 
L 43.109375 23.296875 
L 61.8125 72.90625 
L 76.515625 72.90625 
L 76.515625 0 
L 66.890625 0 
L 66.890625 64.015625 
L 48.09375 14.015625 
L 38.1875 14.015625 
L 19.390625 64.015625 
L 19.390625 0 
L 9.8125 0 
z
" id="DejaVuSans-4d"/>
      </defs>
      <g transform="translate(406.016222 221.449281)rotate(-270)scale(0.09163 -0.09163)">
       <use xlink:href="#DejaVuSans-31"/>
       <use x="63.623047" xlink:href="#DejaVuSans-20"/>
       <use x="95.410156" xlink:href="#DejaVuSans-4d"/>
       <use x="181.689453" xlink:href="#DejaVuSans-69"/>
       <use x="209.472656" xlink:href="#DejaVuSans-42"/>
      </g>
     </g>
    </g>
    <g id="xtick_11">
     <g id="line2d_11">
      <g>
       <use style="stroke:#000000;stroke-width:0.8;" x="446.590092" xlink:href="#m0f51a043e1" y="214.449281"/>
      </g>
     </g>
     <g id="text_11">
      <!-- 4 MiB -->
      <g transform="translate(444.061677 221.449281)rotate(-270)scale(0.09163 -0.09163)">
       <use xlink:href="#DejaVuSans-34"/>
       <use x="63.623047" xlink:href="#DejaVuSans-20"/>
       <use x="95.410156" xlink:href="#DejaVuSans-4d"/>
       <use x="181.689453" xlink:href="#DejaVuSans-69"/>
       <use x="209.472656" xlink:href="#DejaVuSans-42"/>
      </g>
     </g>
    </g>
    <g id="xtick_12">
     <g id="line2d_12">
      <g>
       <use style="stroke:#000000;stroke-width:0.8;" x="484.635547" xlink:href="#m0f51a043e1" y="214.449281"/>
      </g>
     </g>
     <g id="text_12">
      <!-- 16 MiB -->
      <g transform="translate(482.107131 221.449281)rotate(-270)scale(0.09163 -0.09163)">
       <use xlink:href="#DejaVuSans-31"/>
       <use x="63.623047" xlink:href="#DejaVuSans-36"/>
       <use x="127.246094" xlink:href="#DejaVuSans-20"/>
       <use x="159.033203" xlink:href="#DejaVuSans-4d"/>
       <use x="245.3125" xlink:href="#DejaVuSans-69"/>
       <use x="273.095703" xlink:href="#DejaVuSans-42"/>
      </g>
     </g>
    </g>
    <g id="xtick_13">
     <g id="line2d_13">
      <g>
       <use style="stroke:#000000;stroke-width:0.8;" x="522.681001" xlink:href="#m0f51a043e1" y="214.449281"/>
      </g>
     </g>
     <g id="text_13">
      <!-- 64 MiB -->
      <g transform="translate(520.152586 221.449281)rotate(-270)scale(0.09163 -0.09163)">
       <use xlink:href="#DejaVuSans-36"/>
       <use x="63.623047" xlink:href="#DejaVuSans-34"/>
       <use x="127.246094" xlink:href="#DejaVuSans-20"/>
       <use x="159.033203" xlink:href="#DejaVuSans-4d"/>
       <use x="245.3125" xlink:href="#DejaVuSans-69"/>
       <use x="273.095703" xlink:href="#DejaVuSans-42"/>
      </g>
     </g>
    </g>
   </g>
   <g id="matplotlib.axis_2">
    <g id="ytick_1">
     <g id="line2d_14">
      <defs>
       <path d="M 0 0 
L -3.5 0 
" id="m131365b5e0" style="stroke:#000000;stroke-width:0.8;"/>
      </defs>
      <g>
       <use style="stroke:#000000;stroke-width:0.8;" x="43.308274" xlink:href="#m131365b5e0" y="197.22715"/>
      </g>
     </g>
     <g id="text_14">
      <!-- 0 % -->
      <defs>
       <path d="M 31.78125 66.40625 
Q 24.171875 66.40625 20.328125 58.90625 
Q 16.5 51.421875 16.5 36.375 
Q 16.5 21.390625 20.328125 13.890625 
Q 24.171875 6.390625 31.78125 6.390625 
Q 39.453125 6.390625 43.28125 13.890625 
Q 47.125 21.390625 47.125 36.375 
Q 47.125 51.421875 43.28125 58.90625 
Q 39.453125 66.40625 31.78125 66.40625 
z
M 31.78125 74.21875 
Q 44.046875 74.21875 50.515625 64.515625 
Q 56.984375 54.828125 56.984375 36.375 
Q 56.984375 17.96875 50.515625 8.265625 
Q 44.046875 -1.421875 31.78125 -1.421875 
Q 19.53125 -1.421875 13.0625 8.265625 
Q 6.59375 17.96875 6.59375 36.375 
Q 6.59375 54.828125 13.0625 64.515625 
Q 19.53125 74.21875 31.78125 74.21875 
z
" id="DejaVuSans-30"/>
       <path d="M 72.703125 32.078125 
Q 68.453125 32.078125 66.03125 28.46875 
Q 63.625 24.859375 63.625 18.40625 
Q 63.625 12.0625 66.03125 8.421875 
Q 68.453125 4.78125 72.703125 4.78125 
Q 76.859375 4.78125 79.265625 8.421875 
Q 81.6875 12.0625 81.6875 18.40625 
Q 81.6875 24.8125 79.265625 28.4375 
Q 76.859375 32.078125 72.703125 32.078125 
z
M 72.703125 38.28125 
Q 80.421875 38.28125 84.953125 32.90625 
Q 89.5 27.546875 89.5 18.40625 
Q 89.5 9.28125 84.9375 3.921875 
Q 80.375 -1.421875 72.703125 -1.421875 
Q 64.890625 -1.421875 60.34375 3.921875 
Q 55.8125 9.28125 55.8125 18.40625 
Q 55.8125 27.59375 60.375 32.9375 
Q 64.9375 38.28125 72.703125 38.28125 
z
M 22.3125 68.015625 
Q 18.109375 68.015625 15.6875 64.375 
Q 13.28125 60.75 13.28125 54.390625 
Q 13.28125 47.953125 15.671875 44.328125 
Q 18.0625 40.71875 22.3125 40.71875 
Q 26.5625 40.71875 28.96875 44.328125 
Q 31.390625 47.953125 31.390625 54.390625 
Q 31.390625 60.6875 28.953125 64.34375 
Q 26.515625 68.015625 22.3125 68.015625 
z
M 66.40625 74.21875 
L 74.21875 74.21875 
L 28.609375 -1.421875 
L 20.796875 -1.421875 
z
M 22.3125 74.21875 
Q 30.03125 74.21875 34.609375 68.875 
Q 39.203125 63.53125 39.203125 54.390625 
Q 39.203125 45.171875 34.640625 39.84375 
Q 30.078125 34.515625 22.3125 34.515625 
Q 14.546875 34.515625 10.03125 39.859375 
Q 5.515625 45.21875 5.515625 54.390625 
Q 5.515625 63.484375 10.046875 68.84375 
Q 14.59375 74.21875 22.3125 74.21875 
z
" id="DejaVuSans-25"/>
      </defs>
      <g transform="translate(18.859918 200.708375)scale(0.09163 -0.09163)">
       <use xlink:href="#DejaVuSans-30"/>
       <use x="63.623047" xlink:href="#DejaVuSans-20"/>
       <use x="95.410156" xlink:href="#DejaVuSans-25"/>
      </g>
     </g>
    </g>
    <g id="ytick_2">
     <g id="line2d_15">
      <g>
       <use style="stroke:#000000;stroke-width:0.8;" x="43.308274" xlink:href="#m131365b5e0" y="166.906096"/>
      </g>
     </g>
     <g id="text_15">
      <!-- 50 % -->
      <g transform="translate(13.029959 170.38732)scale(0.09163 -0.09163)">
       <use xlink:href="#DejaVuSans-35"/>
       <use x="63.623047" xlink:href="#DejaVuSans-30"/>
       <use x="127.246094" xlink:href="#DejaVuSans-20"/>
       <use x="159.033203" xlink:href="#DejaVuSans-25"/>
      </g>
     </g>
    </g>
    <g id="ytick_3">
     <g id="line2d_16">
      <g>
       <use style="stroke:#000000;stroke-width:0.8;" x="43.308274" xlink:href="#m131365b5e0" y="136.585041"/>
      </g>
     </g>
     <g id="text_16">
      <!-- 100 % -->
      <g transform="translate(7.2 140.066266)scale(0.09163 -0.09163)">
       <use xlink:href="#DejaVuSans-31"/>
       <use x="63.623047" xlink:href="#DejaVuSans-30"/>
       <use x="127.246094" xlink:href="#DejaVuSans-30"/>
       <use x="190.869141" xlink:href="#DejaVuSans-20"/>
       <use x="222.65625" xlink:href="#DejaVuSans-25"/>
      </g>
     </g>
    </g>
    <g id="ytick_4">
     <g id="line2d_17">
      <g>
       <use style="stroke:#000000;stroke-width:0.8;" x="43.308274" xlink:href="#m131365b5e0" y="106.263987"/>
      </g>
     </g>
     <g id="text_17">
      <!-- 150 % -->
      <g transform="translate(7.2 109.745211)scale(0.09163 -0.09163)">
       <use xlink:href="#DejaVuSans-31"/>
       <use x="63.623047" xlink:href="#DejaVuSans-35"/>
       <use x="127.246094" xlink:href="#DejaVuSans-30"/>
       <use x="190.869141" xlink:href="#DejaVuSans-20"/>
       <use x="222.65625" xlink:href="#DejaVuSans-25"/>
      </g>
     </g>
    </g>
    <g id="ytick_5">
     <g id="line2d_18">
      <g>
       <use style="stroke:#000000;stroke-width:0.8;" x="43.308274" xlink:href="#m131365b5e0" y="75.942932"/>
      </g>
     </g>
     <g id="text_18">
      <!-- 200 % -->
      <g transform="translate(7.2 79.424157)scale(0.09163 -0.09163)">
       <use xlink:href="#DejaVuSans-32"/>
       <use x="63.623047" xlink:href="#DejaVuSans-30"/>
       <use x="127.246094" xlink:href="#DejaVuSans-30"/>
       <use x="190.869141" xlink:href="#DejaVuSans-20"/>
       <use x="222.65625" xlink:href="#DejaVuSans-25"/>
      </g>
     </g>
    </g>
    <g id="ytick_6">
     <g id="line2d_19">
      <g>
       <use style="stroke:#000000;stroke-width:0.8;" x="43.308274" xlink:href="#m131365b5e0" y="45.621878"/>
      </g>
     </g>
     <g id="text_19">
      <!-- 250 % -->
      <g transform="translate(7.2 49.103102)scale(0.09163 -0.09163)">
       <use xlink:href="#DejaVuSans-32"/>
       <use x="63.623047" xlink:href="#DejaVuSans-35"/>
       <use x="127.246094" xlink:href="#DejaVuSans-30"/>
       <use x="190.869141" xlink:href="#DejaVuSans-20"/>
       <use x="222.65625" xlink:href="#DejaVuSans-25"/>
      </g>
     </g>
    </g>
   </g>
   <g id="line2d_20">
    <defs>
     <path d="M 0 1.5 
C 0.397805 1.5 0.77937 1.341951 1.06066 1.06066 
C 1.341951 0.77937 1.5 0.397805 1.5 0 
C 1.5 -0.397805 1.341951 -0.77937 1.06066 -1.06066 
C 0.77937 -1.341951 0.397805 -1.5 0 -1.5 
C -0.397805 -1.5 -0.77937 -1.341951 -1.06066 -1.06066 
C -1.341951 -0.77937 -1.5 -0.397805 -1.5 0 
C -1.5 0.397805 -1.341951 0.77937 -1.06066 1.06066 
C -0.77937 1.341951 -0.397805 1.5 0 1.5 
z
" id="m80d62d8fb8" style="stroke:#4c72b0;"/>
    </defs>
    <g clip-path="url(#pcca8a0e1a2)">
     <use style="fill:#4c72b0;opacity:0.75;stroke:#4c72b0;" x="66.135547" xlink:href="#m80d62d8fb8" y="194.475855"/>
     <use style="fill:#4c72b0;opacity:0.75;stroke:#4c72b0;" x="66.135547" xlink:href="#m80d62d8fb8" y="194.223926"/>
     <use style="fill:#4c72b0;opacity:0.75;stroke:#4c72b0;" x="66.135547" xlink:href="#m80d62d8fb8" y="194.88846"/>
     <use style="fill:#4c72b0;opacity:0.75;stroke:#4c72b0;" x="66.135547" xlink:href="#m80d62d8fb8" y="194.182266"/>
     <use style="fill:#4c72b0;opacity:0.75;stroke:#4c72b0;" x="66.135547" xlink:href="#m80d62d8fb8" y="195.238086"/>
     <use style="fill:#4c72b0;opacity:0.75;stroke:#4c72b0;" x="104.181001" xlink:href="#m80d62d8fb8" y="186.272093"/>
     <use style="fill:#4c72b0;opacity:0.75;stroke:#4c72b0;" x="104.181001" xlink:href="#m80d62d8fb8" y="185.290424"/>
     <use style="fill:#4c72b0;opacity:0.75;stroke:#4c72b0;" x="104.181001" xlink:href="#m80d62d8fb8" y="186.250757"/>
     <use style="fill:#4c72b0;opacity:0.75;stroke:#4c72b0;" x="104.181001" xlink:href="#m80d62d8fb8" y="185.273527"/>
     <use style="fill:#4c72b0;opacity:0.75;stroke:#4c72b0;" x="104.181001" xlink:href="#m80d62d8fb8" y="185.694554"/>
     <use style="fill:#4c72b0;opacity:0.75;stroke:#4c72b0;" x="142.226456" xlink:href="#m80d62d8fb8" y="168.695357"/>
     <use style="fill:#4c72b0;opacity:0.75;stroke:#4c72b0;" x="142.226456" xlink:href="#m80d62d8fb8" y="168.704319"/>
     <use style="fill:#4c72b0;opacity:0.75;stroke:#4c72b0;" x="142.226456" xlink:href="#m80d62d8fb8" y="169.828767"/>
     <use style="fill:#4c72b0;opacity:0.75;stroke:#4c72b0;" x="142.226456" xlink:href="#m80d62d8fb8" y="167.195445"/>
     <use style="fill:#4c72b0;opacity:0.75;stroke:#4c72b0;" x="142.226456" xlink:href="#m80d62d8fb8" y="169.192975"/>
     <use style="fill:#4c72b0;opacity:0.75;stroke:#4c72b0;" x="180.27191" xlink:href="#m80d62d8fb8" y="157.248924"/>
     <use style="fill:#4c72b0;opacity:0.75;stroke:#4c72b0;" x="180.27191" xlink:href="#m80d62d8fb8" y="154.557965"/>
     <use style="fill:#4c72b0;opacity:0.75;stroke:#4c72b0;" x="180.27191" xlink:href="#m80d62d8fb8" y="152.933118"/>
     <use style="fill:#4c72b0;opacity:0.75;stroke:#4c72b0;" x="180.27191" xlink:href="#m80d62d8fb8" y="150.522726"/>
     <use style="fill:#4c72b0;opacity:0.75;stroke:#4c72b0;" x="180.27191" xlink:href="#m80d62d8fb8" y="159.720269"/>
     <use style="fill:#4c72b0;opacity:0.75;stroke:#4c72b0;" x="218.317365" xlink:href="#m80d62d8fb8" y="146.734788"/>
     <use style="fill:#4c72b0;opacity:0.75;stroke:#4c72b0;" x="218.317365" xlink:href="#m80d62d8fb8" y="145.115331"/>
     <use style="fill:#4c72b0;opacity:0.75;stroke:#4c72b0;" x="218.317365" xlink:href="#m80d62d8fb8" y="143.399489"/>
     <use style="fill:#4c72b0;opacity:0.75;stroke:#4c72b0;" x="218.317365" xlink:href="#m80d62d8fb8" y="150.367661"/>
     <use style="fill:#4c72b0;opacity:0.75;stroke:#4c72b0;" x="218.317365" xlink:href="#m80d62d8fb8" y="154.364892"/>
     <use style="fill:#4c72b0;opacity:0.75;stroke:#4c72b0;" x="256.362819" xlink:href="#m80d62d8fb8" y="151.513982"/>
     <use style="fill:#4c72b0;opacity:0.75;stroke:#4c72b0;" x="256.362819" xlink:href="#m80d62d8fb8" y="137.929257"/>
     <use style="fill:#4c72b0;opacity:0.75;stroke:#4c72b0;" x="256.362819" xlink:href="#m80d62d8fb8" y="140.408625"/>
     <use style="fill:#4c72b0;opacity:0.75;stroke:#4c72b0;" x="256.362819" xlink:href="#m80d62d8fb8" y="142.114838"/>
     <use style="fill:#4c72b0;opacity:0.75;stroke:#4c72b0;" x="256.362819" xlink:href="#m80d62d8fb8" y="145.599638"/>
     <use style="fill:#4c72b0;opacity:0.75;stroke:#4c72b0;" x="294.408274" xlink:href="#m80d62d8fb8" y="104.37324"/>
     <use style="fill:#4c72b0;opacity:0.75;stroke:#4c72b0;" x="294.408274" xlink:href="#m80d62d8fb8" y="97.295826"/>
     <use style="fill:#4c72b0;opacity:0.75;stroke:#4c72b0;" x="294.408274" xlink:href="#m80d62d8fb8" y="110.895927"/>
     <use style="fill:#4c72b0;opacity:0.75;stroke:#4c72b0;" x="294.408274" xlink:href="#m80d62d8fb8" y="102.761831"/>
     <use style="fill:#4c72b0;opacity:0.75;stroke:#4c72b0;" x="294.408274" xlink:href="#m80d62d8fb8" y="100.243377"/>
     <use style="fill:#4c72b0;opacity:0.75;stroke:#4c72b0;" x="332.453728" xlink:href="#m80d62d8fb8" y="107.43377"/>
     <use style="fill:#4c72b0;opacity:0.75;stroke:#4c72b0;" x="332.453728" xlink:href="#m80d62d8fb8" y="110.474839"/>
     <use style="fill:#4c72b0;opacity:0.75;stroke:#4c72b0;" x="332.453728" xlink:href="#m80d62d8fb8" y="108.063069"/>
     <use style="fill:#4c72b0;opacity:0.75;stroke:#4c72b0;" x="332.453728" xlink:href="#m80d62d8fb8" y="108.259497"/>
     <use style="fill:#4c72b0;opacity:0.75;stroke:#4c72b0;" x="332.453728" xlink:href="#m80d62d8fb8" y="111.308959"/>
     <use style="fill:#4c72b0;opacity:0.75;stroke:#4c72b0;" x="370.499183" xlink:href="#m80d62d8fb8" y="119.454843"/>
     <use style="fill:#4c72b0;opacity:0.75;stroke:#4c72b0;" x="370.499183" xlink:href="#m80d62d8fb8" y="112.270453"/>
     <use style="fill:#4c72b0;opacity:0.75;stroke:#4c72b0;" x="370.499183" xlink:href="#m80d62d8fb8" y="124.10393"/>
     <use style="fill:#4c72b0;opacity:0.75;stroke:#4c72b0;" x="370.499183" xlink:href="#m80d62d8fb8" y="120.678786"/>
     <use style="fill:#4c72b0;opacity:0.75;stroke:#4c72b0;" x="370.499183" xlink:href="#m80d62d8fb8" y="116.465613"/>
     <use style="fill:#4c72b0;opacity:0.75;stroke:#4c72b0;" x="408.544638" xlink:href="#m80d62d8fb8" y="116.942498"/>
     <use style="fill:#4c72b0;opacity:0.75;stroke:#4c72b0;" x="408.544638" xlink:href="#m80d62d8fb8" y="120.292742"/>
     <use style="fill:#4c72b0;opacity:0.75;stroke:#4c72b0;" x="408.544638" xlink:href="#m80d62d8fb8" y="119.789967"/>
     <use style="fill:#4c72b0;opacity:0.75;stroke:#4c72b0;" x="408.544638" xlink:href="#m80d62d8fb8" y="122.456487"/>
     <use style="fill:#4c72b0;opacity:0.75;stroke:#4c72b0;" x="408.544638" xlink:href="#m80d62d8fb8" y="122.662234"/>
     <use style="fill:#4c72b0;opacity:0.75;stroke:#4c72b0;" x="446.590092" xlink:href="#m80d62d8fb8" y="119.433348"/>
     <use style="fill:#4c72b0;opacity:0.75;stroke:#4c72b0;" x="446.590092" xlink:href="#m80d62d8fb8" y="123.104252"/>
     <use style="fill:#4c72b0;opacity:0.75;stroke:#4c72b0;" x="446.590092" xlink:href="#m80d62d8fb8" y="124.250083"/>
     <use style="fill:#4c72b0;opacity:0.75;stroke:#4c72b0;" x="446.590092" xlink:href="#m80d62d8fb8" y="116.126791"/>
     <use style="fill:#4c72b0;opacity:0.75;stroke:#4c72b0;" x="446.590092" xlink:href="#m80d62d8fb8" y="119.426153"/>
     <use style="fill:#4c72b0;opacity:0.75;stroke:#4c72b0;" x="484.635547" xlink:href="#m80d62d8fb8" y="112.018215"/>
     <use style="fill:#4c72b0;opacity:0.75;stroke:#4c72b0;" x="484.635547" xlink:href="#m80d62d8fb8" y="112.384197"/>
     <use style="fill:#4c72b0;opacity:0.75;stroke:#4c72b0;" x="484.635547" xlink:href="#m80d62d8fb8" y="108.97992"/>
     <use style="fill:#4c72b0;opacity:0.75;stroke:#4c72b0;" x="484.635547" xlink:href="#m80d62d8fb8" y="113.385861"/>
     <use style="fill:#4c72b0;opacity:0.75;stroke:#4c72b0;" x="484.635547" xlink:href="#m80d62d8fb8" y="113.131933"/>
     <use style="fill:#4c72b0;opacity:0.75;stroke:#4c72b0;" x="522.681001" xlink:href="#m80d62d8fb8" y="108.255006"/>
     <use style="fill:#4c72b0;opacity:0.75;stroke:#4c72b0;" x="522.681001" xlink:href="#m80d62d8fb8" y="105.874707"/>
     <use style="fill:#4c72b0;opacity:0.75;stroke:#4c72b0;" x="522.681001" xlink:href="#m80d62d8fb8" y="113.198998"/>
     <use style="fill:#4c72b0;opacity:0.75;stroke:#4c72b0;" x="522.681001" xlink:href="#m80d62d8fb8" y="111.043618"/>
     <use style="fill:#4c72b0;opacity:0.75;stroke:#4c72b0;" x="522.681001" xlink:href="#m80d62d8fb8" y="110.503364"/>
    </g>
   </g>
   <g id="line2d_21">
    <path clip-path="url(#pcca8a0e1a2)" d="M 66.135547 194.601718 
L 104.181001 185.756271 
L 142.226456 168.723373 
L 180.27191 154.9966 
L 218.317365 147.996432 
L 256.362819 143.513268 
L 294.408274 103.11404 
L 332.453728 109.108027 
L 370.499183 118.594725 
L 408.544638 120.428786 
L 446.590092 120.468125 
L 484.635547 111.980025 
L 522.681001 109.775139 
" style="fill:none;opacity:0.75;stroke:#4c72b0;stroke-linecap:square;stroke-width:1.5;"/>
   </g>
   <g id="line2d_22">
    <defs>
     <path d="M 0 1.5 
C 0.397805 1.5 0.77937 1.341951 1.06066 1.06066 
C 1.341951 0.77937 1.5 0.397805 1.5 0 
C 1.5 -0.397805 1.341951 -0.77937 1.06066 -1.06066 
C 0.77937 -1.341951 0.397805 -1.5 0 -1.5 
C -0.397805 -1.5 -0.77937 -1.341951 -1.06066 -1.06066 
C -1.341951 -0.77937 -1.5 -0.397805 -1.5 0 
C -1.5 0.397805 -1.341951 0.77937 -1.06066 1.06066 
C -0.77937 1.341951 -0.397805 1.5 0 1.5 
z
" id="m50989f56f6" style="stroke:#dd8452;"/>
    </defs>
    <g clip-path="url(#pcca8a0e1a2)">
     <use style="fill:#dd8452;opacity:0.75;stroke:#dd8452;" x="66.135547" xlink:href="#m50989f56f6" y="195.76166"/>
     <use style="fill:#dd8452;opacity:0.75;stroke:#dd8452;" x="66.135547" xlink:href="#m50989f56f6" y="195.696435"/>
     <use style="fill:#dd8452;opacity:0.75;stroke:#dd8452;" x="66.135547" xlink:href="#m50989f56f6" y="195.628565"/>
     <use style="fill:#dd8452;opacity:0.75;stroke:#dd8452;" x="66.135547" xlink:href="#m50989f56f6" y="195.814506"/>
     <use style="fill:#dd8452;opacity:0.75;stroke:#dd8452;" x="66.135547" xlink:href="#m50989f56f6" y="195.903673"/>
     <use style="fill:#dd8452;opacity:0.75;stroke:#dd8452;" x="104.181001" xlink:href="#m50989f56f6" y="196.46177"/>
     <use style="fill:#dd8452;opacity:0.75;stroke:#dd8452;" x="104.181001" xlink:href="#m50989f56f6" y="195.270441"/>
     <use style="fill:#dd8452;opacity:0.75;stroke:#dd8452;" x="104.181001" xlink:href="#m50989f56f6" y="196.165599"/>
     <use style="fill:#dd8452;opacity:0.75;stroke:#dd8452;" x="104.181001" xlink:href="#m50989f56f6" y="195.150925"/>
     <use style="fill:#dd8452;opacity:0.75;stroke:#dd8452;" x="104.181001" xlink:href="#m50989f56f6" y="196.507535"/>
     <use style="fill:#dd8452;opacity:0.75;stroke:#dd8452;" x="142.226456" xlink:href="#m50989f56f6" y="196.662815"/>
     <use style="fill:#dd8452;opacity:0.75;stroke:#dd8452;" x="142.226456" xlink:href="#m50989f56f6" y="197.825448"/>
     <use style="fill:#dd8452;opacity:0.75;stroke:#dd8452;" x="142.226456" xlink:href="#m50989f56f6" y="197.121183"/>
     <use style="fill:#dd8452;opacity:0.75;stroke:#dd8452;" x="142.226456" xlink:href="#m50989f56f6" y="199.045315"/>
     <use style="fill:#dd8452;opacity:0.75;stroke:#dd8452;" x="142.226456" xlink:href="#m50989f56f6" y="198.217758"/>
     <use style="fill:#dd8452;opacity:0.75;stroke:#dd8452;" x="180.27191" xlink:href="#m50989f56f6" y="196.74582"/>
     <use style="fill:#dd8452;opacity:0.75;stroke:#dd8452;" x="180.27191" xlink:href="#m50989f56f6" y="197.122843"/>
     <use style="fill:#dd8452;opacity:0.75;stroke:#dd8452;" x="180.27191" xlink:href="#m50989f56f6" y="197.847378"/>
     <use style="fill:#dd8452;opacity:0.75;stroke:#dd8452;" x="180.27191" xlink:href="#m50989f56f6" y="198.450448"/>
     <use style="fill:#dd8452;opacity:0.75;stroke:#dd8452;" x="180.27191" xlink:href="#m50989f56f6" y="197.305829"/>
     <use style="fill:#dd8452;opacity:0.75;stroke:#dd8452;" x="218.317365" xlink:href="#m50989f56f6" y="198.016406"/>
     <use style="fill:#dd8452;opacity:0.75;stroke:#dd8452;" x="218.317365" xlink:href="#m50989f56f6" y="198.256133"/>
     <use style="fill:#dd8452;opacity:0.75;stroke:#dd8452;" x="218.317365" xlink:href="#m50989f56f6" y="197.693991"/>
     <use style="fill:#dd8452;opacity:0.75;stroke:#dd8452;" x="218.317365" xlink:href="#m50989f56f6" y="196.711406"/>
     <use style="fill:#dd8452;opacity:0.75;stroke:#dd8452;" x="218.317365" xlink:href="#m50989f56f6" y="197.223722"/>
     <use style="fill:#dd8452;opacity:0.75;stroke:#dd8452;" x="256.362819" xlink:href="#m50989f56f6" y="198.343839"/>
     <use style="fill:#dd8452;opacity:0.75;stroke:#dd8452;" x="256.362819" xlink:href="#m50989f56f6" y="198.552194"/>
     <use style="fill:#dd8452;opacity:0.75;stroke:#dd8452;" x="256.362819" xlink:href="#m50989f56f6" y="196.552814"/>
     <use style="fill:#dd8452;opacity:0.75;stroke:#dd8452;" x="256.362819" xlink:href="#m50989f56f6" y="196.531925"/>
     <use style="fill:#dd8452;opacity:0.75;stroke:#dd8452;" x="256.362819" xlink:href="#m50989f56f6" y="198.734048"/>
     <use style="fill:#dd8452;opacity:0.75;stroke:#dd8452;" x="294.408274" xlink:href="#m50989f56f6" y="200.637722"/>
     <use style="fill:#dd8452;opacity:0.75;stroke:#dd8452;" x="294.408274" xlink:href="#m50989f56f6" y="200.623844"/>
     <use style="fill:#dd8452;opacity:0.75;stroke:#dd8452;" x="294.408274" xlink:href="#m50989f56f6" y="200.148955"/>
     <use style="fill:#dd8452;opacity:0.75;stroke:#dd8452;" x="294.408274" xlink:href="#m50989f56f6" y="200.546579"/>
     <use style="fill:#dd8452;opacity:0.75;stroke:#dd8452;" x="294.408274" xlink:href="#m50989f56f6" y="201.289756"/>
     <use style="fill:#dd8452;opacity:0.75;stroke:#dd8452;" x="332.453728" xlink:href="#m50989f56f6" y="201.550522"/>
     <use style="fill:#dd8452;opacity:0.75;stroke:#dd8452;" x="332.453728" xlink:href="#m50989f56f6" y="202.290115"/>
     <use style="fill:#dd8452;opacity:0.75;stroke:#dd8452;" x="332.453728" xlink:href="#m50989f56f6" y="202.097091"/>
     <use style="fill:#dd8452;opacity:0.75;stroke:#dd8452;" x="332.453728" xlink:href="#m50989f56f6" y="202.361496"/>
     <use style="fill:#dd8452;opacity:0.75;stroke:#dd8452;" x="332.453728" xlink:href="#m50989f56f6" y="202.041001"/>
     <use style="fill:#dd8452;opacity:0.75;stroke:#dd8452;" x="370.499183" xlink:href="#m50989f56f6" y="202.54862"/>
     <use style="fill:#dd8452;opacity:0.75;stroke:#dd8452;" x="370.499183" xlink:href="#m50989f56f6" y="201.065366"/>
     <use style="fill:#dd8452;opacity:0.75;stroke:#dd8452;" x="370.499183" xlink:href="#m50989f56f6" y="201.738097"/>
     <use style="fill:#dd8452;opacity:0.75;stroke:#dd8452;" x="370.499183" xlink:href="#m50989f56f6" y="202.072398"/>
     <use style="fill:#dd8452;opacity:0.75;stroke:#dd8452;" x="370.499183" xlink:href="#m50989f56f6" y="202.206013"/>
     <use style="fill:#dd8452;opacity:0.75;stroke:#dd8452;" x="408.544638" xlink:href="#m50989f56f6" y="201.755327"/>
     <use style="fill:#dd8452;opacity:0.75;stroke:#dd8452;" x="408.544638" xlink:href="#m50989f56f6" y="200.85705"/>
     <use style="fill:#dd8452;opacity:0.75;stroke:#dd8452;" x="408.544638" xlink:href="#m50989f56f6" y="201.695789"/>
     <use style="fill:#dd8452;opacity:0.75;stroke:#dd8452;" x="408.544638" xlink:href="#m50989f56f6" y="202.202173"/>
     <use style="fill:#dd8452;opacity:0.75;stroke:#dd8452;" x="408.544638" xlink:href="#m50989f56f6" y="202.797608"/>
     <use style="fill:#dd8452;opacity:0.75;stroke:#dd8452;" x="446.590092" xlink:href="#m50989f56f6" y="202.986346"/>
     <use style="fill:#dd8452;opacity:0.75;stroke:#dd8452;" x="446.590092" xlink:href="#m50989f56f6" y="201.601082"/>
     <use style="fill:#dd8452;opacity:0.75;stroke:#dd8452;" x="446.590092" xlink:href="#m50989f56f6" y="201.532617"/>
     <use style="fill:#dd8452;opacity:0.75;stroke:#dd8452;" x="446.590092" xlink:href="#m50989f56f6" y="201.759397"/>
     <use style="fill:#dd8452;opacity:0.75;stroke:#dd8452;" x="446.590092" xlink:href="#m50989f56f6" y="202.305391"/>
     <use style="fill:#dd8452;opacity:0.75;stroke:#dd8452;" x="484.635547" xlink:href="#m50989f56f6" y="201.479454"/>
     <use style="fill:#dd8452;opacity:0.75;stroke:#dd8452;" x="484.635547" xlink:href="#m50989f56f6" y="198.828428"/>
     <use style="fill:#dd8452;opacity:0.75;stroke:#dd8452;" x="484.635547" xlink:href="#m50989f56f6" y="199.584528"/>
     <use style="fill:#dd8452;opacity:0.75;stroke:#dd8452;" x="484.635547" xlink:href="#m50989f56f6" y="199.60467"/>
     <use style="fill:#dd8452;opacity:0.75;stroke:#dd8452;" x="484.635547" xlink:href="#m50989f56f6" y="199.796324"/>
     <use style="fill:#dd8452;opacity:0.75;stroke:#dd8452;" x="522.681001" xlink:href="#m50989f56f6" y="199.214686"/>
     <use style="fill:#dd8452;opacity:0.75;stroke:#dd8452;" x="522.681001" xlink:href="#m50989f56f6" y="200.630776"/>
     <use style="fill:#dd8452;opacity:0.75;stroke:#dd8452;" x="522.681001" xlink:href="#m50989f56f6" y="199.278686"/>
     <use style="fill:#dd8452;opacity:0.75;stroke:#dd8452;" x="522.681001" xlink:href="#m50989f56f6" y="200.544851"/>
     <use style="fill:#dd8452;opacity:0.75;stroke:#dd8452;" x="522.681001" xlink:href="#m50989f56f6" y="200.276206"/>
    </g>
   </g>
   <g id="line2d_23">
    <path clip-path="url(#pcca8a0e1a2)" d="M 66.135547 195.760968 
L 104.181001 195.911254 
L 142.226456 197.774504 
L 180.27191 197.494464 
L 218.317365 197.580332 
L 256.362819 197.742964 
L 294.408274 200.649371 
L 332.453728 202.068045 
L 370.499183 201.926099 
L 408.544638 201.861589 
L 446.590092 202.036967 
L 484.635547 199.858681 
L 522.681001 199.989041 
" style="fill:none;opacity:0.75;stroke:#dd8452;stroke-linecap:square;stroke-width:1.5;"/>
   </g>
   <g id="line2d_24">
    <defs>
     <path d="M 0 1.5 
C 0.397805 1.5 0.77937 1.341951 1.06066 1.06066 
C 1.341951 0.77937 1.5 0.397805 1.5 0 
C 1.5 -0.397805 1.341951 -0.77937 1.06066 -1.06066 
C 0.77937 -1.341951 0.397805 -1.5 0 -1.5 
C -0.397805 -1.5 -0.77937 -1.341951 -1.06066 -1.06066 
C -1.341951 -0.77937 -1.5 -0.397805 -1.5 0 
C -1.5 0.397805 -1.341951 0.77937 -1.06066 1.06066 
C -0.77937 1.341951 -0.397805 1.5 0 1.5 
z
" id="mb7c92d9214" style="stroke:#55a868;"/>
    </defs>
    <g clip-path="url(#pcca8a0e1a2)">
     <use style="fill:#55a868;opacity:0.75;stroke:#55a868;" x="66.135547" xlink:href="#mb7c92d9214" y="77.269359"/>
     <use style="fill:#55a868;opacity:0.75;stroke:#55a868;" x="66.135547" xlink:href="#mb7c92d9214" y="82.24298"/>
     <use style="fill:#55a868;opacity:0.75;stroke:#55a868;" x="66.135547" xlink:href="#mb7c92d9214" y="78.280184"/>
     <use style="fill:#55a868;opacity:0.75;stroke:#55a868;" x="66.135547" xlink:href="#mb7c92d9214" y="78.612111"/>
     <use style="fill:#55a868;opacity:0.75;stroke:#55a868;" x="66.135547" xlink:href="#mb7c92d9214" y="78.456367"/>
     <use style="fill:#55a868;opacity:0.75;stroke:#55a868;" x="104.181001" xlink:href="#mb7c92d9214" y="77.547451"/>
     <use style="fill:#55a868;opacity:0.75;stroke:#55a868;" x="104.181001" xlink:href="#mb7c92d9214" y="79.280676"/>
     <use style="fill:#55a868;opacity:0.75;stroke:#55a868;" x="104.181001" xlink:href="#mb7c92d9214" y="78.453158"/>
     <use style="fill:#55a868;opacity:0.75;stroke:#55a868;" x="104.181001" xlink:href="#mb7c92d9214" y="79.201937"/>
     <use style="fill:#55a868;opacity:0.75;stroke:#55a868;" x="104.181001" xlink:href="#mb7c92d9214" y="80.37609"/>
     <use style="fill:#55a868;opacity:0.75;stroke:#55a868;" x="142.226456" xlink:href="#mb7c92d9214" y="83.62897"/>
     <use style="fill:#55a868;opacity:0.75;stroke:#55a868;" x="142.226456" xlink:href="#mb7c92d9214" y="82.111902"/>
     <use style="fill:#55a868;opacity:0.75;stroke:#55a868;" x="142.226456" xlink:href="#mb7c92d9214" y="79.975245"/>
     <use style="fill:#55a868;opacity:0.75;stroke:#55a868;" x="142.226456" xlink:href="#mb7c92d9214" y="82.596632"/>
     <use style="fill:#55a868;opacity:0.75;stroke:#55a868;" x="142.226456" xlink:href="#mb7c92d9214" y="80.493173"/>
     <use style="fill:#55a868;opacity:0.75;stroke:#55a868;" x="180.27191" xlink:href="#mb7c92d9214" y="82.43538"/>
     <use style="fill:#55a868;opacity:0.75;stroke:#55a868;" x="180.27191" xlink:href="#mb7c92d9214" y="87.669684"/>
     <use style="fill:#55a868;opacity:0.75;stroke:#55a868;" x="180.27191" xlink:href="#mb7c92d9214" y="84.427444"/>
     <use style="fill:#55a868;opacity:0.75;stroke:#55a868;" x="180.27191" xlink:href="#mb7c92d9214" y="81.762157"/>
     <use style="fill:#55a868;opacity:0.75;stroke:#55a868;" x="180.27191" xlink:href="#mb7c92d9214" y="83.682433"/>
     <use style="fill:#55a868;opacity:0.75;stroke:#55a868;" x="218.317365" xlink:href="#mb7c92d9214" y="98.23093"/>
     <use style="fill:#55a868;opacity:0.75;stroke:#55a868;" x="218.317365" xlink:href="#mb7c92d9214" y="96.871498"/>
     <use style="fill:#55a868;opacity:0.75;stroke:#55a868;" x="218.317365" xlink:href="#mb7c92d9214" y="103.844719"/>
     <use style="fill:#55a868;opacity:0.75;stroke:#55a868;" x="218.317365" xlink:href="#mb7c92d9214" y="93.616688"/>
     <use style="fill:#55a868;opacity:0.75;stroke:#55a868;" x="218.317365" xlink:href="#mb7c92d9214" y="95.024138"/>
     <use style="fill:#55a868;opacity:0.75;stroke:#55a868;" x="256.362819" xlink:href="#mb7c92d9214" y="122.275645"/>
     <use style="fill:#55a868;opacity:0.75;stroke:#55a868;" x="256.362819" xlink:href="#mb7c92d9214" y="116.051631"/>
     <use style="fill:#55a868;opacity:0.75;stroke:#55a868;" x="256.362819" xlink:href="#mb7c92d9214" y="124.646397"/>
     <use style="fill:#55a868;opacity:0.75;stroke:#55a868;" x="256.362819" xlink:href="#mb7c92d9214" y="121.481858"/>
     <use style="fill:#55a868;opacity:0.75;stroke:#55a868;" x="256.362819" xlink:href="#mb7c92d9214" y="118.108072"/>
     <use style="fill:#55a868;opacity:0.75;stroke:#55a868;" x="294.408274" xlink:href="#mb7c92d9214" y="96.21397"/>
     <use style="fill:#55a868;opacity:0.75;stroke:#55a868;" x="294.408274" xlink:href="#mb7c92d9214" y="101.149898"/>
     <use style="fill:#55a868;opacity:0.75;stroke:#55a868;" x="294.408274" xlink:href="#mb7c92d9214" y="101.102411"/>
     <use style="fill:#55a868;opacity:0.75;stroke:#55a868;" x="294.408274" xlink:href="#mb7c92d9214" y="97.248814"/>
     <use style="fill:#55a868;opacity:0.75;stroke:#55a868;" x="294.408274" xlink:href="#mb7c92d9214" y="107.993605"/>
     <use style="fill:#55a868;opacity:0.75;stroke:#55a868;" x="332.453728" xlink:href="#mb7c92d9214" y="117.412118"/>
     <use style="fill:#55a868;opacity:0.75;stroke:#55a868;" x="332.453728" xlink:href="#mb7c92d9214" y="117.783253"/>
     <use style="fill:#55a868;opacity:0.75;stroke:#55a868;" x="332.453728" xlink:href="#mb7c92d9214" y="122.672999"/>
     <use style="fill:#55a868;opacity:0.75;stroke:#55a868;" x="332.453728" xlink:href="#mb7c92d9214" y="117.301892"/>
     <use style="fill:#55a868;opacity:0.75;stroke:#55a868;" x="332.453728" xlink:href="#mb7c92d9214" y="112.574681"/>
     <use style="fill:#55a868;opacity:0.75;stroke:#55a868;" x="370.499183" xlink:href="#mb7c92d9214" y="129.114897"/>
     <use style="fill:#55a868;opacity:0.75;stroke:#55a868;" x="370.499183" xlink:href="#mb7c92d9214" y="123.326925"/>
     <use style="fill:#55a868;opacity:0.75;stroke:#55a868;" x="370.499183" xlink:href="#mb7c92d9214" y="127.466138"/>
     <use style="fill:#55a868;opacity:0.75;stroke:#55a868;" x="370.499183" xlink:href="#mb7c92d9214" y="131.671297"/>
     <use style="fill:#55a868;opacity:0.75;stroke:#55a868;" x="370.499183" xlink:href="#mb7c92d9214" y="125.565567"/>
     <use style="fill:#55a868;opacity:0.75;stroke:#55a868;" x="408.544638" xlink:href="#mb7c92d9214" y="117.622911"/>
     <use style="fill:#55a868;opacity:0.75;stroke:#55a868;" x="408.544638" xlink:href="#mb7c92d9214" y="125.481736"/>
     <use style="fill:#55a868;opacity:0.75;stroke:#55a868;" x="408.544638" xlink:href="#mb7c92d9214" y="131.391374"/>
     <use style="fill:#55a868;opacity:0.75;stroke:#55a868;" x="408.544638" xlink:href="#mb7c92d9214" y="129.75469"/>
     <use style="fill:#55a868;opacity:0.75;stroke:#55a868;" x="408.544638" xlink:href="#mb7c92d9214" y="131.498847"/>
     <use style="fill:#55a868;opacity:0.75;stroke:#55a868;" x="446.590092" xlink:href="#mb7c92d9214" y="124.752195"/>
     <use style="fill:#55a868;opacity:0.75;stroke:#55a868;" x="446.590092" xlink:href="#mb7c92d9214" y="125.493386"/>
     <use style="fill:#55a868;opacity:0.75;stroke:#55a868;" x="446.590092" xlink:href="#mb7c92d9214" y="122.8328"/>
     <use style="fill:#55a868;opacity:0.75;stroke:#55a868;" x="446.590092" xlink:href="#mb7c92d9214" y="129.162912"/>
     <use style="fill:#55a868;opacity:0.75;stroke:#55a868;" x="446.590092" xlink:href="#mb7c92d9214" y="126.609114"/>
     <use style="fill:#55a868;opacity:0.75;stroke:#55a868;" x="484.635547" xlink:href="#mb7c92d9214" y="107.586765"/>
     <use style="fill:#55a868;opacity:0.75;stroke:#55a868;" x="484.635547" xlink:href="#mb7c92d9214" y="110.261426"/>
     <use style="fill:#55a868;opacity:0.75;stroke:#55a868;" x="484.635547" xlink:href="#mb7c92d9214" y="107.974427"/>
     <use style="fill:#55a868;opacity:0.75;stroke:#55a868;" x="484.635547" xlink:href="#mb7c92d9214" y="100.957808"/>
     <use style="fill:#55a868;opacity:0.75;stroke:#55a868;" x="484.635547" xlink:href="#mb7c92d9214" y="109.577954"/>
     <use style="fill:#55a868;opacity:0.75;stroke:#55a868;" x="522.681001" xlink:href="#mb7c92d9214" y="104.207327"/>
     <use style="fill:#55a868;opacity:0.75;stroke:#55a868;" x="522.681001" xlink:href="#mb7c92d9214" y="108.612104"/>
     <use style="fill:#55a868;opacity:0.75;stroke:#55a868;" x="522.681001" xlink:href="#mb7c92d9214" y="106.809075"/>
     <use style="fill:#55a868;opacity:0.75;stroke:#55a868;" x="522.681001" xlink:href="#mb7c92d9214" y="111.91253"/>
     <use style="fill:#55a868;opacity:0.75;stroke:#55a868;" x="522.681001" xlink:href="#mb7c92d9214" y="112.171985"/>
    </g>
   </g>
   <g id="line2d_25">
    <path clip-path="url(#pcca8a0e1a2)" d="M 66.135547 78.9722 
L 104.181001 78.971862 
L 142.226456 81.761184 
L 180.27191 83.99542 
L 218.317365 97.517594 
L 256.362819 120.512721 
L 294.408274 100.74174 
L 332.453728 117.548989 
L 370.499183 127.428965 
L 408.544638 127.149912 
L 446.590092 125.770081 
L 484.635547 107.271676 
L 522.681001 108.742604 
" style="fill:none;opacity:0.75;stroke:#55a868;stroke-linecap:square;stroke-width:1.5;"/>
   </g>
   <g id="line2d_26">
    <defs>
     <path d="M 0 1.5 
C 0.397805 1.5 0.77937 1.341951 1.06066 1.06066 
C 1.341951 0.77937 1.5 0.397805 1.5 0 
C 1.5 -0.397805 1.341951 -0.77937 1.06066 -1.06066 
C 0.77937 -1.341951 0.397805 -1.5 0 -1.5 
C -0.397805 -1.5 -0.77937 -1.341951 -1.06066 -1.06066 
C -1.341951 -0.77937 -1.5 -0.397805 -1.5 0 
C -1.5 0.397805 -1.341951 0.77937 -1.06066 1.06066 
C -0.77937 1.341951 -0.397805 1.5 0 1.5 
z
" id="mbc4c77ff20" style="stroke:#c44e52;"/>
    </defs>
    <g clip-path="url(#pcca8a0e1a2)">
     <use style="fill:#c44e52;opacity:0.75;stroke:#c44e52;" x="66.135547" xlink:href="#mbc4c77ff20" y="35.974946"/>
     <use style="fill:#c44e52;opacity:0.75;stroke:#c44e52;" x="66.135547" xlink:href="#mbc4c77ff20" y="36.521669"/>
     <use style="fill:#c44e52;opacity:0.75;stroke:#c44e52;" x="66.135547" xlink:href="#mbc4c77ff20" y="31.240329"/>
     <use style="fill:#c44e52;opacity:0.75;stroke:#c44e52;" x="66.135547" xlink:href="#mbc4c77ff20" y="38.006567"/>
     <use style="fill:#c44e52;opacity:0.75;stroke:#c44e52;" x="66.135547" xlink:href="#mbc4c77ff20" y="29.229281"/>
     <use style="fill:#c44e52;opacity:0.75;stroke:#c44e52;" x="104.181001" xlink:href="#mbc4c77ff20" y="35.970825"/>
     <use style="fill:#c44e52;opacity:0.75;stroke:#c44e52;" x="104.181001" xlink:href="#mbc4c77ff20" y="40.368932"/>
     <use style="fill:#c44e52;opacity:0.75;stroke:#c44e52;" x="104.181001" xlink:href="#mbc4c77ff20" y="39.049642"/>
     <use style="fill:#c44e52;opacity:0.75;stroke:#c44e52;" x="104.181001" xlink:href="#mbc4c77ff20" y="46.233257"/>
     <use style="fill:#c44e52;opacity:0.75;stroke:#c44e52;" x="104.181001" xlink:href="#mbc4c77ff20" y="39.753142"/>
     <use style="fill:#c44e52;opacity:0.75;stroke:#c44e52;" x="142.226456" xlink:href="#mbc4c77ff20" y="55.744884"/>
     <use style="fill:#c44e52;opacity:0.75;stroke:#c44e52;" x="142.226456" xlink:href="#mbc4c77ff20" y="68.972022"/>
     <use style="fill:#c44e52;opacity:0.75;stroke:#c44e52;" x="142.226456" xlink:href="#mbc4c77ff20" y="65.633352"/>
     <use style="fill:#c44e52;opacity:0.75;stroke:#c44e52;" x="142.226456" xlink:href="#mbc4c77ff20" y="66.475619"/>
     <use style="fill:#c44e52;opacity:0.75;stroke:#c44e52;" x="142.226456" xlink:href="#mbc4c77ff20" y="60.919975"/>
     <use style="fill:#c44e52;opacity:0.75;stroke:#c44e52;" x="180.27191" xlink:href="#mbc4c77ff20" y="112.716823"/>
     <use style="fill:#c44e52;opacity:0.75;stroke:#c44e52;" x="180.27191" xlink:href="#mbc4c77ff20" y="109.792868"/>
     <use style="fill:#c44e52;opacity:0.75;stroke:#c44e52;" x="180.27191" xlink:href="#mbc4c77ff20" y="115.20902"/>
     <use style="fill:#c44e52;opacity:0.75;stroke:#c44e52;" x="180.27191" xlink:href="#mbc4c77ff20" y="114.545501"/>
     <use style="fill:#c44e52;opacity:0.75;stroke:#c44e52;" x="180.27191" xlink:href="#mbc4c77ff20" y="109.75573"/>
     <use style="fill:#c44e52;opacity:0.75;stroke:#c44e52;" x="218.317365" xlink:href="#mbc4c77ff20" y="167.231408"/>
     <use style="fill:#c44e52;opacity:0.75;stroke:#c44e52;" x="218.317365" xlink:href="#mbc4c77ff20" y="167.787076"/>
     <use style="fill:#c44e52;opacity:0.75;stroke:#c44e52;" x="218.317365" xlink:href="#mbc4c77ff20" y="167.31179"/>
     <use style="fill:#c44e52;opacity:0.75;stroke:#c44e52;" x="218.317365" xlink:href="#mbc4c77ff20" y="168.461457"/>
     <use style="fill:#c44e52;opacity:0.75;stroke:#c44e52;" x="218.317365" xlink:href="#mbc4c77ff20" y="166.42999"/>
     <use style="fill:#c44e52;opacity:0.75;stroke:#c44e52;" x="256.362819" xlink:href="#mbc4c77ff20" y="192.699762"/>
     <use style="fill:#c44e52;opacity:0.75;stroke:#c44e52;" x="256.362819" xlink:href="#mbc4c77ff20" y="193.85186"/>
     <use style="fill:#c44e52;opacity:0.75;stroke:#c44e52;" x="256.362819" xlink:href="#mbc4c77ff20" y="193.762353"/>
     <use style="fill:#c44e52;opacity:0.75;stroke:#c44e52;" x="256.362819" xlink:href="#mbc4c77ff20" y="192.750742"/>
     <use style="fill:#c44e52;opacity:0.75;stroke:#c44e52;" x="256.362819" xlink:href="#mbc4c77ff20" y="190.78182"/>
     <use style="fill:#c44e52;opacity:0.75;stroke:#c44e52;" x="294.408274" xlink:href="#mbc4c77ff20" y="200.89053"/>
     <use style="fill:#c44e52;opacity:0.75;stroke:#c44e52;" x="294.408274" xlink:href="#mbc4c77ff20" y="199.27667"/>
     <use style="fill:#c44e52;opacity:0.75;stroke:#c44e52;" x="294.408274" xlink:href="#mbc4c77ff20" y="198.743561"/>
     <use style="fill:#c44e52;opacity:0.75;stroke:#c44e52;" x="294.408274" xlink:href="#mbc4c77ff20" y="200.555118"/>
     <use style="fill:#c44e52;opacity:0.75;stroke:#c44e52;" x="294.408274" xlink:href="#mbc4c77ff20" y="198.523096"/>
     <use style="fill:#c44e52;opacity:0.75;stroke:#c44e52;" x="332.453728" xlink:href="#mbc4c77ff20" y="201.772244"/>
     <use style="fill:#c44e52;opacity:0.75;stroke:#c44e52;" x="332.453728" xlink:href="#mbc4c77ff20" y="201.415236"/>
     <use style="fill:#c44e52;opacity:0.75;stroke:#c44e52;" x="332.453728" xlink:href="#mbc4c77ff20" y="202.683962"/>
     <use style="fill:#c44e52;opacity:0.75;stroke:#c44e52;" x="332.453728" xlink:href="#mbc4c77ff20" y="203.491407"/>
     <use style="fill:#c44e52;opacity:0.75;stroke:#c44e52;" x="332.453728" xlink:href="#mbc4c77ff20" y="201.477024"/>
     <use style="fill:#c44e52;opacity:0.75;stroke:#c44e52;" x="370.499183" xlink:href="#mbc4c77ff20" y="201.985071"/>
     <use style="fill:#c44e52;opacity:0.75;stroke:#c44e52;" x="370.499183" xlink:href="#mbc4c77ff20" y="204.051984"/>
     <use style="fill:#c44e52;opacity:0.75;stroke:#c44e52;" x="370.499183" xlink:href="#mbc4c77ff20" y="202.318305"/>
     <use style="fill:#c44e52;opacity:0.75;stroke:#c44e52;" x="370.499183" xlink:href="#mbc4c77ff20" y="202.798544"/>
     <use style="fill:#c44e52;opacity:0.75;stroke:#c44e52;" x="370.499183" xlink:href="#mbc4c77ff20" y="203.246686"/>
     <use style="fill:#c44e52;opacity:0.75;stroke:#c44e52;" x="408.544638" xlink:href="#mbc4c77ff20" y="203.630461"/>
     <use style="fill:#c44e52;opacity:0.75;stroke:#c44e52;" x="408.544638" xlink:href="#mbc4c77ff20" y="202.760967"/>
     <use style="fill:#c44e52;opacity:0.75;stroke:#c44e52;" x="408.544638" xlink:href="#mbc4c77ff20" y="205.629281"/>
     <use style="fill:#c44e52;opacity:0.75;stroke:#c44e52;" x="408.544638" xlink:href="#mbc4c77ff20" y="203.329315"/>
     <use style="fill:#c44e52;opacity:0.75;stroke:#c44e52;" x="408.544638" xlink:href="#mbc4c77ff20" y="202.479461"/>
     <use style="fill:#c44e52;opacity:0.75;stroke:#c44e52;" x="446.590092" xlink:href="#mbc4c77ff20" y="203.148725"/>
     <use style="fill:#c44e52;opacity:0.75;stroke:#c44e52;" x="446.590092" xlink:href="#mbc4c77ff20" y="202.467821"/>
     <use style="fill:#c44e52;opacity:0.75;stroke:#c44e52;" x="446.590092" xlink:href="#mbc4c77ff20" y="202.885092"/>
     <use style="fill:#c44e52;opacity:0.75;stroke:#c44e52;" x="446.590092" xlink:href="#mbc4c77ff20" y="202.511611"/>
     <use style="fill:#c44e52;opacity:0.75;stroke:#c44e52;" x="446.590092" xlink:href="#mbc4c77ff20" y="203.206762"/>
     <use style="fill:#c44e52;opacity:0.75;stroke:#c44e52;" x="484.635547" xlink:href="#mbc4c77ff20" y="200.848392"/>
     <use style="fill:#c44e52;opacity:0.75;stroke:#c44e52;" x="484.635547" xlink:href="#mbc4c77ff20" y="202.124813"/>
     <use style="fill:#c44e52;opacity:0.75;stroke:#c44e52;" x="484.635547" xlink:href="#mbc4c77ff20" y="198.717356"/>
     <use style="fill:#c44e52;opacity:0.75;stroke:#c44e52;" x="484.635547" xlink:href="#mbc4c77ff20" y="199.848894"/>
     <use style="fill:#c44e52;opacity:0.75;stroke:#c44e52;" x="484.635547" xlink:href="#mbc4c77ff20" y="200.865095"/>
     <use style="fill:#c44e52;opacity:0.75;stroke:#c44e52;" x="522.681001" xlink:href="#mbc4c77ff20" y="199.240842"/>
     <use style="fill:#c44e52;opacity:0.75;stroke:#c44e52;" x="522.681001" xlink:href="#mbc4c77ff20" y="199.439223"/>
     <use style="fill:#c44e52;opacity:0.75;stroke:#c44e52;" x="522.681001" xlink:href="#mbc4c77ff20" y="200.096217"/>
     <use style="fill:#c44e52;opacity:0.75;stroke:#c44e52;" x="522.681001" xlink:href="#mbc4c77ff20" y="201.1329"/>
     <use style="fill:#c44e52;opacity:0.75;stroke:#c44e52;" x="522.681001" xlink:href="#mbc4c77ff20" y="200.7967"/>
    </g>
   </g>
   <g id="line2d_27">
    <path clip-path="url(#pcca8a0e1a2)" d="M 66.135547 34.194558 
L 104.181001 40.275159 
L 142.226456 63.54917 
L 180.27191 112.403988 
L 218.317365 167.444344 
L 256.362819 192.769307 
L 294.408274 199.597795 
L 332.453728 202.167975 
L 370.499183 202.880118 
L 408.544638 203.565897 
L 446.590092 202.844002 
L 484.635547 200.48091 
L 522.681001 200.141177 
" style="fill:none;opacity:0.75;stroke:#c44e52;stroke-linecap:square;stroke-width:1.5;"/>
   </g>
   <g id="line2d_28">
    <path clip-path="url(#pcca8a0e1a2)" d="M 66.135547 197.22715 
L 104.181001 197.22715 
L 142.226456 197.22715 
L 180.27191 197.22715 
L 218.317365 197.22715 
L 256.362819 197.22715 
L 294.408274 197.22715 
L 332.453728 197.22715 
L 370.499183 197.22715 
L 408.544638 197.22715 
L 446.590092 197.22715 
L 484.635547 197.22715 
L 522.681001 197.22715 
" style="fill:none;opacity:0.75;stroke:#000000;stroke-dasharray:1.5,2.475;stroke-dashoffset:0;stroke-width:1.5;"/>
   </g>
   <g id="patch_3">
    <path d="M 43.308274 214.449281 
L 43.308274 20.409281 
" style="fill:none;stroke:#000000;stroke-linecap:square;stroke-linejoin:miter;stroke-width:0.8;"/>
   </g>
   <g id="patch_4">
    <path d="M 43.308274 214.449281 
L 545.508274 214.449281 
" style="fill:none;stroke:#000000;stroke-linecap:square;stroke-linejoin:miter;stroke-width:0.8;"/>
   </g>
   <g id="text_20">
    <!-- Veracruz VFS nocopy vs Wasmtime+tmpfs -->
    <defs>
     <path d="M 28.609375 0 
L 0.78125 72.90625 
L 11.078125 72.90625 
L 34.1875 11.53125 
L 57.328125 72.90625 
L 67.578125 72.90625 
L 39.796875 0 
z
" id="DejaVuSans-56"/>
     <path d="M 56.203125 29.59375 
L 56.203125 25.203125 
L 14.890625 25.203125 
Q 15.484375 15.921875 20.484375 11.0625 
Q 25.484375 6.203125 34.421875 6.203125 
Q 39.59375 6.203125 44.453125 7.46875 
Q 49.3125 8.734375 54.109375 11.28125 
L 54.109375 2.78125 
Q 49.265625 0.734375 44.1875 -0.34375 
Q 39.109375 -1.421875 33.890625 -1.421875 
Q 20.796875 -1.421875 13.15625 6.1875 
Q 5.515625 13.8125 5.515625 26.8125 
Q 5.515625 40.234375 12.765625 48.109375 
Q 20.015625 56 32.328125 56 
Q 43.359375 56 49.78125 48.890625 
Q 56.203125 41.796875 56.203125 29.59375 
z
M 47.21875 32.234375 
Q 47.125 39.59375 43.09375 43.984375 
Q 39.0625 48.390625 32.421875 48.390625 
Q 24.90625 48.390625 20.390625 44.140625 
Q 15.875 39.890625 15.1875 32.171875 
z
" id="DejaVuSans-65"/>
     <path d="M 41.109375 46.296875 
Q 39.59375 47.171875 37.8125 47.578125 
Q 36.03125 48 33.890625 48 
Q 26.265625 48 22.1875 43.046875 
Q 18.109375 38.09375 18.109375 28.8125 
L 18.109375 0 
L 9.078125 0 
L 9.078125 54.6875 
L 18.109375 54.6875 
L 18.109375 46.1875 
Q 20.953125 51.171875 25.484375 53.578125 
Q 30.03125 56 36.53125 56 
Q 37.453125 56 38.578125 55.875 
Q 39.703125 55.765625 41.0625 55.515625 
z
" id="DejaVuSans-72"/>
     <path d="M 34.28125 27.484375 
Q 23.390625 27.484375 19.1875 25 
Q 14.984375 22.515625 14.984375 16.5 
Q 14.984375 11.71875 18.140625 8.90625 
Q 21.296875 6.109375 26.703125 6.109375 
Q 34.1875 6.109375 38.703125 11.40625 
Q 43.21875 16.703125 43.21875 25.484375 
L 43.21875 27.484375 
z
M 52.203125 31.203125 
L 52.203125 0 
L 43.21875 0 
L 43.21875 8.296875 
Q 40.140625 3.328125 35.546875 0.953125 
Q 30.953125 -1.421875 24.3125 -1.421875 
Q 15.921875 -1.421875 10.953125 3.296875 
Q 6 8.015625 6 15.921875 
Q 6 25.140625 12.171875 29.828125 
Q 18.359375 34.515625 30.609375 34.515625 
L 43.21875 34.515625 
L 43.21875 35.40625 
Q 43.21875 41.609375 39.140625 45 
Q 35.0625 48.390625 27.6875 48.390625 
Q 23 48.390625 18.546875 47.265625 
Q 14.109375 46.140625 10.015625 43.890625 
L 10.015625 52.203125 
Q 14.9375 54.109375 19.578125 55.046875 
Q 24.21875 56 28.609375 56 
Q 40.484375 56 46.34375 49.84375 
Q 52.203125 43.703125 52.203125 31.203125 
z
" id="DejaVuSans-61"/>
     <path d="M 48.78125 52.59375 
L 48.78125 44.1875 
Q 44.96875 46.296875 41.140625 47.34375 
Q 37.3125 48.390625 33.40625 48.390625 
Q 24.65625 48.390625 19.8125 42.84375 
Q 14.984375 37.3125 14.984375 27.296875 
Q 14.984375 17.28125 19.8125 11.734375 
Q 24.65625 6.203125 33.40625 6.203125 
Q 37.3125 6.203125 41.140625 7.25 
Q 44.96875 8.296875 48.78125 10.40625 
L 48.78125 2.09375 
Q 45.015625 0.34375 40.984375 -0.53125 
Q 36.96875 -1.421875 32.421875 -1.421875 
Q 20.0625 -1.421875 12.78125 6.34375 
Q 5.515625 14.109375 5.515625 27.296875 
Q 5.515625 40.671875 12.859375 48.328125 
Q 20.21875 56 33.015625 56 
Q 37.15625 56 41.109375 55.140625 
Q 45.0625 54.296875 48.78125 52.59375 
z
" id="DejaVuSans-63"/>
     <path d="M 8.5 21.578125 
L 8.5 54.6875 
L 17.484375 54.6875 
L 17.484375 21.921875 
Q 17.484375 14.15625 20.5 10.265625 
Q 23.53125 6.390625 29.59375 6.390625 
Q 36.859375 6.390625 41.078125 11.03125 
Q 45.3125 15.671875 45.3125 23.6875 
L 45.3125 54.6875 
L 54.296875 54.6875 
L 54.296875 0 
L 45.3125 0 
L 45.3125 8.40625 
Q 42.046875 3.421875 37.71875 1 
Q 33.40625 -1.421875 27.6875 -1.421875 
Q 18.265625 -1.421875 13.375 4.4375 
Q 8.5 10.296875 8.5 21.578125 
z
M 31.109375 56 
z
" id="DejaVuSans-75"/>
     <path d="M 5.515625 54.6875 
L 48.1875 54.6875 
L 48.1875 46.484375 
L 14.40625 7.171875 
L 48.1875 7.171875 
L 48.1875 0 
L 4.296875 0 
L 4.296875 8.203125 
L 38.09375 47.515625 
L 5.515625 47.515625 
z
" id="DejaVuSans-7a"/>
     <path d="M 9.8125 72.90625 
L 51.703125 72.90625 
L 51.703125 64.59375 
L 19.671875 64.59375 
L 19.671875 43.109375 
L 48.578125 43.109375 
L 48.578125 34.8125 
L 19.671875 34.8125 
L 19.671875 0 
L 9.8125 0 
z
" id="DejaVuSans-46"/>
     <path d="M 53.515625 70.515625 
L 53.515625 60.890625 
Q 47.90625 63.578125 42.921875 64.890625 
Q 37.9375 66.21875 33.296875 66.21875 
Q 25.25 66.21875 20.875 63.09375 
Q 16.5 59.96875 16.5 54.203125 
Q 16.5 49.359375 19.40625 46.890625 
Q 22.3125 44.4375 30.421875 42.921875 
L 36.375 41.703125 
Q 47.40625 39.59375 52.65625 34.296875 
Q 57.90625 29 57.90625 20.125 
Q 57.90625 9.515625 50.796875 4.046875 
Q 43.703125 -1.421875 29.984375 -1.421875 
Q 24.8125 -1.421875 18.96875 -0.25 
Q 13.140625 0.921875 6.890625 3.21875 
L 6.890625 13.375 
Q 12.890625 10.015625 18.65625 8.296875 
Q 24.421875 6.59375 29.984375 6.59375 
Q 38.421875 6.59375 43.015625 9.90625 
Q 47.609375 13.234375 47.609375 19.390625 
Q 47.609375 24.75 44.3125 27.78125 
Q 41.015625 30.8125 33.5 32.328125 
L 27.484375 33.5 
Q 16.453125 35.6875 11.515625 40.375 
Q 6.59375 45.0625 6.59375 53.421875 
Q 6.59375 63.09375 13.40625 68.65625 
Q 20.21875 74.21875 32.171875 74.21875 
Q 37.3125 74.21875 42.625 73.28125 
Q 47.953125 72.359375 53.515625 70.515625 
z
" id="DejaVuSans-53"/>
     <path d="M 54.890625 33.015625 
L 54.890625 0 
L 45.90625 0 
L 45.90625 32.71875 
Q 45.90625 40.484375 42.875 44.328125 
Q 39.84375 48.1875 33.796875 48.1875 
Q 26.515625 48.1875 22.3125 43.546875 
Q 18.109375 38.921875 18.109375 30.90625 
L 18.109375 0 
L 9.078125 0 
L 9.078125 54.6875 
L 18.109375 54.6875 
L 18.109375 46.1875 
Q 21.34375 51.125 25.703125 53.5625 
Q 30.078125 56 35.796875 56 
Q 45.21875 56 50.046875 50.171875 
Q 54.890625 44.34375 54.890625 33.015625 
z
" id="DejaVuSans-6e"/>
     <path d="M 30.609375 48.390625 
Q 23.390625 48.390625 19.1875 42.75 
Q 14.984375 37.109375 14.984375 27.296875 
Q 14.984375 17.484375 19.15625 11.84375 
Q 23.34375 6.203125 30.609375 6.203125 
Q 37.796875 6.203125 41.984375 11.859375 
Q 46.1875 17.53125 46.1875 27.296875 
Q 46.1875 37.015625 41.984375 42.703125 
Q 37.796875 48.390625 30.609375 48.390625 
z
M 30.609375 56 
Q 42.328125 56 49.015625 48.375 
Q 55.71875 40.765625 55.71875 27.296875 
Q 55.71875 13.875 49.015625 6.21875 
Q 42.328125 -1.421875 30.609375 -1.421875 
Q 18.84375 -1.421875 12.171875 6.21875 
Q 5.515625 13.875 5.515625 27.296875 
Q 5.515625 40.765625 12.171875 48.375 
Q 18.84375 56 30.609375 56 
z
" id="DejaVuSans-6f"/>
     <path d="M 18.109375 8.203125 
L 18.109375 -20.796875 
L 9.078125 -20.796875 
L 9.078125 54.6875 
L 18.109375 54.6875 
L 18.109375 46.390625 
Q 20.953125 51.265625 25.265625 53.625 
Q 29.59375 56 35.59375 56 
Q 45.5625 56 51.78125 48.09375 
Q 58.015625 40.1875 58.015625 27.296875 
Q 58.015625 14.40625 51.78125 6.484375 
Q 45.5625 -1.421875 35.59375 -1.421875 
Q 29.59375 -1.421875 25.265625 0.953125 
Q 20.953125 3.328125 18.109375 8.203125 
z
M 48.6875 27.296875 
Q 48.6875 37.203125 44.609375 42.84375 
Q 40.53125 48.484375 33.40625 48.484375 
Q 26.265625 48.484375 22.1875 42.84375 
Q 18.109375 37.203125 18.109375 27.296875 
Q 18.109375 17.390625 22.1875 11.75 
Q 26.265625 6.109375 33.40625 6.109375 
Q 40.53125 6.109375 44.609375 11.75 
Q 48.6875 17.390625 48.6875 27.296875 
z
" id="DejaVuSans-70"/>
     <path d="M 32.171875 -5.078125 
Q 28.375 -14.84375 24.75 -17.8125 
Q 21.140625 -20.796875 15.09375 -20.796875 
L 7.90625 -20.796875 
L 7.90625 -13.28125 
L 13.1875 -13.28125 
Q 16.890625 -13.28125 18.9375 -11.515625 
Q 21 -9.765625 23.484375 -3.21875 
L 25.09375 0.875 
L 2.984375 54.6875 
L 12.5 54.6875 
L 29.59375 11.921875 
L 46.6875 54.6875 
L 56.203125 54.6875 
z
" id="DejaVuSans-79"/>
     <path d="M 2.984375 54.6875 
L 12.5 54.6875 
L 29.59375 8.796875 
L 46.6875 54.6875 
L 56.203125 54.6875 
L 35.6875 0 
L 23.484375 0 
z
" id="DejaVuSans-76"/>
     <path d="M 44.28125 53.078125 
L 44.28125 44.578125 
Q 40.484375 46.53125 36.375 47.5 
Q 32.28125 48.484375 27.875 48.484375 
Q 21.1875 48.484375 17.84375 46.4375 
Q 14.5 44.390625 14.5 40.28125 
Q 14.5 37.15625 16.890625 35.375 
Q 19.28125 33.59375 26.515625 31.984375 
L 29.59375 31.296875 
Q 39.15625 29.25 43.1875 25.515625 
Q 47.21875 21.78125 47.21875 15.09375 
Q 47.21875 7.46875 41.1875 3.015625 
Q 35.15625 -1.421875 24.609375 -1.421875 
Q 20.21875 -1.421875 15.453125 -0.5625 
Q 10.6875 0.296875 5.421875 2 
L 5.421875 11.28125 
Q 10.40625 8.6875 15.234375 7.390625 
Q 20.0625 6.109375 24.8125 6.109375 
Q 31.15625 6.109375 34.5625 8.28125 
Q 37.984375 10.453125 37.984375 14.40625 
Q 37.984375 18.0625 35.515625 20.015625 
Q 33.0625 21.96875 24.703125 23.78125 
L 21.578125 24.515625 
Q 13.234375 26.265625 9.515625 29.90625 
Q 5.8125 33.546875 5.8125 39.890625 
Q 5.8125 47.609375 11.28125 51.796875 
Q 16.75 56 26.8125 56 
Q 31.78125 56 36.171875 55.265625 
Q 40.578125 54.546875 44.28125 53.078125 
z
" id="DejaVuSans-73"/>
     <path d="M 3.328125 72.90625 
L 13.28125 72.90625 
L 28.609375 11.28125 
L 43.890625 72.90625 
L 54.984375 72.90625 
L 70.3125 11.28125 
L 85.59375 72.90625 
L 95.609375 72.90625 
L 77.296875 0 
L 64.890625 0 
L 49.515625 63.28125 
L 33.984375 0 
L 21.578125 0 
z
" id="DejaVuSans-57"/>
     <path d="M 52 44.1875 
Q 55.375 50.25 60.0625 53.125 
Q 64.75 56 71.09375 56 
Q 79.640625 56 84.28125 50.015625 
Q 88.921875 44.046875 88.921875 33.015625 
L 88.921875 0 
L 79.890625 0 
L 79.890625 32.71875 
Q 79.890625 40.578125 77.09375 44.375 
Q 74.3125 48.1875 68.609375 48.1875 
Q 61.625 48.1875 57.5625 43.546875 
Q 53.515625 38.921875 53.515625 30.90625 
L 53.515625 0 
L 44.484375 0 
L 44.484375 32.71875 
Q 44.484375 40.625 41.703125 44.40625 
Q 38.921875 48.1875 33.109375 48.1875 
Q 26.21875 48.1875 22.15625 43.53125 
Q 18.109375 38.875 18.109375 30.90625 
L 18.109375 0 
L 9.078125 0 
L 9.078125 54.6875 
L 18.109375 54.6875 
L 18.109375 46.1875 
Q 21.1875 51.21875 25.484375 53.609375 
Q 29.78125 56 35.6875 56 
Q 41.65625 56 45.828125 52.96875 
Q 50 49.953125 52 44.1875 
z
" id="DejaVuSans-6d"/>
     <path d="M 18.3125 70.21875 
L 18.3125 54.6875 
L 36.8125 54.6875 
L 36.8125 47.703125 
L 18.3125 47.703125 
L 18.3125 18.015625 
Q 18.3125 11.328125 20.140625 9.421875 
Q 21.96875 7.515625 27.59375 7.515625 
L 36.8125 7.515625 
L 36.8125 0 
L 27.59375 0 
Q 17.1875 0 13.234375 3.875 
Q 9.28125 7.765625 9.28125 18.015625 
L 9.28125 47.703125 
L 2.6875 47.703125 
L 2.6875 54.6875 
L 9.28125 54.6875 
L 9.28125 70.21875 
z
" id="DejaVuSans-74"/>
     <path d="M 46 62.703125 
L 46 35.5 
L 73.1875 35.5 
L 73.1875 27.203125 
L 46 27.203125 
L 46 0 
L 37.796875 0 
L 37.796875 27.203125 
L 10.59375 27.203125 
L 10.59375 35.5 
L 37.796875 35.5 
L 37.796875 62.703125 
z
" id="DejaVuSans-2b"/>
     <path d="M 37.109375 75.984375 
L 37.109375 68.5 
L 28.515625 68.5 
Q 23.6875 68.5 21.796875 66.546875 
Q 19.921875 64.59375 19.921875 59.515625 
L 19.921875 54.6875 
L 34.71875 54.6875 
L 34.71875 47.703125 
L 19.921875 47.703125 
L 19.921875 0 
L 10.890625 0 
L 10.890625 47.703125 
L 2.296875 47.703125 
L 2.296875 54.6875 
L 10.890625 54.6875 
L 10.890625 58.5 
Q 10.890625 67.625 15.140625 71.796875 
Q 19.390625 75.984375 28.609375 75.984375 
z
" id="DejaVuSans-66"/>
    </defs>
    <g transform="translate(176.595696 15.558281)scale(0.11 -0.11)">
     <use xlink:href="#DejaVuSans-56"/>
     <use x="68.298828" xlink:href="#DejaVuSans-65"/>
     <use x="129.822266" xlink:href="#DejaVuSans-72"/>
     <use x="170.935547" xlink:href="#DejaVuSans-61"/>
     <use x="232.214844" xlink:href="#DejaVuSans-63"/>
     <use x="287.195312" xlink:href="#DejaVuSans-72"/>
     <use x="328.308594" xlink:href="#DejaVuSans-75"/>
     <use x="391.6875" xlink:href="#DejaVuSans-7a"/>
     <use x="444.177734" xlink:href="#DejaVuSans-20"/>
     <use x="475.964844" xlink:href="#DejaVuSans-56"/>
     <use x="544.373047" xlink:href="#DejaVuSans-46"/>
     <use x="601.876953" xlink:href="#DejaVuSans-53"/>
     <use x="665.353516" xlink:href="#DejaVuSans-20"/>
     <use x="697.140625" xlink:href="#DejaVuSans-6e"/>
     <use x="760.519531" xlink:href="#DejaVuSans-6f"/>
     <use x="821.701172" xlink:href="#DejaVuSans-63"/>
     <use x="876.681641" xlink:href="#DejaVuSans-6f"/>
     <use x="937.863281" xlink:href="#DejaVuSans-70"/>
     <use x="1001.339844" xlink:href="#DejaVuSans-79"/>
     <use x="1060.519531" xlink:href="#DejaVuSans-20"/>
     <use x="1092.306641" xlink:href="#DejaVuSans-76"/>
     <use x="1151.486328" xlink:href="#DejaVuSans-73"/>
     <use x="1203.585938" xlink:href="#DejaVuSans-20"/>
     <use x="1235.373047" xlink:href="#DejaVuSans-57"/>
     <use x="1334.15625" xlink:href="#DejaVuSans-61"/>
     <use x="1395.435547" xlink:href="#DejaVuSans-73"/>
     <use x="1447.535156" xlink:href="#DejaVuSans-6d"/>
     <use x="1544.947266" xlink:href="#DejaVuSans-74"/>
     <use x="1584.15625" xlink:href="#DejaVuSans-69"/>
     <use x="1611.939453" xlink:href="#DejaVuSans-6d"/>
     <use x="1709.351562" xlink:href="#DejaVuSans-65"/>
     <use x="1770.875" xlink:href="#DejaVuSans-2b"/>
     <use x="1854.664062" xlink:href="#DejaVuSans-74"/>
     <use x="1893.873047" xlink:href="#DejaVuSans-6d"/>
     <use x="1991.285156" xlink:href="#DejaVuSans-70"/>
     <use x="2054.761719" xlink:href="#DejaVuSans-66"/>
     <use x="2089.966797" xlink:href="#DejaVuSans-73"/>
    </g>
   </g>
   <g id="legend_1">
    <g id="patch_5">
     <path d="M 565.763274 100.236969 
L 705.819055 100.236969 
Q 708.019055 100.236969 708.019055 98.036969 
L 708.019055 18.407281 
Q 708.019055 16.207281 705.819055 16.207281 
L 565.763274 16.207281 
Q 563.563274 16.207281 563.563274 18.407281 
L 563.563274 98.036969 
Q 563.563274 100.236969 565.763274 100.236969 
z
" style="fill:#ffffff;opacity:0.8;stroke:#cccccc;stroke-linejoin:miter;"/>
    </g>
    <g id="line2d_29">
     <path d="M 567.963274 25.115562 
L 589.963274 25.115562 
" style="fill:none;opacity:0.75;stroke:#4c72b0;stroke-linecap:square;stroke-width:1.5;"/>
    </g>
    <g id="line2d_30"/>
    <g id="text_21">
     <!-- read inorder -->
     <defs>
      <path d="M 45.40625 46.390625 
L 45.40625 75.984375 
L 54.390625 75.984375 
L 54.390625 0 
L 45.40625 0 
L 45.40625 8.203125 
Q 42.578125 3.328125 38.25 0.953125 
Q 33.9375 -1.421875 27.875 -1.421875 
Q 17.96875 -1.421875 11.734375 6.484375 
Q 5.515625 14.40625 5.515625 27.296875 
Q 5.515625 40.1875 11.734375 48.09375 
Q 17.96875 56 27.875 56 
Q 33.9375 56 38.25 53.625 
Q 42.578125 51.265625 45.40625 46.390625 
z
M 14.796875 27.296875 
Q 14.796875 17.390625 18.875 11.75 
Q 22.953125 6.109375 30.078125 6.109375 
Q 37.203125 6.109375 41.296875 11.75 
Q 45.40625 17.390625 45.40625 27.296875 
Q 45.40625 37.203125 41.296875 42.84375 
Q 37.203125 48.484375 30.078125 48.484375 
Q 22.953125 48.484375 18.875 42.84375 
Q 14.796875 37.203125 14.796875 27.296875 
z
" id="DejaVuSans-64"/>
     </defs>
     <g transform="translate(598.763274 28.965562)scale(0.11 -0.11)">
      <use xlink:href="#DejaVuSans-72"/>
      <use x="41.082031" xlink:href="#DejaVuSans-65"/>
      <use x="102.605469" xlink:href="#DejaVuSans-61"/>
      <use x="163.884766" xlink:href="#DejaVuSans-64"/>
      <use x="227.361328" xlink:href="#DejaVuSans-20"/>
      <use x="259.148438" xlink:href="#DejaVuSans-69"/>
      <use x="286.931641" xlink:href="#DejaVuSans-6e"/>
      <use x="350.310547" xlink:href="#DejaVuSans-6f"/>
      <use x="411.492188" xlink:href="#DejaVuSans-72"/>
      <use x="452.589844" xlink:href="#DejaVuSans-64"/>
      <use x="516.066406" xlink:href="#DejaVuSans-65"/>
      <use x="577.589844" xlink:href="#DejaVuSans-72"/>
     </g>
    </g>
    <g id="line2d_31">
     <path d="M 567.963274 41.2615 
L 589.963274 41.2615 
" style="fill:none;opacity:0.75;stroke:#dd8452;stroke-linecap:square;stroke-width:1.5;"/>
    </g>
    <g id="line2d_32"/>
    <g id="text_22">
     <!-- write inorder -->
     <defs>
      <path d="M 4.203125 54.6875 
L 13.1875 54.6875 
L 24.421875 12.015625 
L 35.59375 54.6875 
L 46.1875 54.6875 
L 57.421875 12.015625 
L 68.609375 54.6875 
L 77.59375 54.6875 
L 63.28125 0 
L 52.6875 0 
L 40.921875 44.828125 
L 29.109375 0 
L 18.5 0 
z
" id="DejaVuSans-77"/>
     </defs>
     <g transform="translate(598.763274 45.1115)scale(0.11 -0.11)">
      <use xlink:href="#DejaVuSans-77"/>
      <use x="81.787109" xlink:href="#DejaVuSans-72"/>
      <use x="122.900391" xlink:href="#DejaVuSans-69"/>
      <use x="150.683594" xlink:href="#DejaVuSans-74"/>
      <use x="189.892578" xlink:href="#DejaVuSans-65"/>
      <use x="251.416016" xlink:href="#DejaVuSans-20"/>
      <use x="283.203125" xlink:href="#DejaVuSans-69"/>
      <use x="310.986328" xlink:href="#DejaVuSans-6e"/>
      <use x="374.365234" xlink:href="#DejaVuSans-6f"/>
      <use x="435.546875" xlink:href="#DejaVuSans-72"/>
      <use x="476.644531" xlink:href="#DejaVuSans-64"/>
      <use x="540.121094" xlink:href="#DejaVuSans-65"/>
      <use x="601.644531" xlink:href="#DejaVuSans-72"/>
     </g>
    </g>
    <g id="line2d_33">
     <path d="M 567.963274 57.407437 
L 589.963274 57.407437 
" style="fill:none;opacity:0.75;stroke:#55a868;stroke-linecap:square;stroke-width:1.5;"/>
    </g>
    <g id="line2d_34"/>
    <g id="text_23">
     <!-- read random -->
     <g transform="translate(598.763274 61.257437)scale(0.11 -0.11)">
      <use xlink:href="#DejaVuSans-72"/>
      <use x="41.082031" xlink:href="#DejaVuSans-65"/>
      <use x="102.605469" xlink:href="#DejaVuSans-61"/>
      <use x="163.884766" xlink:href="#DejaVuSans-64"/>
      <use x="227.361328" xlink:href="#DejaVuSans-20"/>
      <use x="259.148438" xlink:href="#DejaVuSans-72"/>
      <use x="300.261719" xlink:href="#DejaVuSans-61"/>
      <use x="361.541016" xlink:href="#DejaVuSans-6e"/>
      <use x="424.919922" xlink:href="#DejaVuSans-64"/>
      <use x="488.396484" xlink:href="#DejaVuSans-6f"/>
      <use x="549.578125" xlink:href="#DejaVuSans-6d"/>
     </g>
    </g>
    <g id="line2d_35">
     <path d="M 567.963274 73.553375 
L 589.963274 73.553375 
" style="fill:none;opacity:0.75;stroke:#c44e52;stroke-linecap:square;stroke-width:1.5;"/>
    </g>
    <g id="line2d_36"/>
    <g id="text_24">
     <!-- write random -->
     <g transform="translate(598.763274 77.403375)scale(0.11 -0.11)">
      <use xlink:href="#DejaVuSans-77"/>
      <use x="81.787109" xlink:href="#DejaVuSans-72"/>
      <use x="122.900391" xlink:href="#DejaVuSans-69"/>
      <use x="150.683594" xlink:href="#DejaVuSans-74"/>
      <use x="189.892578" xlink:href="#DejaVuSans-65"/>
      <use x="251.416016" xlink:href="#DejaVuSans-20"/>
      <use x="283.203125" xlink:href="#DejaVuSans-72"/>
      <use x="324.316406" xlink:href="#DejaVuSans-61"/>
      <use x="385.595703" xlink:href="#DejaVuSans-6e"/>
      <use x="448.974609" xlink:href="#DejaVuSans-64"/>
      <use x="512.451172" xlink:href="#DejaVuSans-6f"/>
      <use x="573.632812" xlink:href="#DejaVuSans-6d"/>
     </g>
    </g>
    <g id="line2d_37">
     <path d="M 567.963274 89.699312 
L 589.963274 89.699312 
" style="fill:none;opacity:0.75;stroke:#000000;stroke-dasharray:1.5,2.475;stroke-dashoffset:0;stroke-width:1.5;"/>
    </g>
    <g id="line2d_38"/>
    <g id="text_25">
     <!-- wasmtime + tmpfs -->
     <g transform="translate(598.763274 93.549312)scale(0.11 -0.11)">
      <use xlink:href="#DejaVuSans-77"/>
      <use x="81.787109" xlink:href="#DejaVuSans-61"/>
      <use x="143.066406" xlink:href="#DejaVuSans-73"/>
      <use x="195.166016" xlink:href="#DejaVuSans-6d"/>
      <use x="292.578125" xlink:href="#DejaVuSans-74"/>
      <use x="331.787109" xlink:href="#DejaVuSans-69"/>
      <use x="359.570312" xlink:href="#DejaVuSans-6d"/>
      <use x="456.982422" xlink:href="#DejaVuSans-65"/>
      <use x="518.505859" xlink:href="#DejaVuSans-20"/>
      <use x="550.292969" xlink:href="#DejaVuSans-2b"/>
      <use x="634.082031" xlink:href="#DejaVuSans-20"/>
      <use x="665.869141" xlink:href="#DejaVuSans-74"/>
      <use x="705.078125" xlink:href="#DejaVuSans-6d"/>
      <use x="802.490234" xlink:href="#DejaVuSans-70"/>
      <use x="865.966797" xlink:href="#DejaVuSans-66"/>
      <use x="901.171875" xlink:href="#DejaVuSans-73"/>
     </g>
    </g>
   </g>
  </g>
 </g>
 <defs>
  <clipPath id="pcca8a0e1a2">
   <rect height="194.04" width="502.2" x="43.308274" y="20.409281"/>
  </clipPath>
 </defs>
</svg>
