<?xml version="1.0" encoding="utf-8" standalone="no"?>
<!DOCTYPE svg PUBLIC "-//W3C//DTD SVG 1.1//EN"
  "http://www.w3.org/Graphics/SVG/1.1/DTD/svg11.dtd">
<!-- Created with matplotlib (http://matplotlib.org/) -->
<svg height="263pt" version="1.1" viewBox="0 0 715 263" width="715pt" xmlns="http://www.w3.org/2000/svg" xmlns:xlink="http://www.w3.org/1999/xlink">
 <defs>
  <style type="text/css">
*{stroke-linecap:butt;stroke-linejoin:round;}
  </style>
 </defs>
 <g id="figure_1">
  <g id="patch_1">
   <path d="M 0 263.89247 
L 715.219055 263.89247 
L 715.219055 0 
L 0 0 
z
" style="fill:#ffffff;"/>
  </g>
  <g id="axes_1">
   <g id="patch_2">
    <path d="M 43.308274 214.449281 
L 545.508274 214.449281 
L 545.508274 20.409281 
L 43.308274 20.409281 
z
" style="fill:#ffffff;"/>
   </g>
   <g id="PolyCollection_1">
    <defs>
     <path d="M 66.135547 -98.585129 
L 66.135547 -97.7452 
L 104.181001 -104.740937 
L 142.226456 -116.236247 
L 180.27191 -124.344738 
L 218.317365 -126.967188 
L 256.362819 -132.91165 
L 294.408274 -145.483141 
L 332.453728 -136.526576 
L 370.499183 -123.251578 
L 408.544638 -122.776166 
L 446.590092 -114.003909 
L 484.635547 -107.767796 
L 522.681001 -58.263189 
L 522.681001 -61.110572 
L 522.681001 -61.110572 
L 484.635547 -109.451892 
L 446.590092 -117.486662 
L 408.544638 -125.060464 
L 370.499183 -128.925021 
L 332.453728 -143.865956 
L 294.408274 -151.278804 
L 256.362819 -138.428731 
L 218.317365 -134.955682 
L 180.27191 -131.507681 
L 142.226456 -119.17411 
L 104.181001 -106.435803 
L 66.135547 -98.585129 
z
" id="m9cd7bbce05"/>
    </defs>
    <g clip-path="url(#p27b0228d99)">
     <use style="fill:#4c72b0;fill-opacity:0.25;" x="0" xlink:href="#m9cd7bbce05" y="263.89247"/>
    </g>
   </g>
   <g id="PolyCollection_2">
    <defs>
     <path d="M 66.135547 -96.245898 
L 66.135547 -95.384256 
L 104.181001 -91.55372 
L 142.226456 -90.723335 
L 180.27191 -90.665379 
L 218.317365 -90.952939 
L 256.362819 -91.317512 
L 294.408274 -88.892252 
L 332.453728 -87.393193 
L 370.499183 -86.608854 
L 408.544638 -78.185618 
L 446.590092 -75.457382 
L 484.635547 -73.618601 
L 522.681001 -71.666563 
L 522.681001 -72.831596 
L 522.681001 -72.831596 
L 484.635547 -75.030621 
L 446.590092 -76.795374 
L 408.544638 -79.107529 
L 370.499183 -88.517931 
L 332.453728 -90.435837 
L 294.408274 -90.944532 
L 256.362819 -92.902193 
L 218.317365 -93.959242 
L 180.27191 -93.524138 
L 142.226456 -93.685558 
L 104.181001 -94.562152 
L 66.135547 -96.245898 
z
" id="m0f02b7ccaf"/>
    </defs>
    <g clip-path="url(#p27b0228d99)">
     <use style="fill:#dd8452;fill-opacity:0.25;" x="0" xlink:href="#m0f02b7ccaf" y="263.89247"/>
    </g>
   </g>
   <g id="PolyCollection_3">
    <defs>
     <path d="M 66.135547 -178.601977 
L 66.135547 -176.758578 
L 104.181001 -173.292018 
L 142.226456 -174.407725 
L 180.27191 -173.427955 
L 218.317365 -165.818247 
L 256.362819 -145.692205 
L 294.408274 -155.592941 
L 332.453728 -135.363511 
L 370.499183 -116.902137 
L 408.544638 -121.256231 
L 446.590092 -107.801139 
L 484.635547 -105.254469 
L 522.681001 -59.908399 
L 522.681001 -61.523163 
L 522.681001 -61.523163 
L 484.635547 -107.946485 
L 446.590092 -113.923938 
L 408.544638 -125.848834 
L 370.499183 -122.32332 
L 332.453728 -138.960688 
L 294.408274 -156.828275 
L 256.362819 -157.674128 
L 218.317365 -168.902113 
L 180.27191 -176.966843 
L 142.226456 -178.239805 
L 104.181001 -178.236482 
L 66.135547 -178.601977 
z
" id="m6397bd033e"/>
    </defs>
    <g clip-path="url(#p27b0228d99)">
     <use style="fill:#55a868;fill-opacity:0.25;" x="0" xlink:href="#m6397bd033e" y="263.89247"/>
    </g>
   </g>
   <g id="PolyCollection_4">
    <defs>
     <path d="M 66.135547 -234.663189 
L 66.135547 -227.937154 
L 104.181001 -220.527472 
L 142.226456 -203.327659 
L 180.27191 -165.440211 
L 218.317365 -118.855358 
L 256.362819 -95.40747 
L 294.408274 -90.130876 
L 332.453728 -87.0546 
L 370.499183 -81.050536 
L 408.544638 -75.798909 
L 446.590092 -75.57555 
L 484.635547 -73.77025 
L 522.681001 -71.531145 
L 522.681001 -73.005167 
L 522.681001 -73.005167 
L 484.635547 -75.749524 
L 446.590092 -76.053278 
L 408.544638 -78.015504 
L 370.499183 -87.68598 
L 332.453728 -90.290115 
L 294.408274 -92.721112 
L 256.362819 -97.759819 
L 218.317365 -120.990778 
L 180.27191 -170.714134 
L 142.226456 -214.906306 
L 104.181001 -229.493058 
L 66.135547 -234.663189 
z
" id="m249dfc784a"/>
    </defs>
    <g clip-path="url(#p27b0228d99)">
     <use style="fill:#c44e52;fill-opacity:0.25;" x="0" xlink:href="#m249dfc784a" y="263.89247"/>
    </g>
   </g>
   <g id="matplotlib.axis_1">
    <g id="xtick_1">
     <g id="line2d_1">
      <defs>
       <path d="M 0 0 
L 0 3.5 
" id="m8f3b820ac9" style="stroke:#000000;stroke-width:0.8;"/>
      </defs>
      <g>
       <use style="stroke:#000000;stroke-width:0.8;" x="66.135547" xlink:href="#m8f3b820ac9" y="214.449281"/>
      </g>
     </g>
     <g id="text_1">
      <!-- 4 B -->
      <defs>
       <path d="M 37.796875 64.3125 
L 12.890625 25.390625 
L 37.796875 25.390625 
z
M 35.203125 72.90625 
L 47.609375 72.90625 
L 47.609375 25.390625 
L 58.015625 25.390625 
L 58.015625 17.1875 
L 47.609375 17.1875 
L 47.609375 0 
L 37.796875 0 
L 37.796875 17.1875 
L 4.890625 17.1875 
L 4.890625 26.703125 
z
" id="DejaVuSans-34"/>
       <path id="DejaVuSans-20"/>
       <path d="M 19.671875 34.8125 
L 19.671875 8.109375 
L 35.5 8.109375 
Q 43.453125 8.109375 47.28125 11.40625 
Q 51.125 14.703125 51.125 21.484375 
Q 51.125 28.328125 47.28125 31.5625 
Q 43.453125 34.8125 35.5 34.8125 
z
M 19.671875 64.796875 
L 19.671875 42.828125 
L 34.28125 42.828125 
Q 41.5 42.828125 45.03125 45.53125 
Q 48.578125 48.25 48.578125 53.8125 
Q 48.578125 59.328125 45.03125 62.0625 
Q 41.5 64.796875 34.28125 64.796875 
z
M 9.8125 72.90625 
L 35.015625 72.90625 
Q 46.296875 72.90625 52.390625 68.21875 
Q 58.5 63.53125 58.5 54.890625 
Q 58.5 48.1875 55.375 44.234375 
Q 52.25 40.28125 46.1875 39.3125 
Q 53.46875 37.75 57.5 32.78125 
Q 61.53125 27.828125 61.53125 20.40625 
Q 61.53125 10.640625 54.890625 5.3125 
Q 48.25 0 35.984375 0 
L 9.8125 0 
z
" id="DejaVuSans-42"/>
      </defs>
      <g transform="translate(63.607131 221.449281)rotate(-270)scale(0.09163 -0.09163)">
       <use xlink:href="#DejaVuSans-34"/>
       <use x="63.623047" xlink:href="#DejaVuSans-20"/>
       <use x="95.410156" xlink:href="#DejaVuSans-42"/>
      </g>
     </g>
    </g>
    <g id="xtick_2">
     <g id="line2d_2">
      <g>
       <use style="stroke:#000000;stroke-width:0.8;" x="104.181001" xlink:href="#m8f3b820ac9" y="214.449281"/>
      </g>
     </g>
     <g id="text_2">
      <!-- 16 B -->
      <defs>
       <path d="M 12.40625 8.296875 
L 28.515625 8.296875 
L 28.515625 63.921875 
L 10.984375 60.40625 
L 10.984375 69.390625 
L 28.421875 72.90625 
L 38.28125 72.90625 
L 38.28125 8.296875 
L 54.390625 8.296875 
L 54.390625 0 
L 12.40625 0 
z
" id="DejaVuSans-31"/>
       <path d="M 33.015625 40.375 
Q 26.375 40.375 22.484375 35.828125 
Q 18.609375 31.296875 18.609375 23.390625 
Q 18.609375 15.53125 22.484375 10.953125 
Q 26.375 6.390625 33.015625 6.390625 
Q 39.65625 6.390625 43.53125 10.953125 
Q 47.40625 15.53125 47.40625 23.390625 
Q 47.40625 31.296875 43.53125 35.828125 
Q 39.65625 40.375 33.015625 40.375 
z
M 52.59375 71.296875 
L 52.59375 62.3125 
Q 48.875 64.0625 45.09375 64.984375 
Q 41.3125 65.921875 37.59375 65.921875 
Q 27.828125 65.921875 22.671875 59.328125 
Q 17.53125 52.734375 16.796875 39.40625 
Q 19.671875 43.65625 24.015625 45.921875 
Q 28.375 48.1875 33.59375 48.1875 
Q 44.578125 48.1875 50.953125 41.515625 
Q 57.328125 34.859375 57.328125 23.390625 
Q 57.328125 12.15625 50.6875 5.359375 
Q 44.046875 -1.421875 33.015625 -1.421875 
Q 20.359375 -1.421875 13.671875 8.265625 
Q 6.984375 17.96875 6.984375 36.375 
Q 6.984375 53.65625 15.1875 63.9375 
Q 23.390625 74.21875 37.203125 74.21875 
Q 40.921875 74.21875 44.703125 73.484375 
Q 48.484375 72.75 52.59375 71.296875 
z
" id="DejaVuSans-36"/>
      </defs>
      <g transform="translate(101.652586 221.449281)rotate(-270)scale(0.09163 -0.09163)">
       <use xlink:href="#DejaVuSans-31"/>
       <use x="63.623047" xlink:href="#DejaVuSans-36"/>
       <use x="127.246094" xlink:href="#DejaVuSans-20"/>
       <use x="159.033203" xlink:href="#DejaVuSans-42"/>
      </g>
     </g>
    </g>
    <g id="xtick_3">
     <g id="line2d_3">
      <g>
       <use style="stroke:#000000;stroke-width:0.8;" x="142.226456" xlink:href="#m8f3b820ac9" y="214.449281"/>
      </g>
     </g>
     <g id="text_3">
      <!-- 64 B -->
      <g transform="translate(139.69804 221.449281)rotate(-270)scale(0.09163 -0.09163)">
       <use xlink:href="#DejaVuSans-36"/>
       <use x="63.623047" xlink:href="#DejaVuSans-34"/>
       <use x="127.246094" xlink:href="#DejaVuSans-20"/>
       <use x="159.033203" xlink:href="#DejaVuSans-42"/>
      </g>
     </g>
    </g>
    <g id="xtick_4">
     <g id="line2d_4">
      <g>
       <use style="stroke:#000000;stroke-width:0.8;" x="180.27191" xlink:href="#m8f3b820ac9" y="214.449281"/>
      </g>
     </g>
     <g id="text_4">
      <!-- 256 B -->
      <defs>
       <path d="M 19.1875 8.296875 
L 53.609375 8.296875 
L 53.609375 0 
L 7.328125 0 
L 7.328125 8.296875 
Q 12.9375 14.109375 22.625 23.890625 
Q 32.328125 33.6875 34.8125 36.53125 
Q 39.546875 41.84375 41.421875 45.53125 
Q 43.3125 49.21875 43.3125 52.78125 
Q 43.3125 58.59375 39.234375 62.25 
Q 35.15625 65.921875 28.609375 65.921875 
Q 23.96875 65.921875 18.8125 64.3125 
Q 13.671875 62.703125 7.8125 59.421875 
L 7.8125 69.390625 
Q 13.765625 71.78125 18.9375 73 
Q 24.125 74.21875 28.421875 74.21875 
Q 39.75 74.21875 46.484375 68.546875 
Q 53.21875 62.890625 53.21875 53.421875 
Q 53.21875 48.921875 51.53125 44.890625 
Q 49.859375 40.875 45.40625 35.40625 
Q 44.1875 33.984375 37.640625 27.21875 
Q 31.109375 20.453125 19.1875 8.296875 
z
" id="DejaVuSans-32"/>
       <path d="M 10.796875 72.90625 
L 49.515625 72.90625 
L 49.515625 64.59375 
L 19.828125 64.59375 
L 19.828125 46.734375 
Q 21.96875 47.46875 24.109375 47.828125 
Q 26.265625 48.1875 28.421875 48.1875 
Q 40.625 48.1875 47.75 41.5 
Q 54.890625 34.8125 54.890625 23.390625 
Q 54.890625 11.625 47.5625 5.09375 
Q 40.234375 -1.421875 26.90625 -1.421875 
Q 22.3125 -1.421875 17.546875 -0.640625 
Q 12.796875 0.140625 7.71875 1.703125 
L 7.71875 11.625 
Q 12.109375 9.234375 16.796875 8.0625 
Q 21.484375 6.890625 26.703125 6.890625 
Q 35.15625 6.890625 40.078125 11.328125 
Q 45.015625 15.765625 45.015625 23.390625 
Q 45.015625 31 40.078125 35.4375 
Q 35.15625 39.890625 26.703125 39.890625 
Q 22.75 39.890625 18.8125 39.015625 
Q 14.890625 38.140625 10.796875 36.28125 
z
" id="DejaVuSans-35"/>
      </defs>
      <g transform="translate(177.743495 221.449281)rotate(-270)scale(0.09163 -0.09163)">
       <use xlink:href="#DejaVuSans-32"/>
       <use x="63.623047" xlink:href="#DejaVuSans-35"/>
       <use x="127.246094" xlink:href="#DejaVuSans-36"/>
       <use x="190.869141" xlink:href="#DejaVuSans-20"/>
       <use x="222.65625" xlink:href="#DejaVuSans-42"/>
      </g>
     </g>
    </g>
    <g id="xtick_5">
     <g id="line2d_5">
      <g>
       <use style="stroke:#000000;stroke-width:0.8;" x="218.317365" xlink:href="#m8f3b820ac9" y="214.449281"/>
      </g>
     </g>
     <g id="text_5">
      <!-- 1 KiB -->
      <defs>
       <path d="M 9.8125 72.90625 
L 19.671875 72.90625 
L 19.671875 42.09375 
L 52.390625 72.90625 
L 65.09375 72.90625 
L 28.90625 38.921875 
L 67.671875 0 
L 54.6875 0 
L 19.671875 35.109375 
L 19.671875 0 
L 9.8125 0 
z
" id="DejaVuSans-4b"/>
       <path d="M 9.421875 54.6875 
L 18.40625 54.6875 
L 18.40625 0 
L 9.421875 0 
z
M 9.421875 75.984375 
L 18.40625 75.984375 
L 18.40625 64.59375 
L 9.421875 64.59375 
z
" id="DejaVuSans-69"/>
      </defs>
      <g transform="translate(215.78895 221.449281)rotate(-270)scale(0.09163 -0.09163)">
       <use xlink:href="#DejaVuSans-31"/>
       <use x="63.623047" xlink:href="#DejaVuSans-20"/>
       <use x="95.410156" xlink:href="#DejaVuSans-4b"/>
       <use x="160.986328" xlink:href="#DejaVuSans-69"/>
       <use x="188.769531" xlink:href="#DejaVuSans-42"/>
      </g>
     </g>
    </g>
    <g id="xtick_6">
     <g id="line2d_6">
      <g>
       <use style="stroke:#000000;stroke-width:0.8;" x="256.362819" xlink:href="#m8f3b820ac9" y="214.449281"/>
      </g>
     </g>
     <g id="text_6">
      <!-- 4 KiB -->
      <g transform="translate(253.834404 221.449281)rotate(-270)scale(0.09163 -0.09163)">
       <use xlink:href="#DejaVuSans-34"/>
       <use x="63.623047" xlink:href="#DejaVuSans-20"/>
       <use x="95.410156" xlink:href="#DejaVuSans-4b"/>
       <use x="160.986328" xlink:href="#DejaVuSans-69"/>
       <use x="188.769531" xlink:href="#DejaVuSans-42"/>
      </g>
     </g>
    </g>
    <g id="xtick_7">
     <g id="line2d_7">
      <g>
       <use style="stroke:#000000;stroke-width:0.8;" x="294.408274" xlink:href="#m8f3b820ac9" y="214.449281"/>
      </g>
     </g>
     <g id="text_7">
      <!-- 16 KiB -->
      <g transform="translate(291.879859 221.449281)rotate(-270)scale(0.09163 -0.09163)">
       <use xlink:href="#DejaVuSans-31"/>
       <use x="63.623047" xlink:href="#DejaVuSans-36"/>
       <use x="127.246094" xlink:href="#DejaVuSans-20"/>
       <use x="159.033203" xlink:href="#DejaVuSans-4b"/>
       <use x="224.609375" xlink:href="#DejaVuSans-69"/>
       <use x="252.392578" xlink:href="#DejaVuSans-42"/>
      </g>
     </g>
    </g>
    <g id="xtick_8">
     <g id="line2d_8">
      <g>
       <use style="stroke:#000000;stroke-width:0.8;" x="332.453728" xlink:href="#m8f3b820ac9" y="214.449281"/>
      </g>
     </g>
     <g id="text_8">
      <!-- 64 KiB -->
      <g transform="translate(329.925313 221.449281)rotate(-270)scale(0.09163 -0.09163)">
       <use xlink:href="#DejaVuSans-36"/>
       <use x="63.623047" xlink:href="#DejaVuSans-34"/>
       <use x="127.246094" xlink:href="#DejaVuSans-20"/>
       <use x="159.033203" xlink:href="#DejaVuSans-4b"/>
       <use x="224.609375" xlink:href="#DejaVuSans-69"/>
       <use x="252.392578" xlink:href="#DejaVuSans-42"/>
      </g>
     </g>
    </g>
    <g id="xtick_9">
     <g id="line2d_9">
      <g>
       <use style="stroke:#000000;stroke-width:0.8;" x="370.499183" xlink:href="#m8f3b820ac9" y="214.449281"/>
      </g>
     </g>
     <g id="text_9">
      <!-- 256 KiB -->
      <g transform="translate(367.970768 221.449281)rotate(-270)scale(0.09163 -0.09163)">
       <use xlink:href="#DejaVuSans-32"/>
       <use x="63.623047" xlink:href="#DejaVuSans-35"/>
       <use x="127.246094" xlink:href="#DejaVuSans-36"/>
       <use x="190.869141" xlink:href="#DejaVuSans-20"/>
       <use x="222.65625" xlink:href="#DejaVuSans-4b"/>
       <use x="288.232422" xlink:href="#DejaVuSans-69"/>
       <use x="316.015625" xlink:href="#DejaVuSans-42"/>
      </g>
     </g>
    </g>
    <g id="xtick_10">
     <g id="line2d_10">
      <g>
       <use style="stroke:#000000;stroke-width:0.8;" x="408.544638" xlink:href="#m8f3b820ac9" y="214.449281"/>
      </g>
     </g>
     <g id="text_10">
      <!-- 1 MiB -->
      <defs>
       <path d="M 9.8125 72.90625 
L 24.515625 72.90625 
L 43.109375 23.296875 
L 61.8125 72.90625 
L 76.515625 72.90625 
L 76.515625 0 
L 66.890625 0 
L 66.890625 64.015625 
L 48.09375 14.015625 
L 38.1875 14.015625 
L 19.390625 64.015625 
L 19.390625 0 
L 9.8125 0 
z
" id="DejaVuSans-4d"/>
      </defs>
      <g transform="translate(406.016222 221.449281)rotate(-270)scale(0.09163 -0.09163)">
       <use xlink:href="#DejaVuSans-31"/>
       <use x="63.623047" xlink:href="#DejaVuSans-20"/>
       <use x="95.410156" xlink:href="#DejaVuSans-4d"/>
       <use x="181.689453" xlink:href="#DejaVuSans-69"/>
       <use x="209.472656" xlink:href="#DejaVuSans-42"/>
      </g>
     </g>
    </g>
    <g id="xtick_11">
     <g id="line2d_11">
      <g>
       <use style="stroke:#000000;stroke-width:0.8;" x="446.590092" xlink:href="#m8f3b820ac9" y="214.449281"/>
      </g>
     </g>
     <g id="text_11">
      <!-- 4 MiB -->
      <g transform="translate(444.061677 221.449281)rotate(-270)scale(0.09163 -0.09163)">
       <use xlink:href="#DejaVuSans-34"/>
       <use x="63.623047" xlink:href="#DejaVuSans-20"/>
       <use x="95.410156" xlink:href="#DejaVuSans-4d"/>
       <use x="181.689453" xlink:href="#DejaVuSans-69"/>
       <use x="209.472656" xlink:href="#DejaVuSans-42"/>
      </g>
     </g>
    </g>
    <g id="xtick_12">
     <g id="line2d_12">
      <g>
       <use style="stroke:#000000;stroke-width:0.8;" x="484.635547" xlink:href="#m8f3b820ac9" y="214.449281"/>
      </g>
     </g>
     <g id="text_12">
      <!-- 16 MiB -->
      <g transform="translate(482.107131 221.449281)rotate(-270)scale(0.09163 -0.09163)">
       <use xlink:href="#DejaVuSans-31"/>
       <use x="63.623047" xlink:href="#DejaVuSans-36"/>
       <use x="127.246094" xlink:href="#DejaVuSans-20"/>
       <use x="159.033203" xlink:href="#DejaVuSans-4d"/>
       <use x="245.3125" xlink:href="#DejaVuSans-69"/>
       <use x="273.095703" xlink:href="#DejaVuSans-42"/>
      </g>
     </g>
    </g>
    <g id="xtick_13">
     <g id="line2d_13">
      <g>
       <use style="stroke:#000000;stroke-width:0.8;" x="522.681001" xlink:href="#m8f3b820ac9" y="214.449281"/>
      </g>
     </g>
     <g id="text_13">
      <!-- 64 MiB -->
      <g transform="translate(520.152586 221.449281)rotate(-270)scale(0.09163 -0.09163)">
       <use xlink:href="#DejaVuSans-36"/>
       <use x="63.623047" xlink:href="#DejaVuSans-34"/>
       <use x="127.246094" xlink:href="#DejaVuSans-20"/>
       <use x="159.033203" xlink:href="#DejaVuSans-4d"/>
       <use x="245.3125" xlink:href="#DejaVuSans-69"/>
       <use x="273.095703" xlink:href="#DejaVuSans-42"/>
      </g>
     </g>
    </g>
   </g>
   <g id="matplotlib.axis_2">
    <g id="ytick_1">
     <g id="line2d_14">
      <defs>
       <path d="M 0 0 
L -3.5 0 
" id="meb8808101a" style="stroke:#000000;stroke-width:0.8;"/>
      </defs>
      <g>
       <use style="stroke:#000000;stroke-width:0.8;" x="43.308274" xlink:href="#meb8808101a" y="197.969043"/>
      </g>
     </g>
     <g id="text_14">
      <!-- -50 % -->
      <defs>
       <path d="M 4.890625 31.390625 
L 31.203125 31.390625 
L 31.203125 23.390625 
L 4.890625 23.390625 
z
" id="DejaVuSans-2d"/>
       <path d="M 31.78125 66.40625 
Q 24.171875 66.40625 20.328125 58.90625 
Q 16.5 51.421875 16.5 36.375 
Q 16.5 21.390625 20.328125 13.890625 
Q 24.171875 6.390625 31.78125 6.390625 
Q 39.453125 6.390625 43.28125 13.890625 
Q 47.125 21.390625 47.125 36.375 
Q 47.125 51.421875 43.28125 58.90625 
Q 39.453125 66.40625 31.78125 66.40625 
z
M 31.78125 74.21875 
Q 44.046875 74.21875 50.515625 64.515625 
Q 56.984375 54.828125 56.984375 36.375 
Q 56.984375 17.96875 50.515625 8.265625 
Q 44.046875 -1.421875 31.78125 -1.421875 
Q 19.53125 -1.421875 13.0625 8.265625 
Q 6.59375 17.96875 6.59375 36.375 
Q 6.59375 54.828125 13.0625 64.515625 
Q 19.53125 74.21875 31.78125 74.21875 
z
" id="DejaVuSans-30"/>
       <path d="M 72.703125 32.078125 
Q 68.453125 32.078125 66.03125 28.46875 
Q 63.625 24.859375 63.625 18.40625 
Q 63.625 12.0625 66.03125 8.421875 
Q 68.453125 4.78125 72.703125 4.78125 
Q 76.859375 4.78125 79.265625 8.421875 
Q 81.6875 12.0625 81.6875 18.40625 
Q 81.6875 24.8125 79.265625 28.4375 
Q 76.859375 32.078125 72.703125 32.078125 
z
M 72.703125 38.28125 
Q 80.421875 38.28125 84.953125 32.90625 
Q 89.5 27.546875 89.5 18.40625 
Q 89.5 9.28125 84.9375 3.921875 
Q 80.375 -1.421875 72.703125 -1.421875 
Q 64.890625 -1.421875 60.34375 3.921875 
Q 55.8125 9.28125 55.8125 18.40625 
Q 55.8125 27.59375 60.375 32.9375 
Q 64.9375 38.28125 72.703125 38.28125 
z
M 22.3125 68.015625 
Q 18.109375 68.015625 15.6875 64.375 
Q 13.28125 60.75 13.28125 54.390625 
Q 13.28125 47.953125 15.671875 44.328125 
Q 18.0625 40.71875 22.3125 40.71875 
Q 26.5625 40.71875 28.96875 44.328125 
Q 31.390625 47.953125 31.390625 54.390625 
Q 31.390625 60.6875 28.953125 64.34375 
Q 26.515625 68.015625 22.3125 68.015625 
z
M 66.40625 74.21875 
L 74.21875 74.21875 
L 28.609375 -1.421875 
L 20.796875 -1.421875 
z
M 22.3125 74.21875 
Q 30.03125 74.21875 34.609375 68.875 
Q 39.203125 63.53125 39.203125 54.390625 
Q 39.203125 45.171875 34.640625 39.84375 
Q 30.078125 34.515625 22.3125 34.515625 
Q 14.546875 34.515625 10.03125 39.859375 
Q 5.515625 45.21875 5.515625 54.390625 
Q 5.515625 63.484375 10.046875 68.84375 
Q 14.59375 74.21875 22.3125 74.21875 
z
" id="DejaVuSans-25"/>
      </defs>
      <g transform="translate(9.72412 201.450267)scale(0.09163 -0.09163)">
       <use xlink:href="#DejaVuSans-2d"/>
       <use x="36.083984" xlink:href="#DejaVuSans-35"/>
       <use x="99.707031" xlink:href="#DejaVuSans-30"/>
       <use x="163.330078" xlink:href="#DejaVuSans-20"/>
       <use x="195.117188" xlink:href="#DejaVuSans-25"/>
      </g>
     </g>
    </g>
    <g id="ytick_2">
     <g id="line2d_15">
      <g>
       <use style="stroke:#000000;stroke-width:0.8;" x="43.308274" xlink:href="#meb8808101a" y="168.631299"/>
      </g>
     </g>
     <g id="text_15">
      <!-- 0 % -->
      <g transform="translate(18.859918 172.112523)scale(0.09163 -0.09163)">
       <use xlink:href="#DejaVuSans-30"/>
       <use x="63.623047" xlink:href="#DejaVuSans-20"/>
       <use x="95.410156" xlink:href="#DejaVuSans-25"/>
      </g>
     </g>
    </g>
    <g id="ytick_3">
     <g id="line2d_16">
      <g>
       <use style="stroke:#000000;stroke-width:0.8;" x="43.308274" xlink:href="#meb8808101a" y="139.293555"/>
      </g>
     </g>
     <g id="text_16">
      <!-- 50 % -->
      <g transform="translate(13.029959 142.774779)scale(0.09163 -0.09163)">
       <use xlink:href="#DejaVuSans-35"/>
       <use x="63.623047" xlink:href="#DejaVuSans-30"/>
       <use x="127.246094" xlink:href="#DejaVuSans-20"/>
       <use x="159.033203" xlink:href="#DejaVuSans-25"/>
      </g>
     </g>
    </g>
    <g id="ytick_4">
     <g id="line2d_17">
      <g>
       <use style="stroke:#000000;stroke-width:0.8;" x="43.308274" xlink:href="#meb8808101a" y="109.955811"/>
      </g>
     </g>
     <g id="text_17">
      <!-- 100 % -->
      <g transform="translate(7.2 113.437036)scale(0.09163 -0.09163)">
       <use xlink:href="#DejaVuSans-31"/>
       <use x="63.623047" xlink:href="#DejaVuSans-30"/>
       <use x="127.246094" xlink:href="#DejaVuSans-30"/>
       <use x="190.869141" xlink:href="#DejaVuSans-20"/>
       <use x="222.65625" xlink:href="#DejaVuSans-25"/>
      </g>
     </g>
    </g>
    <g id="ytick_5">
     <g id="line2d_18">
      <g>
       <use style="stroke:#000000;stroke-width:0.8;" x="43.308274" xlink:href="#meb8808101a" y="80.618067"/>
      </g>
     </g>
     <g id="text_18">
      <!-- 150 % -->
      <g transform="translate(7.2 84.099292)scale(0.09163 -0.09163)">
       <use xlink:href="#DejaVuSans-31"/>
       <use x="63.623047" xlink:href="#DejaVuSans-35"/>
       <use x="127.246094" xlink:href="#DejaVuSans-30"/>
       <use x="190.869141" xlink:href="#DejaVuSans-20"/>
       <use x="222.65625" xlink:href="#DejaVuSans-25"/>
      </g>
     </g>
    </g>
    <g id="ytick_6">
     <g id="line2d_19">
      <g>
       <use style="stroke:#000000;stroke-width:0.8;" x="43.308274" xlink:href="#meb8808101a" y="51.280324"/>
      </g>
     </g>
     <g id="text_19">
      <!-- 200 % -->
      <g transform="translate(7.2 54.761548)scale(0.09163 -0.09163)">
       <use xlink:href="#DejaVuSans-32"/>
       <use x="63.623047" xlink:href="#DejaVuSans-30"/>
       <use x="127.246094" xlink:href="#DejaVuSans-30"/>
       <use x="190.869141" xlink:href="#DejaVuSans-20"/>
       <use x="222.65625" xlink:href="#DejaVuSans-25"/>
      </g>
     </g>
    </g>
    <g id="ytick_7">
     <g id="line2d_20">
      <g>
       <use style="stroke:#000000;stroke-width:0.8;" x="43.308274" xlink:href="#meb8808101a" y="21.94258"/>
      </g>
     </g>
     <g id="text_20">
      <!-- 250 % -->
      <g transform="translate(7.2 25.423804)scale(0.09163 -0.09163)">
       <use xlink:href="#DejaVuSans-32"/>
       <use x="63.623047" xlink:href="#DejaVuSans-35"/>
       <use x="127.246094" xlink:href="#DejaVuSans-30"/>
       <use x="190.869141" xlink:href="#DejaVuSans-20"/>
       <use x="222.65625" xlink:href="#DejaVuSans-25"/>
      </g>
     </g>
    </g>
   </g>
   <g id="line2d_21">
    <defs>
     <path d="M 0 1.5 
C 0.397805 1.5 0.77937 1.341951 1.06066 1.06066 
C 1.341951 0.77937 1.5 0.397805 1.5 0 
C 1.5 -0.397805 1.341951 -0.77937 1.06066 -1.06066 
C 0.77937 -1.341951 0.397805 -1.5 0 -1.5 
C -0.397805 -1.5 -0.77937 -1.341951 -1.06066 -1.06066 
C -1.341951 -0.77937 -1.5 -0.397805 -1.5 0 
C -1.5 0.397805 -1.341951 0.77937 -1.06066 1.06066 
C -0.77937 1.341951 -0.397805 1.5 0 1.5 
z
" id="m33b304f09b" style="stroke:#4c72b0;"/>
    </defs>
    <g clip-path="url(#p27b0228d99)">
     <use style="fill:#4c72b0;opacity:0.75;stroke:#4c72b0;" x="66.135547" xlink:href="#m33b304f09b" y="165.891832"/>
     <use style="fill:#4c72b0;opacity:0.75;stroke:#4c72b0;" x="66.135547" xlink:href="#m33b304f09b" y="165.931092"/>
     <use style="fill:#4c72b0;opacity:0.75;stroke:#4c72b0;" x="66.135547" xlink:href="#m33b304f09b" y="166.14727"/>
     <use style="fill:#4c72b0;opacity:0.75;stroke:#4c72b0;" x="66.135547" xlink:href="#m33b304f09b" y="165.307341"/>
     <use style="fill:#4c72b0;opacity:0.75;stroke:#4c72b0;" x="66.135547" xlink:href="#m33b304f09b" y="166.081116"/>
     <use style="fill:#4c72b0;opacity:0.75;stroke:#4c72b0;" x="104.181001" xlink:href="#m33b304f09b" y="158.404926"/>
     <use style="fill:#4c72b0;opacity:0.75;stroke:#4c72b0;" x="104.181001" xlink:href="#m33b304f09b" y="157.456667"/>
     <use style="fill:#4c72b0;opacity:0.75;stroke:#4c72b0;" x="104.181001" xlink:href="#m33b304f09b" y="158.137008"/>
     <use style="fill:#4c72b0;opacity:0.75;stroke:#4c72b0;" x="104.181001" xlink:href="#m33b304f09b" y="159.151533"/>
     <use style="fill:#4c72b0;opacity:0.75;stroke:#4c72b0;" x="104.181001" xlink:href="#m33b304f09b" y="158.053117"/>
     <use style="fill:#4c72b0;opacity:0.75;stroke:#4c72b0;" x="142.226456" xlink:href="#m33b304f09b" y="146.173237"/>
     <use style="fill:#4c72b0;opacity:0.75;stroke:#4c72b0;" x="142.226456" xlink:href="#m33b304f09b" y="147.203148"/>
     <use style="fill:#4c72b0;opacity:0.75;stroke:#4c72b0;" x="142.226456" xlink:href="#m33b304f09b" y="147.656223"/>
     <use style="fill:#4c72b0;opacity:0.75;stroke:#4c72b0;" x="142.226456" xlink:href="#m33b304f09b" y="144.71836"/>
     <use style="fill:#4c72b0;opacity:0.75;stroke:#4c72b0;" x="142.226456" xlink:href="#m33b304f09b" y="147.585636"/>
     <use style="fill:#4c72b0;opacity:0.75;stroke:#4c72b0;" x="180.27191" xlink:href="#m33b304f09b" y="138.034067"/>
     <use style="fill:#4c72b0;opacity:0.75;stroke:#4c72b0;" x="180.27191" xlink:href="#m33b304f09b" y="139.547732"/>
     <use style="fill:#4c72b0;opacity:0.75;stroke:#4c72b0;" x="180.27191" xlink:href="#m33b304f09b" y="137.972724"/>
     <use style="fill:#4c72b0;opacity:0.75;stroke:#4c72b0;" x="180.27191" xlink:href="#m33b304f09b" y="132.384789"/>
     <use style="fill:#4c72b0;opacity:0.75;stroke:#4c72b0;" x="180.27191" xlink:href="#m33b304f09b" y="139.202979"/>
     <use style="fill:#4c72b0;opacity:0.75;stroke:#4c72b0;" x="218.317365" xlink:href="#m33b304f09b" y="133.703024"/>
     <use style="fill:#4c72b0;opacity:0.75;stroke:#4c72b0;" x="218.317365" xlink:href="#m33b304f09b" y="134.165235"/>
     <use style="fill:#4c72b0;opacity:0.75;stroke:#4c72b0;" x="218.317365" xlink:href="#m33b304f09b" y="129.040911"/>
     <use style="fill:#4c72b0;opacity:0.75;stroke:#4c72b0;" x="218.317365" xlink:href="#m33b304f09b" y="136.925282"/>
     <use style="fill:#4c72b0;opacity:0.75;stroke:#4c72b0;" x="218.317365" xlink:href="#m33b304f09b" y="128.936788"/>
     <use style="fill:#4c72b0;opacity:0.75;stroke:#4c72b0;" x="256.362819" xlink:href="#m33b304f09b" y="130.98082"/>
     <use style="fill:#4c72b0;opacity:0.75;stroke:#4c72b0;" x="256.362819" xlink:href="#m33b304f09b" y="128.193678"/>
     <use style="fill:#4c72b0;opacity:0.75;stroke:#4c72b0;" x="256.362819" xlink:href="#m33b304f09b" y="125.463739"/>
     <use style="fill:#4c72b0;opacity:0.75;stroke:#4c72b0;" x="256.362819" xlink:href="#m33b304f09b" y="130.140313"/>
     <use style="fill:#4c72b0;opacity:0.75;stroke:#4c72b0;" x="256.362819" xlink:href="#m33b304f09b" y="129.888764"/>
     <use style="fill:#4c72b0;opacity:0.75;stroke:#4c72b0;" x="294.408274" xlink:href="#m33b304f09b" y="116.770661"/>
     <use style="fill:#4c72b0;opacity:0.75;stroke:#4c72b0;" x="294.408274" xlink:href="#m33b304f09b" y="112.613666"/>
     <use style="fill:#4c72b0;opacity:0.75;stroke:#4c72b0;" x="294.408274" xlink:href="#m33b304f09b" y="118.409329"/>
     <use style="fill:#4c72b0;opacity:0.75;stroke:#4c72b0;" x="294.408274" xlink:href="#m33b304f09b" y="114.436783"/>
     <use style="fill:#4c72b0;opacity:0.75;stroke:#4c72b0;" x="294.408274" xlink:href="#m33b304f09b" y="115.526662"/>
     <use style="fill:#4c72b0;opacity:0.75;stroke:#4c72b0;" x="332.453728" xlink:href="#m33b304f09b" y="120.026514"/>
     <use style="fill:#4c72b0;opacity:0.75;stroke:#4c72b0;" x="332.453728" xlink:href="#m33b304f09b" y="122.12057"/>
     <use style="fill:#4c72b0;opacity:0.75;stroke:#4c72b0;" x="332.453728" xlink:href="#m33b304f09b" y="122.992503"/>
     <use style="fill:#4c72b0;opacity:0.75;stroke:#4c72b0;" x="332.453728" xlink:href="#m33b304f09b" y="120.663421"/>
     <use style="fill:#4c72b0;opacity:0.75;stroke:#4c72b0;" x="332.453728" xlink:href="#m33b304f09b" y="127.365894"/>
     <use style="fill:#4c72b0;opacity:0.75;stroke:#4c72b0;" x="370.499183" xlink:href="#m33b304f09b" y="134.967449"/>
     <use style="fill:#4c72b0;opacity:0.75;stroke:#4c72b0;" x="370.499183" xlink:href="#m33b304f09b" y="135.663698"/>
     <use style="fill:#4c72b0;opacity:0.75;stroke:#4c72b0;" x="370.499183" xlink:href="#m33b304f09b" y="140.640892"/>
     <use style="fill:#4c72b0;opacity:0.75;stroke:#4c72b0;" x="370.499183" xlink:href="#m33b304f09b" y="136.552429"/>
     <use style="fill:#4c72b0;opacity:0.75;stroke:#4c72b0;" x="370.499183" xlink:href="#m33b304f09b" y="138.172838"/>
     <use style="fill:#4c72b0;opacity:0.75;stroke:#4c72b0;" x="408.544638" xlink:href="#m33b304f09b" y="138.961464"/>
     <use style="fill:#4c72b0;opacity:0.75;stroke:#4c72b0;" x="408.544638" xlink:href="#m33b304f09b" y="141.116304"/>
     <use style="fill:#4c72b0;opacity:0.75;stroke:#4c72b0;" x="408.544638" xlink:href="#m33b304f09b" y="140.196502"/>
     <use style="fill:#4c72b0;opacity:0.75;stroke:#4c72b0;" x="408.544638" xlink:href="#m33b304f09b" y="138.832006"/>
     <use style="fill:#4c72b0;opacity:0.75;stroke:#4c72b0;" x="408.544638" xlink:href="#m33b304f09b" y="139.90238"/>
     <use style="fill:#4c72b0;opacity:0.75;stroke:#4c72b0;" x="446.590092" xlink:href="#m33b304f09b" y="146.405808"/>
     <use style="fill:#4c72b0;opacity:0.75;stroke:#4c72b0;" x="446.590092" xlink:href="#m33b304f09b" y="149.888561"/>
     <use style="fill:#4c72b0;opacity:0.75;stroke:#4c72b0;" x="446.590092" xlink:href="#m33b304f09b" y="149.042466"/>
     <use style="fill:#4c72b0;opacity:0.75;stroke:#4c72b0;" x="446.590092" xlink:href="#m33b304f09b" y="148.542618"/>
     <use style="fill:#4c72b0;opacity:0.75;stroke:#4c72b0;" x="446.590092" xlink:href="#m33b304f09b" y="148.737129"/>
     <use style="fill:#4c72b0;opacity:0.75;stroke:#4c72b0;" x="484.635547" xlink:href="#m33b304f09b" y="156.124674"/>
     <use style="fill:#4c72b0;opacity:0.75;stroke:#4c72b0;" x="484.635547" xlink:href="#m33b304f09b" y="156.019171"/>
     <use style="fill:#4c72b0;opacity:0.75;stroke:#4c72b0;" x="484.635547" xlink:href="#m33b304f09b" y="154.440578"/>
     <use style="fill:#4c72b0;opacity:0.75;stroke:#4c72b0;" x="484.635547" xlink:href="#m33b304f09b" y="155.426619"/>
     <use style="fill:#4c72b0;opacity:0.75;stroke:#4c72b0;" x="484.635547" xlink:href="#m33b304f09b" y="155.877658"/>
     <use style="fill:#4c72b0;opacity:0.75;stroke:#4c72b0;" x="522.681001" xlink:href="#m33b304f09b" y="205.629281"/>
     <use style="fill:#4c72b0;opacity:0.75;stroke:#4c72b0;" x="522.681001" xlink:href="#m33b304f09b" y="202.781898"/>
     <use style="fill:#4c72b0;opacity:0.75;stroke:#4c72b0;" x="522.681001" xlink:href="#m33b304f09b" y="203.686356"/>
     <use style="fill:#4c72b0;opacity:0.75;stroke:#4c72b0;" x="522.681001" xlink:href="#m33b304f09b" y="203.418092"/>
     <use style="fill:#4c72b0;opacity:0.75;stroke:#4c72b0;" x="522.681001" xlink:href="#m33b304f09b" y="203.379837"/>
    </g>
   </g>
   <g id="line2d_22">
    <path clip-path="url(#p27b0228d99)" d="M 66.135547 165.87173 
L 104.181001 158.24065 
L 142.226456 146.667321 
L 180.27191 137.428458 
L 218.317365 132.554248 
L 256.362819 128.933463 
L 294.408274 115.55142 
L 332.453728 122.63378 
L 370.499183 137.199461 
L 408.544638 139.801731 
L 446.590092 148.523317 
L 484.635547 155.57774 
L 522.681001 203.779093 
" style="fill:none;opacity:0.75;stroke:#4c72b0;stroke-linecap:square;stroke-width:1.5;"/>
   </g>
   <g id="line2d_23">
    <defs>
     <path d="M 0 1.5 
C 0.397805 1.5 0.77937 1.341951 1.06066 1.06066 
C 1.341951 0.77937 1.5 0.397805 1.5 0 
C 1.5 -0.397805 1.341951 -0.77937 1.06066 -1.06066 
C 0.77937 -1.341951 0.397805 -1.5 0 -1.5 
C -0.397805 -1.5 -0.77937 -1.341951 -1.06066 -1.06066 
C -1.341951 -0.77937 -1.5 -0.397805 -1.5 0 
C -1.5 0.397805 -1.341951 0.77937 -1.06066 1.06066 
C -0.77937 1.341951 -0.397805 1.5 0 1.5 
z
" id="m421005929f" style="stroke:#dd8452;"/>
    </defs>
    <g clip-path="url(#p27b0228d99)">
     <use style="fill:#dd8452;opacity:0.75;stroke:#dd8452;" x="66.135547" xlink:href="#m421005929f" y="168.508214"/>
     <use style="fill:#dd8452;opacity:0.75;stroke:#dd8452;" x="66.135547" xlink:href="#m421005929f" y="167.897856"/>
     <use style="fill:#dd8452;opacity:0.75;stroke:#dd8452;" x="66.135547" xlink:href="#m421005929f" y="167.646572"/>
     <use style="fill:#dd8452;opacity:0.75;stroke:#dd8452;" x="66.135547" xlink:href="#m421005929f" y="168.353699"/>
     <use style="fill:#dd8452;opacity:0.75;stroke:#dd8452;" x="66.135547" xlink:href="#m421005929f" y="168.049206"/>
     <use style="fill:#dd8452;opacity:0.75;stroke:#dd8452;" x="104.181001" xlink:href="#m421005929f" y="172.33875"/>
     <use style="fill:#dd8452;opacity:0.75;stroke:#dd8452;" x="104.181001" xlink:href="#m421005929f" y="169.330318"/>
     <use style="fill:#dd8452;opacity:0.75;stroke:#dd8452;" x="104.181001" xlink:href="#m421005929f" y="171.032506"/>
     <use style="fill:#dd8452;opacity:0.75;stroke:#dd8452;" x="104.181001" xlink:href="#m421005929f" y="171.162548"/>
     <use style="fill:#dd8452;opacity:0.75;stroke:#dd8452;" x="104.181001" xlink:href="#m421005929f" y="170.359913"/>
     <use style="fill:#dd8452;opacity:0.75;stroke:#dd8452;" x="142.226456" xlink:href="#m421005929f" y="170.206912"/>
     <use style="fill:#dd8452;opacity:0.75;stroke:#dd8452;" x="142.226456" xlink:href="#m421005929f" y="171.401209"/>
     <use style="fill:#dd8452;opacity:0.75;stroke:#dd8452;" x="142.226456" xlink:href="#m421005929f" y="172.385035"/>
     <use style="fill:#dd8452;opacity:0.75;stroke:#dd8452;" x="142.226456" xlink:href="#m421005929f" y="171.729239"/>
     <use style="fill:#dd8452;opacity:0.75;stroke:#dd8452;" x="142.226456" xlink:href="#m421005929f" y="173.169135"/>
     <use style="fill:#dd8452;opacity:0.75;stroke:#dd8452;" x="180.27191" xlink:href="#m421005929f" y="172.115853"/>
     <use style="fill:#dd8452;opacity:0.75;stroke:#dd8452;" x="180.27191" xlink:href="#m421005929f" y="170.368332"/>
     <use style="fill:#dd8452;opacity:0.75;stroke:#dd8452;" x="180.27191" xlink:href="#m421005929f" y="172.186611"/>
     <use style="fill:#dd8452;opacity:0.75;stroke:#dd8452;" x="180.27191" xlink:href="#m421005929f" y="173.227091"/>
     <use style="fill:#dd8452;opacity:0.75;stroke:#dd8452;" x="180.27191" xlink:href="#m421005929f" y="172.75098"/>
     <use style="fill:#dd8452;opacity:0.75;stroke:#dd8452;" x="218.317365" xlink:href="#m421005929f" y="172.939531"/>
     <use style="fill:#dd8452;opacity:0.75;stroke:#dd8452;" x="218.317365" xlink:href="#m421005929f" y="171.868846"/>
     <use style="fill:#dd8452;opacity:0.75;stroke:#dd8452;" x="218.317365" xlink:href="#m421005929f" y="172.370537"/>
     <use style="fill:#dd8452;opacity:0.75;stroke:#dd8452;" x="218.317365" xlink:href="#m421005929f" y="169.933228"/>
     <use style="fill:#dd8452;opacity:0.75;stroke:#dd8452;" x="218.317365" xlink:href="#m421005929f" y="172.913249"/>
     <use style="fill:#dd8452;opacity:0.75;stroke:#dd8452;" x="256.362819" xlink:href="#m421005929f" y="172.475268"/>
     <use style="fill:#dd8452;opacity:0.75;stroke:#dd8452;" x="256.362819" xlink:href="#m421005929f" y="172.574958"/>
     <use style="fill:#dd8452;opacity:0.75;stroke:#dd8452;" x="256.362819" xlink:href="#m421005929f" y="170.990277"/>
     <use style="fill:#dd8452;opacity:0.75;stroke:#dd8452;" x="256.362819" xlink:href="#m421005929f" y="171.51715"/>
     <use style="fill:#dd8452;opacity:0.75;stroke:#dd8452;" x="256.362819" xlink:href="#m421005929f" y="172.140955"/>
     <use style="fill:#dd8452;opacity:0.75;stroke:#dd8452;" x="294.408274" xlink:href="#m421005929f" y="173.292362"/>
     <use style="fill:#dd8452;opacity:0.75;stroke:#dd8452;" x="294.408274" xlink:href="#m421005929f" y="172.947938"/>
     <use style="fill:#dd8452;opacity:0.75;stroke:#dd8452;" x="294.408274" xlink:href="#m421005929f" y="175.000218"/>
     <use style="fill:#dd8452;opacity:0.75;stroke:#dd8452;" x="294.408274" xlink:href="#m421005929f" y="174.018296"/>
     <use style="fill:#dd8452;opacity:0.75;stroke:#dd8452;" x="294.408274" xlink:href="#m421005929f" y="174.388135"/>
     <use style="fill:#dd8452;opacity:0.75;stroke:#dd8452;" x="332.453728" xlink:href="#m421005929f" y="173.456633"/>
     <use style="fill:#dd8452;opacity:0.75;stroke:#dd8452;" x="332.453728" xlink:href="#m421005929f" y="176.499277"/>
     <use style="fill:#dd8452;opacity:0.75;stroke:#dd8452;" x="332.453728" xlink:href="#m421005929f" y="175.278019"/>
     <use style="fill:#dd8452;opacity:0.75;stroke:#dd8452;" x="332.453728" xlink:href="#m421005929f" y="174.965379"/>
     <use style="fill:#dd8452;opacity:0.75;stroke:#dd8452;" x="332.453728" xlink:href="#m421005929f" y="175.970127"/>
     <use style="fill:#dd8452;opacity:0.75;stroke:#dd8452;" x="370.499183" xlink:href="#m421005929f" y="176.159054"/>
     <use style="fill:#dd8452;opacity:0.75;stroke:#dd8452;" x="370.499183" xlink:href="#m421005929f" y="175.374539"/>
     <use style="fill:#dd8452;opacity:0.75;stroke:#dd8452;" x="370.499183" xlink:href="#m421005929f" y="177.283616"/>
     <use style="fill:#dd8452;opacity:0.75;stroke:#dd8452;" x="370.499183" xlink:href="#m421005929f" y="176.942369"/>
     <use style="fill:#dd8452;opacity:0.75;stroke:#dd8452;" x="370.499183" xlink:href="#m421005929f" y="176.770009"/>
     <use style="fill:#dd8452;opacity:0.75;stroke:#dd8452;" x="408.544638" xlink:href="#m421005929f" y="185.525407"/>
     <use style="fill:#dd8452;opacity:0.75;stroke:#dd8452;" x="408.544638" xlink:href="#m421005929f" y="185.189022"/>
     <use style="fill:#dd8452;opacity:0.75;stroke:#dd8452;" x="408.544638" xlink:href="#m421005929f" y="185.425374"/>
     <use style="fill:#dd8452;opacity:0.75;stroke:#dd8452;" x="408.544638" xlink:href="#m421005929f" y="184.784941"/>
     <use style="fill:#dd8452;opacity:0.75;stroke:#dd8452;" x="408.544638" xlink:href="#m421005929f" y="185.706852"/>
     <use style="fill:#dd8452;opacity:0.75;stroke:#dd8452;" x="446.590092" xlink:href="#m421005929f" y="188.435088"/>
     <use style="fill:#dd8452;opacity:0.75;stroke:#dd8452;" x="446.590092" xlink:href="#m421005929f" y="187.619311"/>
     <use style="fill:#dd8452;opacity:0.75;stroke:#dd8452;" x="446.590092" xlink:href="#m421005929f" y="187.097096"/>
     <use style="fill:#dd8452;opacity:0.75;stroke:#dd8452;" x="446.590092" xlink:href="#m421005929f" y="187.63031"/>
     <use style="fill:#dd8452;opacity:0.75;stroke:#dd8452;" x="446.590092" xlink:href="#m421005929f" y="187.984267"/>
     <use style="fill:#dd8452;opacity:0.75;stroke:#dd8452;" x="484.635547" xlink:href="#m421005929f" y="190.273869"/>
     <use style="fill:#dd8452;opacity:0.75;stroke:#dd8452;" x="484.635547" xlink:href="#m421005929f" y="189.552983"/>
     <use style="fill:#dd8452;opacity:0.75;stroke:#dd8452;" x="484.635547" xlink:href="#m421005929f" y="188.861849"/>
     <use style="fill:#dd8452;opacity:0.75;stroke:#dd8452;" x="484.635547" xlink:href="#m421005929f" y="189.051258"/>
     <use style="fill:#dd8452;opacity:0.75;stroke:#dd8452;" x="484.635547" xlink:href="#m421005929f" y="189.496847"/>
     <use style="fill:#dd8452;opacity:0.75;stroke:#dd8452;" x="522.681001" xlink:href="#m421005929f" y="191.060874"/>
     <use style="fill:#dd8452;opacity:0.75;stroke:#dd8452;" x="522.681001" xlink:href="#m421005929f" y="192.225907"/>
     <use style="fill:#dd8452;opacity:0.75;stroke:#dd8452;" x="522.681001" xlink:href="#m421005929f" y="191.638632"/>
     <use style="fill:#dd8452;opacity:0.75;stroke:#dd8452;" x="522.681001" xlink:href="#m421005929f" y="191.579634"/>
     <use style="fill:#dd8452;opacity:0.75;stroke:#dd8452;" x="522.681001" xlink:href="#m421005929f" y="191.132527"/>
    </g>
   </g>
   <g id="line2d_24">
    <path clip-path="url(#p27b0228d99)" d="M 66.135547 168.091109 
L 104.181001 170.844807 
L 142.226456 171.778306 
L 180.27191 172.129773 
L 218.317365 172.005078 
L 256.362819 171.939722 
L 294.408274 173.92939 
L 332.453728 175.233887 
L 370.499183 176.505917 
L 408.544638 185.326319 
L 446.590092 187.753214 
L 484.635547 189.447361 
L 522.681001 191.527515 
" style="fill:none;opacity:0.75;stroke:#dd8452;stroke-linecap:square;stroke-width:1.5;"/>
   </g>
   <g id="line2d_25">
    <defs>
     <path d="M 0 1.5 
C 0.397805 1.5 0.77937 1.341951 1.06066 1.06066 
C 1.341951 0.77937 1.5 0.397805 1.5 0 
C 1.5 -0.397805 1.341951 -0.77937 1.06066 -1.06066 
C 0.77937 -1.341951 0.397805 -1.5 0 -1.5 
C -0.397805 -1.5 -0.77937 -1.341951 -1.06066 -1.06066 
C -1.341951 -0.77937 -1.5 -0.397805 -1.5 0 
C -1.5 0.397805 -1.341951 0.77937 -1.06066 1.06066 
C -0.77937 1.341951 -0.397805 1.5 0 1.5 
z
" id="mbc2b11012f" style="stroke:#55a868;"/>
    </defs>
    <g clip-path="url(#p27b0228d99)">
     <use style="fill:#55a868;opacity:0.75;stroke:#55a868;" x="66.135547" xlink:href="#mbc2b11012f" y="85.694387"/>
     <use style="fill:#55a868;opacity:0.75;stroke:#55a868;" x="66.135547" xlink:href="#mbc2b11012f" y="85.290493"/>
     <use style="fill:#55a868;opacity:0.75;stroke:#55a868;" x="66.135547" xlink:href="#mbc2b11012f" y="87.113255"/>
     <use style="fill:#55a868;opacity:0.75;stroke:#55a868;" x="66.135547" xlink:href="#mbc2b11012f" y="85.5804"/>
     <use style="fill:#55a868;opacity:0.75;stroke:#55a868;" x="66.135547" xlink:href="#mbc2b11012f" y="87.133892"/>
     <use style="fill:#55a868;opacity:0.75;stroke:#55a868;" x="104.181001" xlink:href="#mbc2b11012f" y="88.471157"/>
     <use style="fill:#55a868;opacity:0.75;stroke:#55a868;" x="104.181001" xlink:href="#mbc2b11012f" y="85.655988"/>
     <use style="fill:#55a868;opacity:0.75;stroke:#55a868;" x="104.181001" xlink:href="#mbc2b11012f" y="90.600452"/>
     <use style="fill:#55a868;opacity:0.75;stroke:#55a868;" x="104.181001" xlink:href="#mbc2b11012f" y="89.103643"/>
     <use style="fill:#55a868;opacity:0.75;stroke:#55a868;" x="104.181001" xlink:href="#mbc2b11012f" y="86.333006"/>
     <use style="fill:#55a868;opacity:0.75;stroke:#55a868;" x="142.226456" xlink:href="#mbc2b11012f" y="85.652665"/>
     <use style="fill:#55a868;opacity:0.75;stroke:#55a868;" x="142.226456" xlink:href="#mbc2b11012f" y="88.736744"/>
     <use style="fill:#55a868;opacity:0.75;stroke:#55a868;" x="142.226456" xlink:href="#mbc2b11012f" y="87.023307"/>
     <use style="fill:#55a868;opacity:0.75;stroke:#55a868;" x="142.226456" xlink:href="#mbc2b11012f" y="89.484745"/>
     <use style="fill:#55a868;opacity:0.75;stroke:#55a868;" x="142.226456" xlink:href="#mbc2b11012f" y="86.79389"/>
     <use style="fill:#55a868;opacity:0.75;stroke:#55a868;" x="180.27191" xlink:href="#mbc2b11012f" y="89.236036"/>
     <use style="fill:#55a868;opacity:0.75;stroke:#55a868;" x="180.27191" xlink:href="#mbc2b11012f" y="88.767514"/>
     <use style="fill:#55a868;opacity:0.75;stroke:#55a868;" x="180.27191" xlink:href="#mbc2b11012f" y="86.925627"/>
     <use style="fill:#55a868;opacity:0.75;stroke:#55a868;" x="180.27191" xlink:href="#mbc2b11012f" y="87.557717"/>
     <use style="fill:#55a868;opacity:0.75;stroke:#55a868;" x="180.27191" xlink:href="#mbc2b11012f" y="90.464515"/>
     <use style="fill:#55a868;opacity:0.75;stroke:#55a868;" x="218.317365" xlink:href="#mbc2b11012f" y="97.560814"/>
     <use style="fill:#55a868;opacity:0.75;stroke:#55a868;" x="218.317365" xlink:href="#mbc2b11012f" y="94.990357"/>
     <use style="fill:#55a868;opacity:0.75;stroke:#55a868;" x="218.317365" xlink:href="#mbc2b11012f" y="98.074223"/>
     <use style="fill:#55a868;opacity:0.75;stroke:#55a868;" x="218.317365" xlink:href="#mbc2b11012f" y="97.905582"/>
     <use style="fill:#55a868;opacity:0.75;stroke:#55a868;" x="218.317365" xlink:href="#mbc2b11012f" y="96.10381"/>
     <use style="fill:#55a868;opacity:0.75;stroke:#55a868;" x="256.362819" xlink:href="#mbc2b11012f" y="110.75069"/>
     <use style="fill:#55a868;opacity:0.75;stroke:#55a868;" x="256.362819" xlink:href="#mbc2b11012f" y="106.218342"/>
     <use style="fill:#55a868;opacity:0.75;stroke:#55a868;" x="256.362819" xlink:href="#mbc2b11012f" y="112.949606"/>
     <use style="fill:#55a868;opacity:0.75;stroke:#55a868;" x="256.362819" xlink:href="#mbc2b11012f" y="118.200265"/>
     <use style="fill:#55a868;opacity:0.75;stroke:#55a868;" x="256.362819" xlink:href="#mbc2b11012f" y="107.598327"/>
     <use style="fill:#55a868;opacity:0.75;stroke:#55a868;" x="294.408274" xlink:href="#mbc2b11012f" y="107.218392"/>
     <use style="fill:#55a868;opacity:0.75;stroke:#55a868;" x="294.408274" xlink:href="#mbc2b11012f" y="107.335665"/>
     <use style="fill:#55a868;opacity:0.75;stroke:#55a868;" x="294.408274" xlink:href="#mbc2b11012f" y="108.133663"/>
     <use style="fill:#55a868;opacity:0.75;stroke:#55a868;" x="294.408274" xlink:href="#mbc2b11012f" y="107.064195"/>
     <use style="fill:#55a868;opacity:0.75;stroke:#55a868;" x="294.408274" xlink:href="#mbc2b11012f" y="108.299529"/>
     <use style="fill:#55a868;opacity:0.75;stroke:#55a868;" x="332.453728" xlink:href="#mbc2b11012f" y="128.528959"/>
     <use style="fill:#55a868;opacity:0.75;stroke:#55a868;" x="332.453728" xlink:href="#mbc2b11012f" y="127.00717"/>
     <use style="fill:#55a868;opacity:0.75;stroke:#55a868;" x="332.453728" xlink:href="#mbc2b11012f" y="125.996573"/>
     <use style="fill:#55a868;opacity:0.75;stroke:#55a868;" x="332.453728" xlink:href="#mbc2b11012f" y="124.931782"/>
     <use style="fill:#55a868;opacity:0.75;stroke:#55a868;" x="332.453728" xlink:href="#mbc2b11012f" y="126.416036"/>
     <use style="fill:#55a868;opacity:0.75;stroke:#55a868;" x="370.499183" xlink:href="#mbc2b11012f" y="141.813114"/>
     <use style="fill:#55a868;opacity:0.75;stroke:#55a868;" x="370.499183" xlink:href="#mbc2b11012f" y="146.990333"/>
     <use style="fill:#55a868;opacity:0.75;stroke:#55a868;" x="370.499183" xlink:href="#mbc2b11012f" y="146.276727"/>
     <use style="fill:#55a868;opacity:0.75;stroke:#55a868;" x="370.499183" xlink:href="#mbc2b11012f" y="142.161824"/>
     <use style="fill:#55a868;opacity:0.75;stroke:#55a868;" x="370.499183" xlink:href="#mbc2b11012f" y="141.56915"/>
     <use style="fill:#55a868;opacity:0.75;stroke:#55a868;" x="408.544638" xlink:href="#mbc2b11012f" y="138.043636"/>
     <use style="fill:#55a868;opacity:0.75;stroke:#55a868;" x="408.544638" xlink:href="#mbc2b11012f" y="141.629577"/>
     <use style="fill:#55a868;opacity:0.75;stroke:#55a868;" x="408.544638" xlink:href="#mbc2b11012f" y="142.636239"/>
     <use style="fill:#55a868;opacity:0.75;stroke:#55a868;" x="408.544638" xlink:href="#mbc2b11012f" y="141.121409"/>
     <use style="fill:#55a868;opacity:0.75;stroke:#55a868;" x="408.544638" xlink:href="#mbc2b11012f" y="141.966295"/>
     <use style="fill:#55a868;opacity:0.75;stroke:#55a868;" x="446.590092" xlink:href="#mbc2b11012f" y="152.705763"/>
     <use style="fill:#55a868;opacity:0.75;stroke:#55a868;" x="446.590092" xlink:href="#mbc2b11012f" y="149.968532"/>
     <use style="fill:#55a868;opacity:0.75;stroke:#55a868;" x="446.590092" xlink:href="#mbc2b11012f" y="155.826726"/>
     <use style="fill:#55a868;opacity:0.75;stroke:#55a868;" x="446.590092" xlink:href="#mbc2b11012f" y="151.534278"/>
     <use style="fill:#55a868;opacity:0.75;stroke:#55a868;" x="446.590092" xlink:href="#mbc2b11012f" y="156.091331"/>
     <use style="fill:#55a868;opacity:0.75;stroke:#55a868;" x="484.635547" xlink:href="#mbc2b11012f" y="157.66483"/>
     <use style="fill:#55a868;opacity:0.75;stroke:#55a868;" x="484.635547" xlink:href="#mbc2b11012f" y="158.223341"/>
     <use style="fill:#55a868;opacity:0.75;stroke:#55a868;" x="484.635547" xlink:href="#mbc2b11012f" y="158.067393"/>
     <use style="fill:#55a868;opacity:0.75;stroke:#55a868;" x="484.635547" xlink:href="#mbc2b11012f" y="155.945985"/>
     <use style="fill:#55a868;opacity:0.75;stroke:#55a868;" x="484.635547" xlink:href="#mbc2b11012f" y="158.638001"/>
     <use style="fill:#55a868;opacity:0.75;stroke:#55a868;" x="522.681001" xlink:href="#mbc2b11012f" y="202.369307"/>
     <use style="fill:#55a868;opacity:0.75;stroke:#55a868;" x="522.681001" xlink:href="#mbc2b11012f" y="203.984071"/>
     <use style="fill:#55a868;opacity:0.75;stroke:#55a868;" x="522.681001" xlink:href="#mbc2b11012f" y="203.156055"/>
     <use style="fill:#55a868;opacity:0.75;stroke:#55a868;" x="522.681001" xlink:href="#mbc2b11012f" y="203.271147"/>
     <use style="fill:#55a868;opacity:0.75;stroke:#55a868;" x="522.681001" xlink:href="#mbc2b11012f" y="203.58146"/>
    </g>
   </g>
   <g id="line2d_26">
    <path clip-path="url(#p27b0228d99)" d="M 66.135547 86.162486 
L 104.181001 88.032849 
L 142.226456 87.53827 
L 180.27191 88.590282 
L 218.317365 96.926957 
L 256.362819 111.143446 
L 294.408274 107.610289 
L 332.453728 126.576104 
L 370.499183 143.76223 
L 408.544638 141.079431 
L 446.590092 153.225326 
L 484.635547 157.70791 
L 522.681001 203.272408 
" style="fill:none;opacity:0.75;stroke:#55a868;stroke-linecap:square;stroke-width:1.5;"/>
   </g>
   <g id="line2d_27">
    <defs>
     <path d="M 0 1.5 
C 0.397805 1.5 0.77937 1.341951 1.06066 1.06066 
C 1.341951 0.77937 1.5 0.397805 1.5 0 
C 1.5 -0.397805 1.341951 -0.77937 1.06066 -1.06066 
C 0.77937 -1.341951 0.397805 -1.5 0 -1.5 
C -0.397805 -1.5 -0.77937 -1.341951 -1.06066 -1.06066 
C -1.341951 -0.77937 -1.5 -0.397805 -1.5 0 
C -1.5 0.397805 -1.341951 0.77937 -1.06066 1.06066 
C -0.77937 1.341951 -0.397805 1.5 0 1.5 
z
" id="m70a04a0d8f" style="stroke:#c44e52;"/>
    </defs>
    <g clip-path="url(#p27b0228d99)">
     <use style="fill:#c44e52;opacity:0.75;stroke:#c44e52;" x="66.135547" xlink:href="#m70a04a0d8f" y="35.833311"/>
     <use style="fill:#c44e52;opacity:0.75;stroke:#c44e52;" x="66.135547" xlink:href="#m70a04a0d8f" y="34.88572"/>
     <use style="fill:#c44e52;opacity:0.75;stroke:#c44e52;" x="66.135547" xlink:href="#m70a04a0d8f" y="30.526251"/>
     <use style="fill:#c44e52;opacity:0.75;stroke:#c44e52;" x="66.135547" xlink:href="#m70a04a0d8f" y="35.955316"/>
     <use style="fill:#c44e52;opacity:0.75;stroke:#c44e52;" x="66.135547" xlink:href="#m70a04a0d8f" y="29.229281"/>
     <use style="fill:#c44e52;opacity:0.75;stroke:#c44e52;" x="104.181001" xlink:href="#m70a04a0d8f" y="39.028125"/>
     <use style="fill:#c44e52;opacity:0.75;stroke:#c44e52;" x="104.181001" xlink:href="#m70a04a0d8f" y="40.62098"/>
     <use style="fill:#c44e52;opacity:0.75;stroke:#c44e52;" x="104.181001" xlink:href="#m70a04a0d8f" y="36.839903"/>
     <use style="fill:#c44e52;opacity:0.75;stroke:#c44e52;" x="104.181001" xlink:href="#m70a04a0d8f" y="43.364998"/>
     <use style="fill:#c44e52;opacity:0.75;stroke:#c44e52;" x="104.181001" xlink:href="#m70a04a0d8f" y="34.399412"/>
     <use style="fill:#c44e52;opacity:0.75;stroke:#c44e52;" x="142.226456" xlink:href="#m70a04a0d8f" y="48.986164"/>
     <use style="fill:#c44e52;opacity:0.75;stroke:#c44e52;" x="142.226456" xlink:href="#m70a04a0d8f" y="60.564811"/>
     <use style="fill:#c44e52;opacity:0.75;stroke:#c44e52;" x="142.226456" xlink:href="#m70a04a0d8f" y="56.220964"/>
     <use style="fill:#c44e52;opacity:0.75;stroke:#c44e52;" x="142.226456" xlink:href="#m70a04a0d8f" y="56.10436"/>
     <use style="fill:#c44e52;opacity:0.75;stroke:#c44e52;" x="142.226456" xlink:href="#m70a04a0d8f" y="54.426348"/>
     <use style="fill:#c44e52;opacity:0.75;stroke:#c44e52;" x="180.27191" xlink:href="#m70a04a0d8f" y="96.2436"/>
     <use style="fill:#c44e52;opacity:0.75;stroke:#c44e52;" x="180.27191" xlink:href="#m70a04a0d8f" y="95.988228"/>
     <use style="fill:#c44e52;opacity:0.75;stroke:#c44e52;" x="180.27191" xlink:href="#m70a04a0d8f" y="98.452259"/>
     <use style="fill:#c44e52;opacity:0.75;stroke:#c44e52;" x="180.27191" xlink:href="#m70a04a0d8f" y="97.889161"/>
     <use style="fill:#c44e52;opacity:0.75;stroke:#c44e52;" x="180.27191" xlink:href="#m70a04a0d8f" y="93.178336"/>
     <use style="fill:#c44e52;opacity:0.75;stroke:#c44e52;" x="218.317365" xlink:href="#m70a04a0d8f" y="143.384925"/>
     <use style="fill:#c44e52;opacity:0.75;stroke:#c44e52;" x="218.317365" xlink:href="#m70a04a0d8f" y="143.717127"/>
     <use style="fill:#c44e52;opacity:0.75;stroke:#c44e52;" x="218.317365" xlink:href="#m70a04a0d8f" y="142.901692"/>
     <use style="fill:#c44e52;opacity:0.75;stroke:#c44e52;" x="218.317365" xlink:href="#m70a04a0d8f" y="145.037112"/>
     <use style="fill:#c44e52;opacity:0.75;stroke:#c44e52;" x="218.317365" xlink:href="#m70a04a0d8f" y="143.125588"/>
     <use style="fill:#c44e52;opacity:0.75;stroke:#c44e52;" x="256.362819" xlink:href="#m70a04a0d8f" y="167.143928"/>
     <use style="fill:#c44e52;opacity:0.75;stroke:#c44e52;" x="256.362819" xlink:href="#m70a04a0d8f" y="168.485"/>
     <use style="fill:#c44e52;opacity:0.75;stroke:#c44e52;" x="256.362819" xlink:href="#m70a04a0d8f" y="166.438335"/>
     <use style="fill:#c44e52;opacity:0.75;stroke:#c44e52;" x="256.362819" xlink:href="#m70a04a0d8f" y="166.132651"/>
     <use style="fill:#c44e52;opacity:0.75;stroke:#c44e52;" x="256.362819" xlink:href="#m70a04a0d8f" y="166.596467"/>
     <use style="fill:#c44e52;opacity:0.75;stroke:#c44e52;" x="294.408274" xlink:href="#m70a04a0d8f" y="173.761594"/>
     <use style="fill:#c44e52;opacity:0.75;stroke:#c44e52;" x="294.408274" xlink:href="#m70a04a0d8f" y="172.627068"/>
     <use style="fill:#c44e52;opacity:0.75;stroke:#c44e52;" x="294.408274" xlink:href="#m70a04a0d8f" y="172.029288"/>
     <use style="fill:#c44e52;opacity:0.75;stroke:#c44e52;" x="294.408274" xlink:href="#m70a04a0d8f" y="173.632942"/>
     <use style="fill:#c44e52;opacity:0.75;stroke:#c44e52;" x="294.408274" xlink:href="#m70a04a0d8f" y="171.171358"/>
     <use style="fill:#c44e52;opacity:0.75;stroke:#c44e52;" x="332.453728" xlink:href="#m70a04a0d8f" y="175.242609"/>
     <use style="fill:#c44e52;opacity:0.75;stroke:#c44e52;" x="332.453728" xlink:href="#m70a04a0d8f" y="173.602355"/>
     <use style="fill:#c44e52;opacity:0.75;stroke:#c44e52;" x="332.453728" xlink:href="#m70a04a0d8f" y="176.59851"/>
     <use style="fill:#c44e52;opacity:0.75;stroke:#c44e52;" x="332.453728" xlink:href="#m70a04a0d8f" y="176.83787"/>
     <use style="fill:#c44e52;opacity:0.75;stroke:#c44e52;" x="332.453728" xlink:href="#m70a04a0d8f" y="175.211574"/>
     <use style="fill:#c44e52;opacity:0.75;stroke:#c44e52;" x="370.499183" xlink:href="#m70a04a0d8f" y="176.6424"/>
     <use style="fill:#c44e52;opacity:0.75;stroke:#c44e52;" x="370.499183" xlink:href="#m70a04a0d8f" y="177.229626"/>
     <use style="fill:#c44e52;opacity:0.75;stroke:#c44e52;" x="370.499183" xlink:href="#m70a04a0d8f" y="176.20649"/>
     <use style="fill:#c44e52;opacity:0.75;stroke:#c44e52;" x="370.499183" xlink:href="#m70a04a0d8f" y="182.841934"/>
     <use style="fill:#c44e52;opacity:0.75;stroke:#c44e52;" x="370.499183" xlink:href="#m70a04a0d8f" y="177.906321"/>
     <use style="fill:#c44e52;opacity:0.75;stroke:#c44e52;" x="408.544638" xlink:href="#m70a04a0d8f" y="185.876966"/>
     <use style="fill:#c44e52;opacity:0.75;stroke:#c44e52;" x="408.544638" xlink:href="#m70a04a0d8f" y="186.174579"/>
     <use style="fill:#c44e52;opacity:0.75;stroke:#c44e52;" x="408.544638" xlink:href="#m70a04a0d8f" y="188.093561"/>
     <use style="fill:#c44e52;opacity:0.75;stroke:#c44e52;" x="408.544638" xlink:href="#m70a04a0d8f" y="187.081651"/>
     <use style="fill:#c44e52;opacity:0.75;stroke:#c44e52;" x="408.544638" xlink:href="#m70a04a0d8f" y="186.418362"/>
     <use style="fill:#c44e52;opacity:0.75;stroke:#c44e52;" x="446.590092" xlink:href="#m70a04a0d8f" y="188.31692"/>
     <use style="fill:#c44e52;opacity:0.75;stroke:#c44e52;" x="446.590092" xlink:href="#m70a04a0d8f" y="188.199313"/>
     <use style="fill:#c44e52;opacity:0.75;stroke:#c44e52;" x="446.590092" xlink:href="#m70a04a0d8f" y="187.839192"/>
     <use style="fill:#c44e52;opacity:0.75;stroke:#c44e52;" x="446.590092" xlink:href="#m70a04a0d8f" y="188.30567"/>
     <use style="fill:#c44e52;opacity:0.75;stroke:#c44e52;" x="446.590092" xlink:href="#m70a04a0d8f" y="188.147852"/>
     <use style="fill:#c44e52;opacity:0.75;stroke:#c44e52;" x="484.635547" xlink:href="#m70a04a0d8f" y="189.242722"/>
     <use style="fill:#c44e52;opacity:0.75;stroke:#c44e52;" x="484.635547" xlink:href="#m70a04a0d8f" y="190.12222"/>
     <use style="fill:#c44e52;opacity:0.75;stroke:#c44e52;" x="484.635547" xlink:href="#m70a04a0d8f" y="188.142946"/>
     <use style="fill:#c44e52;opacity:0.75;stroke:#c44e52;" x="484.635547" xlink:href="#m70a04a0d8f" y="189.269383"/>
     <use style="fill:#c44e52;opacity:0.75;stroke:#c44e52;" x="484.635547" xlink:href="#m70a04a0d8f" y="189.645361"/>
     <use style="fill:#c44e52;opacity:0.75;stroke:#c44e52;" x="522.681001" xlink:href="#m70a04a0d8f" y="190.925965"/>
     <use style="fill:#c44e52;opacity:0.75;stroke:#c44e52;" x="522.681001" xlink:href="#m70a04a0d8f" y="191.304121"/>
     <use style="fill:#c44e52;opacity:0.75;stroke:#c44e52;" x="522.681001" xlink:href="#m70a04a0d8f" y="191.675914"/>
     <use style="fill:#c44e52;opacity:0.75;stroke:#c44e52;" x="522.681001" xlink:href="#m70a04a0d8f" y="192.361325"/>
     <use style="fill:#c44e52;opacity:0.75;stroke:#c44e52;" x="522.681001" xlink:href="#m70a04a0d8f" y="190.887303"/>
    </g>
   </g>
   <g id="line2d_28">
    <path clip-path="url(#p27b0228d99)" d="M 66.135547 33.285976 
L 104.181001 38.850684 
L 142.226456 55.260529 
L 180.27191 96.350317 
L 218.317365 143.633289 
L 256.362819 166.959276 
L 294.408274 172.64445 
L 332.453728 175.498583 
L 370.499183 178.165354 
L 408.544638 186.729024 
L 446.590092 188.16179 
L 484.635547 189.284526 
L 522.681001 191.430926 
" style="fill:none;opacity:0.75;stroke:#c44e52;stroke-linecap:square;stroke-width:1.5;"/>
   </g>
   <g id="line2d_29">
    <path clip-path="url(#p27b0228d99)" d="M 66.135547 168.631299 
L 104.181001 168.631299 
L 142.226456 168.631299 
L 180.27191 168.631299 
L 218.317365 168.631299 
L 256.362819 168.631299 
L 294.408274 168.631299 
L 332.453728 168.631299 
L 370.499183 168.631299 
L 408.544638 168.631299 
L 446.590092 168.631299 
L 484.635547 168.631299 
L 522.681001 168.631299 
" style="fill:none;opacity:0.75;stroke:#000000;stroke-dasharray:1.5,2.475;stroke-dashoffset:0;stroke-width:1.5;"/>
   </g>
   <g id="patch_3">
    <path d="M 43.308274 214.449281 
L 43.308274 20.409281 
" style="fill:none;stroke:#000000;stroke-linecap:square;stroke-linejoin:miter;stroke-width:0.8;"/>
   </g>
   <g id="patch_4">
    <path d="M 43.308274 214.449281 
L 545.508274 214.449281 
" style="fill:none;stroke:#000000;stroke-linecap:square;stroke-linejoin:miter;stroke-width:0.8;"/>
   </g>
   <g id="text_21">
    <!-- Veracruz VFS v1 vs Wasmtime+tmpfs -->
    <defs>
     <path d="M 28.609375 0 
L 0.78125 72.90625 
L 11.078125 72.90625 
L 34.1875 11.53125 
L 57.328125 72.90625 
L 67.578125 72.90625 
L 39.796875 0 
z
" id="DejaVuSans-56"/>
     <path d="M 56.203125 29.59375 
L 56.203125 25.203125 
L 14.890625 25.203125 
Q 15.484375 15.921875 20.484375 11.0625 
Q 25.484375 6.203125 34.421875 6.203125 
Q 39.59375 6.203125 44.453125 7.46875 
Q 49.3125 8.734375 54.109375 11.28125 
L 54.109375 2.78125 
Q 49.265625 0.734375 44.1875 -0.34375 
Q 39.109375 -1.421875 33.890625 -1.421875 
Q 20.796875 -1.421875 13.15625 6.1875 
Q 5.515625 13.8125 5.515625 26.8125 
Q 5.515625 40.234375 12.765625 48.109375 
Q 20.015625 56 32.328125 56 
Q 43.359375 56 49.78125 48.890625 
Q 56.203125 41.796875 56.203125 29.59375 
z
M 47.21875 32.234375 
Q 47.125 39.59375 43.09375 43.984375 
Q 39.0625 48.390625 32.421875 48.390625 
Q 24.90625 48.390625 20.390625 44.140625 
Q 15.875 39.890625 15.1875 32.171875 
z
" id="DejaVuSans-65"/>
     <path d="M 41.109375 46.296875 
Q 39.59375 47.171875 37.8125 47.578125 
Q 36.03125 48 33.890625 48 
Q 26.265625 48 22.1875 43.046875 
Q 18.109375 38.09375 18.109375 28.8125 
L 18.109375 0 
L 9.078125 0 
L 9.078125 54.6875 
L 18.109375 54.6875 
L 18.109375 46.1875 
Q 20.953125 51.171875 25.484375 53.578125 
Q 30.03125 56 36.53125 56 
Q 37.453125 56 38.578125 55.875 
Q 39.703125 55.765625 41.0625 55.515625 
z
" id="DejaVuSans-72"/>
     <path d="M 34.28125 27.484375 
Q 23.390625 27.484375 19.1875 25 
Q 14.984375 22.515625 14.984375 16.5 
Q 14.984375 11.71875 18.140625 8.90625 
Q 21.296875 6.109375 26.703125 6.109375 
Q 34.1875 6.109375 38.703125 11.40625 
Q 43.21875 16.703125 43.21875 25.484375 
L 43.21875 27.484375 
z
M 52.203125 31.203125 
L 52.203125 0 
L 43.21875 0 
L 43.21875 8.296875 
Q 40.140625 3.328125 35.546875 0.953125 
Q 30.953125 -1.421875 24.3125 -1.421875 
Q 15.921875 -1.421875 10.953125 3.296875 
Q 6 8.015625 6 15.921875 
Q 6 25.140625 12.171875 29.828125 
Q 18.359375 34.515625 30.609375 34.515625 
L 43.21875 34.515625 
L 43.21875 35.40625 
Q 43.21875 41.609375 39.140625 45 
Q 35.0625 48.390625 27.6875 48.390625 
Q 23 48.390625 18.546875 47.265625 
Q 14.109375 46.140625 10.015625 43.890625 
L 10.015625 52.203125 
Q 14.9375 54.109375 19.578125 55.046875 
Q 24.21875 56 28.609375 56 
Q 40.484375 56 46.34375 49.84375 
Q 52.203125 43.703125 52.203125 31.203125 
z
" id="DejaVuSans-61"/>
     <path d="M 48.78125 52.59375 
L 48.78125 44.1875 
Q 44.96875 46.296875 41.140625 47.34375 
Q 37.3125 48.390625 33.40625 48.390625 
Q 24.65625 48.390625 19.8125 42.84375 
Q 14.984375 37.3125 14.984375 27.296875 
Q 14.984375 17.28125 19.8125 11.734375 
Q 24.65625 6.203125 33.40625 6.203125 
Q 37.3125 6.203125 41.140625 7.25 
Q 44.96875 8.296875 48.78125 10.40625 
L 48.78125 2.09375 
Q 45.015625 0.34375 40.984375 -0.53125 
Q 36.96875 -1.421875 32.421875 -1.421875 
Q 20.0625 -1.421875 12.78125 6.34375 
Q 5.515625 14.109375 5.515625 27.296875 
Q 5.515625 40.671875 12.859375 48.328125 
Q 20.21875 56 33.015625 56 
Q 37.15625 56 41.109375 55.140625 
Q 45.0625 54.296875 48.78125 52.59375 
z
" id="DejaVuSans-63"/>
     <path d="M 8.5 21.578125 
L 8.5 54.6875 
L 17.484375 54.6875 
L 17.484375 21.921875 
Q 17.484375 14.15625 20.5 10.265625 
Q 23.53125 6.390625 29.59375 6.390625 
Q 36.859375 6.390625 41.078125 11.03125 
Q 45.3125 15.671875 45.3125 23.6875 
L 45.3125 54.6875 
L 54.296875 54.6875 
L 54.296875 0 
L 45.3125 0 
L 45.3125 8.40625 
Q 42.046875 3.421875 37.71875 1 
Q 33.40625 -1.421875 27.6875 -1.421875 
Q 18.265625 -1.421875 13.375 4.4375 
Q 8.5 10.296875 8.5 21.578125 
z
M 31.109375 56 
z
" id="DejaVuSans-75"/>
     <path d="M 5.515625 54.6875 
L 48.1875 54.6875 
L 48.1875 46.484375 
L 14.40625 7.171875 
L 48.1875 7.171875 
L 48.1875 0 
L 4.296875 0 
L 4.296875 8.203125 
L 38.09375 47.515625 
L 5.515625 47.515625 
z
" id="DejaVuSans-7a"/>
     <path d="M 9.8125 72.90625 
L 51.703125 72.90625 
L 51.703125 64.59375 
L 19.671875 64.59375 
L 19.671875 43.109375 
L 48.578125 43.109375 
L 48.578125 34.8125 
L 19.671875 34.8125 
L 19.671875 0 
L 9.8125 0 
z
" id="DejaVuSans-46"/>
     <path d="M 53.515625 70.515625 
L 53.515625 60.890625 
Q 47.90625 63.578125 42.921875 64.890625 
Q 37.9375 66.21875 33.296875 66.21875 
Q 25.25 66.21875 20.875 63.09375 
Q 16.5 59.96875 16.5 54.203125 
Q 16.5 49.359375 19.40625 46.890625 
Q 22.3125 44.4375 30.421875 42.921875 
L 36.375 41.703125 
Q 47.40625 39.59375 52.65625 34.296875 
Q 57.90625 29 57.90625 20.125 
Q 57.90625 9.515625 50.796875 4.046875 
Q 43.703125 -1.421875 29.984375 -1.421875 
Q 24.8125 -1.421875 18.96875 -0.25 
Q 13.140625 0.921875 6.890625 3.21875 
L 6.890625 13.375 
Q 12.890625 10.015625 18.65625 8.296875 
Q 24.421875 6.59375 29.984375 6.59375 
Q 38.421875 6.59375 43.015625 9.90625 
Q 47.609375 13.234375 47.609375 19.390625 
Q 47.609375 24.75 44.3125 27.78125 
Q 41.015625 30.8125 33.5 32.328125 
L 27.484375 33.5 
Q 16.453125 35.6875 11.515625 40.375 
Q 6.59375 45.0625 6.59375 53.421875 
Q 6.59375 63.09375 13.40625 68.65625 
Q 20.21875 74.21875 32.171875 74.21875 
Q 37.3125 74.21875 42.625 73.28125 
Q 47.953125 72.359375 53.515625 70.515625 
z
" id="DejaVuSans-53"/>
     <path d="M 2.984375 54.6875 
L 12.5 54.6875 
L 29.59375 8.796875 
L 46.6875 54.6875 
L 56.203125 54.6875 
L 35.6875 0 
L 23.484375 0 
z
" id="DejaVuSans-76"/>
     <path d="M 44.28125 53.078125 
L 44.28125 44.578125 
Q 40.484375 46.53125 36.375 47.5 
Q 32.28125 48.484375 27.875 48.484375 
Q 21.1875 48.484375 17.84375 46.4375 
Q 14.5 44.390625 14.5 40.28125 
Q 14.5 37.15625 16.890625 35.375 
Q 19.28125 33.59375 26.515625 31.984375 
L 29.59375 31.296875 
Q 39.15625 29.25 43.1875 25.515625 
Q 47.21875 21.78125 47.21875 15.09375 
Q 47.21875 7.46875 41.1875 3.015625 
Q 35.15625 -1.421875 24.609375 -1.421875 
Q 20.21875 -1.421875 15.453125 -0.5625 
Q 10.6875 0.296875 5.421875 2 
L 5.421875 11.28125 
Q 10.40625 8.6875 15.234375 7.390625 
Q 20.0625 6.109375 24.8125 6.109375 
Q 31.15625 6.109375 34.5625 8.28125 
Q 37.984375 10.453125 37.984375 14.40625 
Q 37.984375 18.0625 35.515625 20.015625 
Q 33.0625 21.96875 24.703125 23.78125 
L 21.578125 24.515625 
Q 13.234375 26.265625 9.515625 29.90625 
Q 5.8125 33.546875 5.8125 39.890625 
Q 5.8125 47.609375 11.28125 51.796875 
Q 16.75 56 26.8125 56 
Q 31.78125 56 36.171875 55.265625 
Q 40.578125 54.546875 44.28125 53.078125 
z
" id="DejaVuSans-73"/>
     <path d="M 3.328125 72.90625 
L 13.28125 72.90625 
L 28.609375 11.28125 
L 43.890625 72.90625 
L 54.984375 72.90625 
L 70.3125 11.28125 
L 85.59375 72.90625 
L 95.609375 72.90625 
L 77.296875 0 
L 64.890625 0 
L 49.515625 63.28125 
L 33.984375 0 
L 21.578125 0 
z
" id="DejaVuSans-57"/>
     <path d="M 52 44.1875 
Q 55.375 50.25 60.0625 53.125 
Q 64.75 56 71.09375 56 
Q 79.640625 56 84.28125 50.015625 
Q 88.921875 44.046875 88.921875 33.015625 
L 88.921875 0 
L 79.890625 0 
L 79.890625 32.71875 
Q 79.890625 40.578125 77.09375 44.375 
Q 74.3125 48.1875 68.609375 48.1875 
Q 61.625 48.1875 57.5625 43.546875 
Q 53.515625 38.921875 53.515625 30.90625 
L 53.515625 0 
L 44.484375 0 
L 44.484375 32.71875 
Q 44.484375 40.625 41.703125 44.40625 
Q 38.921875 48.1875 33.109375 48.1875 
Q 26.21875 48.1875 22.15625 43.53125 
Q 18.109375 38.875 18.109375 30.90625 
L 18.109375 0 
L 9.078125 0 
L 9.078125 54.6875 
L 18.109375 54.6875 
L 18.109375 46.1875 
Q 21.1875 51.21875 25.484375 53.609375 
Q 29.78125 56 35.6875 56 
Q 41.65625 56 45.828125 52.96875 
Q 50 49.953125 52 44.1875 
z
" id="DejaVuSans-6d"/>
     <path d="M 18.3125 70.21875 
L 18.3125 54.6875 
L 36.8125 54.6875 
L 36.8125 47.703125 
L 18.3125 47.703125 
L 18.3125 18.015625 
Q 18.3125 11.328125 20.140625 9.421875 
Q 21.96875 7.515625 27.59375 7.515625 
L 36.8125 7.515625 
L 36.8125 0 
L 27.59375 0 
Q 17.1875 0 13.234375 3.875 
Q 9.28125 7.765625 9.28125 18.015625 
L 9.28125 47.703125 
L 2.6875 47.703125 
L 2.6875 54.6875 
L 9.28125 54.6875 
L 9.28125 70.21875 
z
" id="DejaVuSans-74"/>
     <path d="M 46 62.703125 
L 46 35.5 
L 73.1875 35.5 
L 73.1875 27.203125 
L 46 27.203125 
L 46 0 
L 37.796875 0 
L 37.796875 27.203125 
L 10.59375 27.203125 
L 10.59375 35.5 
L 37.796875 35.5 
L 37.796875 62.703125 
z
" id="DejaVuSans-2b"/>
     <path d="M 18.109375 8.203125 
L 18.109375 -20.796875 
L 9.078125 -20.796875 
L 9.078125 54.6875 
L 18.109375 54.6875 
L 18.109375 46.390625 
Q 20.953125 51.265625 25.265625 53.625 
Q 29.59375 56 35.59375 56 
Q 45.5625 56 51.78125 48.09375 
Q 58.015625 40.1875 58.015625 27.296875 
Q 58.015625 14.40625 51.78125 6.484375 
Q 45.5625 -1.421875 35.59375 -1.421875 
Q 29.59375 -1.421875 25.265625 0.953125 
Q 20.953125 3.328125 18.109375 8.203125 
z
M 48.6875 27.296875 
Q 48.6875 37.203125 44.609375 42.84375 
Q 40.53125 48.484375 33.40625 48.484375 
Q 26.265625 48.484375 22.1875 42.84375 
Q 18.109375 37.203125 18.109375 27.296875 
Q 18.109375 17.390625 22.1875 11.75 
Q 26.265625 6.109375 33.40625 6.109375 
Q 40.53125 6.109375 44.609375 11.75 
Q 48.6875 17.390625 48.6875 27.296875 
z
" id="DejaVuSans-70"/>
     <path d="M 37.109375 75.984375 
L 37.109375 68.5 
L 28.515625 68.5 
Q 23.6875 68.5 21.796875 66.546875 
Q 19.921875 64.59375 19.921875 59.515625 
L 19.921875 54.6875 
L 34.71875 54.6875 
L 34.71875 47.703125 
L 19.921875 47.703125 
L 19.921875 0 
L 10.890625 0 
L 10.890625 47.703125 
L 2.296875 47.703125 
L 2.296875 54.6875 
L 10.890625 54.6875 
L 10.890625 58.5 
Q 10.890625 67.625 15.140625 71.796875 
Q 19.390625 75.984375 28.609375 75.984375 
z
" id="DejaVuSans-66"/>
    </defs>
    <g transform="translate(189.828352 15.558281)scale(0.11 -0.11)">
     <use xlink:href="#DejaVuSans-56"/>
     <use x="68.298828" xlink:href="#DejaVuSans-65"/>
     <use x="129.822266" xlink:href="#DejaVuSans-72"/>
     <use x="170.935547" xlink:href="#DejaVuSans-61"/>
     <use x="232.214844" xlink:href="#DejaVuSans-63"/>
     <use x="287.195312" xlink:href="#DejaVuSans-72"/>
     <use x="328.308594" xlink:href="#DejaVuSans-75"/>
     <use x="391.6875" xlink:href="#DejaVuSans-7a"/>
     <use x="444.177734" xlink:href="#DejaVuSans-20"/>
     <use x="475.964844" xlink:href="#DejaVuSans-56"/>
     <use x="544.373047" xlink:href="#DejaVuSans-46"/>
     <use x="601.876953" xlink:href="#DejaVuSans-53"/>
     <use x="665.353516" xlink:href="#DejaVuSans-20"/>
     <use x="697.140625" xlink:href="#DejaVuSans-76"/>
     <use x="756.320312" xlink:href="#DejaVuSans-31"/>
     <use x="819.943359" xlink:href="#DejaVuSans-20"/>
     <use x="851.730469" xlink:href="#DejaVuSans-76"/>
     <use x="910.910156" xlink:href="#DejaVuSans-73"/>
     <use x="963.009766" xlink:href="#DejaVuSans-20"/>
     <use x="994.796875" xlink:href="#DejaVuSans-57"/>
     <use x="1093.580078" xlink:href="#DejaVuSans-61"/>
     <use x="1154.859375" xlink:href="#DejaVuSans-73"/>
     <use x="1206.958984" xlink:href="#DejaVuSans-6d"/>
     <use x="1304.371094" xlink:href="#DejaVuSans-74"/>
     <use x="1343.580078" xlink:href="#DejaVuSans-69"/>
     <use x="1371.363281" xlink:href="#DejaVuSans-6d"/>
     <use x="1468.775391" xlink:href="#DejaVuSans-65"/>
     <use x="1530.298828" xlink:href="#DejaVuSans-2b"/>
     <use x="1614.087891" xlink:href="#DejaVuSans-74"/>
     <use x="1653.296875" xlink:href="#DejaVuSans-6d"/>
     <use x="1750.708984" xlink:href="#DejaVuSans-70"/>
     <use x="1814.185547" xlink:href="#DejaVuSans-66"/>
     <use x="1849.390625" xlink:href="#DejaVuSans-73"/>
    </g>
   </g>
   <g id="legend_1">
    <g id="patch_5">
     <path d="M 565.763274 100.236969 
L 705.819055 100.236969 
Q 708.019055 100.236969 708.019055 98.036969 
L 708.019055 18.407281 
Q 708.019055 16.207281 705.819055 16.207281 
L 565.763274 16.207281 
Q 563.563274 16.207281 563.563274 18.407281 
L 563.563274 98.036969 
Q 563.563274 100.236969 565.763274 100.236969 
z
" style="fill:#ffffff;opacity:0.8;stroke:#cccccc;stroke-linejoin:miter;"/>
    </g>
    <g id="line2d_30">
     <path d="M 567.963274 25.115562 
L 589.963274 25.115562 
" style="fill:none;opacity:0.75;stroke:#4c72b0;stroke-linecap:square;stroke-width:1.5;"/>
    </g>
    <g id="line2d_31"/>
    <g id="text_22">
     <!-- read inorder -->
     <defs>
      <path d="M 45.40625 46.390625 
L 45.40625 75.984375 
L 54.390625 75.984375 
L 54.390625 0 
L 45.40625 0 
L 45.40625 8.203125 
Q 42.578125 3.328125 38.25 0.953125 
Q 33.9375 -1.421875 27.875 -1.421875 
Q 17.96875 -1.421875 11.734375 6.484375 
Q 5.515625 14.40625 5.515625 27.296875 
Q 5.515625 40.1875 11.734375 48.09375 
Q 17.96875 56 27.875 56 
Q 33.9375 56 38.25 53.625 
Q 42.578125 51.265625 45.40625 46.390625 
z
M 14.796875 27.296875 
Q 14.796875 17.390625 18.875 11.75 
Q 22.953125 6.109375 30.078125 6.109375 
Q 37.203125 6.109375 41.296875 11.75 
Q 45.40625 17.390625 45.40625 27.296875 
Q 45.40625 37.203125 41.296875 42.84375 
Q 37.203125 48.484375 30.078125 48.484375 
Q 22.953125 48.484375 18.875 42.84375 
Q 14.796875 37.203125 14.796875 27.296875 
z
" id="DejaVuSans-64"/>
      <path d="M 54.890625 33.015625 
L 54.890625 0 
L 45.90625 0 
L 45.90625 32.71875 
Q 45.90625 40.484375 42.875 44.328125 
Q 39.84375 48.1875 33.796875 48.1875 
Q 26.515625 48.1875 22.3125 43.546875 
Q 18.109375 38.921875 18.109375 30.90625 
L 18.109375 0 
L 9.078125 0 
L 9.078125 54.6875 
L 18.109375 54.6875 
L 18.109375 46.1875 
Q 21.34375 51.125 25.703125 53.5625 
Q 30.078125 56 35.796875 56 
Q 45.21875 56 50.046875 50.171875 
Q 54.890625 44.34375 54.890625 33.015625 
z
" id="DejaVuSans-6e"/>
      <path d="M 30.609375 48.390625 
Q 23.390625 48.390625 19.1875 42.75 
Q 14.984375 37.109375 14.984375 27.296875 
Q 14.984375 17.484375 19.15625 11.84375 
Q 23.34375 6.203125 30.609375 6.203125 
Q 37.796875 6.203125 41.984375 11.859375 
Q 46.1875 17.53125 46.1875 27.296875 
Q 46.1875 37.015625 41.984375 42.703125 
Q 37.796875 48.390625 30.609375 48.390625 
z
M 30.609375 56 
Q 42.328125 56 49.015625 48.375 
Q 55.71875 40.765625 55.71875 27.296875 
Q 55.71875 13.875 49.015625 6.21875 
Q 42.328125 -1.421875 30.609375 -1.421875 
Q 18.84375 -1.421875 12.171875 6.21875 
Q 5.515625 13.875 5.515625 27.296875 
Q 5.515625 40.765625 12.171875 48.375 
Q 18.84375 56 30.609375 56 
z
" id="DejaVuSans-6f"/>
     </defs>
     <g transform="translate(598.763274 28.965562)scale(0.11 -0.11)">
      <use xlink:href="#DejaVuSans-72"/>
      <use x="41.082031" xlink:href="#DejaVuSans-65"/>
      <use x="102.605469" xlink:href="#DejaVuSans-61"/>
      <use x="163.884766" xlink:href="#DejaVuSans-64"/>
      <use x="227.361328" xlink:href="#DejaVuSans-20"/>
      <use x="259.148438" xlink:href="#DejaVuSans-69"/>
      <use x="286.931641" xlink:href="#DejaVuSans-6e"/>
      <use x="350.310547" xlink:href="#DejaVuSans-6f"/>
      <use x="411.492188" xlink:href="#DejaVuSans-72"/>
      <use x="452.589844" xlink:href="#DejaVuSans-64"/>
      <use x="516.066406" xlink:href="#DejaVuSans-65"/>
      <use x="577.589844" xlink:href="#DejaVuSans-72"/>
     </g>
    </g>
    <g id="line2d_32">
     <path d="M 567.963274 41.2615 
L 589.963274 41.2615 
" style="fill:none;opacity:0.75;stroke:#dd8452;stroke-linecap:square;stroke-width:1.5;"/>
    </g>
    <g id="line2d_33"/>
    <g id="text_23">
     <!-- write inorder -->
     <defs>
      <path d="M 4.203125 54.6875 
L 13.1875 54.6875 
L 24.421875 12.015625 
L 35.59375 54.6875 
L 46.1875 54.6875 
L 57.421875 12.015625 
L 68.609375 54.6875 
L 77.59375 54.6875 
L 63.28125 0 
L 52.6875 0 
L 40.921875 44.828125 
L 29.109375 0 
L 18.5 0 
z
" id="DejaVuSans-77"/>
     </defs>
     <g transform="translate(598.763274 45.1115)scale(0.11 -0.11)">
      <use xlink:href="#DejaVuSans-77"/>
      <use x="81.787109" xlink:href="#DejaVuSans-72"/>
      <use x="122.900391" xlink:href="#DejaVuSans-69"/>
      <use x="150.683594" xlink:href="#DejaVuSans-74"/>
      <use x="189.892578" xlink:href="#DejaVuSans-65"/>
      <use x="251.416016" xlink:href="#DejaVuSans-20"/>
      <use x="283.203125" xlink:href="#DejaVuSans-69"/>
      <use x="310.986328" xlink:href="#DejaVuSans-6e"/>
      <use x="374.365234" xlink:href="#DejaVuSans-6f"/>
      <use x="435.546875" xlink:href="#DejaVuSans-72"/>
      <use x="476.644531" xlink:href="#DejaVuSans-64"/>
      <use x="540.121094" xlink:href="#DejaVuSans-65"/>
      <use x="601.644531" xlink:href="#DejaVuSans-72"/>
     </g>
    </g>
    <g id="line2d_34">
     <path d="M 567.963274 57.407437 
L 589.963274 57.407437 
" style="fill:none;opacity:0.75;stroke:#55a868;stroke-linecap:square;stroke-width:1.5;"/>
    </g>
    <g id="line2d_35"/>
    <g id="text_24">
     <!-- read random -->
     <g transform="translate(598.763274 61.257437)scale(0.11 -0.11)">
      <use xlink:href="#DejaVuSans-72"/>
      <use x="41.082031" xlink:href="#DejaVuSans-65"/>
      <use x="102.605469" xlink:href="#DejaVuSans-61"/>
      <use x="163.884766" xlink:href="#DejaVuSans-64"/>
      <use x="227.361328" xlink:href="#DejaVuSans-20"/>
      <use x="259.148438" xlink:href="#DejaVuSans-72"/>
      <use x="300.261719" xlink:href="#DejaVuSans-61"/>
      <use x="361.541016" xlink:href="#DejaVuSans-6e"/>
      <use x="424.919922" xlink:href="#DejaVuSans-64"/>
      <use x="488.396484" xlink:href="#DejaVuSans-6f"/>
      <use x="549.578125" xlink:href="#DejaVuSans-6d"/>
     </g>
    </g>
    <g id="line2d_36">
     <path d="M 567.963274 73.553375 
L 589.963274 73.553375 
" style="fill:none;opacity:0.75;stroke:#c44e52;stroke-linecap:square;stroke-width:1.5;"/>
    </g>
    <g id="line2d_37"/>
    <g id="text_25">
     <!-- write random -->
     <g transform="translate(598.763274 77.403375)scale(0.11 -0.11)">
      <use xlink:href="#DejaVuSans-77"/>
      <use x="81.787109" xlink:href="#DejaVuSans-72"/>
      <use x="122.900391" xlink:href="#DejaVuSans-69"/>
      <use x="150.683594" xlink:href="#DejaVuSans-74"/>
      <use x="189.892578" xlink:href="#DejaVuSans-65"/>
      <use x="251.416016" xlink:href="#DejaVuSans-20"/>
      <use x="283.203125" xlink:href="#DejaVuSans-72"/>
      <use x="324.316406" xlink:href="#DejaVuSans-61"/>
      <use x="385.595703" xlink:href="#DejaVuSans-6e"/>
      <use x="448.974609" xlink:href="#DejaVuSans-64"/>
      <use x="512.451172" xlink:href="#DejaVuSans-6f"/>
      <use x="573.632812" xlink:href="#DejaVuSans-6d"/>
     </g>
    </g>
    <g id="line2d_38">
     <path d="M 567.963274 89.699312 
L 589.963274 89.699312 
" style="fill:none;opacity:0.75;stroke:#000000;stroke-dasharray:1.5,2.475;stroke-dashoffset:0;stroke-width:1.5;"/>
    </g>
    <g id="line2d_39"/>
    <g id="text_26">
     <!-- wasmtime + tmpfs -->
     <g transform="translate(598.763274 93.549312)scale(0.11 -0.11)">
      <use xlink:href="#DejaVuSans-77"/>
      <use x="81.787109" xlink:href="#DejaVuSans-61"/>
      <use x="143.066406" xlink:href="#DejaVuSans-73"/>
      <use x="195.166016" xlink:href="#DejaVuSans-6d"/>
      <use x="292.578125" xlink:href="#DejaVuSans-74"/>
      <use x="331.787109" xlink:href="#DejaVuSans-69"/>
      <use x="359.570312" xlink:href="#DejaVuSans-6d"/>
      <use x="456.982422" xlink:href="#DejaVuSans-65"/>
      <use x="518.505859" xlink:href="#DejaVuSans-20"/>
      <use x="550.292969" xlink:href="#DejaVuSans-2b"/>
      <use x="634.082031" xlink:href="#DejaVuSans-20"/>
      <use x="665.869141" xlink:href="#DejaVuSans-74"/>
      <use x="705.078125" xlink:href="#DejaVuSans-6d"/>
      <use x="802.490234" xlink:href="#DejaVuSans-70"/>
      <use x="865.966797" xlink:href="#DejaVuSans-66"/>
      <use x="901.171875" xlink:href="#DejaVuSans-73"/>
     </g>
    </g>
   </g>
  </g>
 </g>
 <defs>
  <clipPath id="p27b0228d99">
   <rect height="194.04" width="502.2" x="43.308274" y="20.409281"/>
  </clipPath>
 </defs>
</svg>
